<svg width="25" height="25" fill="none" xmlns="http://www.w3.org/2000/svg"><path d="M14.437 12.875a2.131 2.131 0 11-4.263 0 2.131 2.131 0 014.263 0z" fill="#444"/><path d="M15.905 6.433H8.706a2.845 2.845 0 00-2.842 2.842v7.2a2.845 2.845 0 002.842 2.841h7.2a2.845 2.845 0 002.841-2.841v-7.2a2.845 2.845 0 00-2.842-2.842zm-3.6 9.994a3.556 3.556 0 01-3.552-3.552 3.556 3.556 0 013.553-3.552 3.556 3.556 0 013.552 3.552 3.556 3.556 0 01-3.552 3.552zm4.074-6.915a.71.71 0 110-1.42.71.71 0 010 1.42z" fill="#444"/><path d="M18.037.75H6.575A6.401 6.401 0 00.18 7.144v11.462A6.401 6.401 0 006.575 25h11.462a6.401 6.401 0 006.394-6.394V7.144A6.401 6.401 0 0018.037.75zm2.131 15.724a4.268 4.268 0 01-4.263 4.263H8.706a4.268 4.268 0 01-4.263-4.262v-7.2a4.268 4.268 0 014.263-4.263h7.2a4.268 4.268 0 014.262 4.263v7.2z" fill="#444"/></svg>