<svg width="12" height="18" viewBox="0 0 12 18" fill="none" xmlns="http://www.w3.org/2000/svg">
<path d="M8.57143 6C8.57143 7.57366 7.28795 8.85714 5.71429 8.85714C4.14063 8.85714 2.85714 7.57366 2.85714 6C2.85714 4.42634 4.14063 3.14286 5.71429 3.14286C7.28795 3.14286 8.57143 4.42634 8.57143 6ZM11.4286 6C11.4286 2.84152 8.87277 0.285713 5.71429 0.285713C2.5558 0.285713 0 2.84152 0 6C0 6.6808 0.078125 7.38393 0.368304 7.99777L4.44196 16.6362C4.66518 17.1272 5.17857 17.4286 5.71429 17.4286C6.25 17.4286 6.76339 17.1272 6.99777 16.6362L11.0603 7.99777C11.3504 7.38393 11.4286 6.6808 11.4286 6Z" fill="#DFEEB6"/>
</svg>
