<svg width="16" height="16" viewBox="0 0 16 16" fill="none" xmlns="http://www.w3.org/2000/svg">
<path d="M15.7143 12.6964C15.7143 12.6183 15.7143 12.5402 15.6808 12.4621C15.6027 12.2277 15.0558 11.9821 14.8326 11.8705C14.1964 11.5134 13.5491 11.1674 12.9241 10.7991C12.6339 10.6205 12.2768 10.2857 11.9308 10.2857C11.25 10.2857 10.2567 12.3058 9.65402 12.3058C9.35268 12.3058 8.96205 12.0268 8.6942 11.8705C6.66295 10.7433 5.2567 9.33705 4.12946 7.3058C3.97321 7.03795 3.6942 6.64732 3.6942 6.34598C3.6942 5.7433 5.71429 4.75 5.71429 4.0692C5.71429 3.72321 5.37946 3.36607 5.20089 3.07589C4.83259 2.45089 4.48661 1.80357 4.12946 1.16741C4.01786 0.944196 3.77232 0.397321 3.53795 0.319196C3.45982 0.285713 3.3817 0.285713 3.30357 0.285713C2.90179 0.285713 2.12054 0.464285 1.75223 0.631696C1.20536 0.866071 0.848214 1.49107 0.569196 1.9933C0.212054 2.65179 0 3.32143 0 4.0692C0 5.10714 0.424107 6.04464 0.770089 6.9933C1.01563 7.67411 1.31696 8.33259 1.69643 8.94643C2.8683 10.8438 5.15625 13.1317 7.05357 14.3036C7.66741 14.683 8.32589 14.9844 9.0067 15.2299C9.95536 15.5759 10.8929 16 11.9308 16C12.6786 16 13.3482 15.7879 14.0067 15.4308C14.5089 15.1518 15.1339 14.7946 15.3683 14.2478C15.5357 13.8795 15.7143 13.0982 15.7143 12.6964Z" fill="#DFEEB6"/>
</svg>
