<svg width="20" height="19" viewBox="0 0 20 19" fill="none" xmlns="http://www.w3.org/2000/svg">
<path d="M20 7C20 6.81027 19.9219 6.6317 19.7879 6.49777L14.0737 0.783481C13.9397 0.649553 13.7612 0.571428 13.5714 0.571428C13.1808 0.571428 12.8571 0.895088 12.8571 1.28571V4.14286H10.3571C6.69643 4.14286 2.14286 4.79018 0.591518 8.64062C0.122768 9.82366 0 11.1071 0 12.3571C0 13.9196 0.78125 15.9621 1.41741 17.3906C1.54018 17.6473 1.66295 18.0045 1.83036 18.2388C1.90848 18.3504 1.98661 18.4286 2.14286 18.4286C2.36607 18.4286 2.5 18.25 2.5 18.0379C2.5 17.8594 2.45536 17.6585 2.4442 17.4799C2.41071 17.0223 2.38839 16.5647 2.38839 16.1071C2.38839 10.7835 5.54688 9.85714 10.3571 9.85714H12.8571V12.7143C12.8571 13.1049 13.1808 13.4286 13.5714 13.4286C13.7612 13.4286 13.9397 13.3504 14.0737 13.2165L19.7879 7.50223C19.9219 7.3683 20 7.18973 20 7Z" fill="#DFEEB6"/>
</svg>
