<svg width="129" height="129" viewBox="0 0 129 129" fill="none" xmlns="http://www.w3.org/2000/svg">
<path d="M32.6911 78.905C30.5302 78.905 28.4832 79.159 26.8398 79.3636C25.7536 79.4994 24.8165 79.6156 24.1848 79.6156C23.5531 79.6156 22.6143 79.4994 21.5298 79.3636C19.8842 79.159 17.8395 78.905 15.6783 78.905C5.27474 78.905 0 85.2463 0 97.7541C0 111.09 10.8483 121.939 24.1846 121.939C37.5208 121.939 48.3691 111.09 48.3694 97.7541C48.3694 85.2463 43.0949 78.905 32.6911 78.905ZM24.1846 119.923C11.9603 119.923 2.01525 109.978 2.01525 97.7541C2.01525 82.6662 9.81322 80.9205 15.6781 80.9205C17.7132 80.9205 19.6912 81.1667 21.2796 81.3635C22.4329 81.5071 23.4269 81.6311 24.1846 81.6311C24.9422 81.6311 25.9363 81.5069 27.0875 81.3635C28.6777 81.1667 30.6557 80.9205 32.6908 80.9205C38.5559 80.9205 46.3539 82.6662 46.3539 97.7541C46.3539 109.978 36.4089 119.923 24.1846 119.923Z" fill="white"/>
<path d="M24.1848 115.539C14.2179 115.539 6.10926 107.43 6.10926 97.4632C6.10926 96.9061 5.65848 96.4553 5.10138 96.4553C4.54452 96.4553 4.09375 96.9061 4.09375 97.4632C4.09375 108.542 13.1057 117.554 24.1846 117.554C24.7414 117.554 25.1922 117.103 25.1924 116.546C25.1924 115.989 24.7417 115.539 24.1848 115.539Z" fill="white"/>
<path d="M93.153 78.905C90.9936 78.905 88.9469 79.159 87.3015 79.3636C86.217 79.4994 85.2782 79.6156 84.6465 79.6156C84.0148 79.6156 83.076 79.4994 81.9915 79.3636C80.3459 79.159 78.3011 78.905 76.14 78.905C65.7364 78.905 60.4617 85.2463 60.4617 97.7541C60.4617 111.09 71.31 121.939 84.6462 121.939C97.9825 121.939 108.831 111.09 108.831 97.7541C108.831 85.2463 103.557 78.905 93.153 78.905ZM84.6462 119.923C72.4219 119.923 62.4769 109.978 62.4769 97.7541C62.4769 82.6662 70.2749 80.9205 76.1397 80.9205C78.1749 80.9205 80.1529 81.1667 81.7413 81.3635C82.8945 81.5071 83.8886 81.6311 84.6462 81.6311C85.4039 81.6311 86.3979 81.5069 87.5512 81.3635C89.1394 81.1667 91.1173 80.9205 93.1525 80.9205C99.0176 80.9205 106.815 82.6662 106.815 97.7541C106.815 109.978 96.8706 119.923 84.6462 119.923Z" fill="white"/>
<path d="M84.6462 115.539C74.6796 115.539 66.5707 107.43 66.5707 97.4632C66.5707 96.9061 66.1202 96.4553 65.563 96.4553C65.0062 96.4553 64.5554 96.9061 64.5554 97.4632C64.5554 108.542 73.5674 117.554 84.6462 117.554C85.2031 117.554 85.6539 117.103 85.6539 116.546C85.6539 115.989 85.2031 115.539 84.6462 115.539Z" fill="white"/>
<path d="M76.071 7.78186C75.9138 7.2497 75.3584 6.94457 74.8172 7.10306C74.3017 7.25651 23.177 23.052 23.177 76.5926C23.177 77.1494 23.6275 77.6002 24.1846 77.6002C24.7415 77.6002 25.1923 77.1494 25.1925 76.5926C25.1925 24.5792 74.8903 9.18433 75.3922 9.03567C75.9256 8.87617 76.2285 8.31528 76.071 7.78186Z" fill="white"/>
<path d="M82.9948 62.1733C79.4679 51.7823 70.8433 37.4158 49.7881 27.9775C49.2804 27.7512 48.686 27.9754 48.4577 28.4844C48.2295 28.9919 48.4577 29.5886 48.9655 29.8158C69.3574 38.9578 77.6888 52.8098 81.0858 62.8206C84.4257 72.6525 83.6521 80.4386 83.6443 80.5172C83.5854 81.0703 83.987 81.5662 84.5398 81.6251C84.5754 81.6289 84.6127 81.6309 84.6482 81.6309C85.1559 81.6309 85.5928 81.2474 85.6478 80.7319C85.6833 80.3973 86.4863 72.4499 82.9948 62.1733Z" fill="white"/>
<path d="M75.6322 57.8969C71.8945 57.6923 69.0051 57.334 67.2734 56.8598C57.4188 54.1576 51.1188 44.5097 52.6185 34.4178C52.7012 33.8668 52.3212 33.354 51.7702 33.2724C51.2347 33.1975 50.7071 33.5707 50.6265 34.1207C48.9753 45.221 55.903 55.8325 66.7417 58.8042C68.6353 59.322 71.5896 59.6939 75.5218 59.9083C75.5415 59.9104 75.5594 59.9104 75.577 59.9104C76.1082 59.9104 76.5532 59.4954 76.5826 58.9577C76.6141 58.4016 76.187 57.9263 75.6322 57.8969Z" fill="white"/>
<path d="M78.5036 15.9203C69.0444 13.3293 58.8454 17.3404 53.7007 25.6786C53.4094 26.1528 53.5571 26.7739 54.0295 27.0662C54.5037 27.3554 55.1238 27.2118 55.4171 26.7373C60.0954 19.152 69.3614 15.505 77.9722 17.865C90.2593 21.2343 127.44 48.3329 127.007 52.1354C126.143 54.3212 106.863 57.9337 85.6459 58.0902C85.0891 58.094 84.6421 58.5485 84.6461 59.1056C84.6502 59.6597 85.1007 60.1055 85.6538 60.1055C85.6558 60.1055 85.6578 60.1055 85.6616 60.1052C99.6217 60.0019 127.581 57.649 128.949 52.6736C130.648 46.4641 89.169 18.8449 78.5036 15.9203Z" fill="white"/>
<path d="M108.288 45.6914C107.788 45.4326 95.7764 39.302 71.7115 35.2908C71.1723 35.1974 70.6447 35.5703 70.5524 36.1193C70.46 36.6676 70.8316 37.1872 71.3809 37.2786C95.0931 41.2308 107.241 47.4187 107.361 47.4806C107.508 47.5572 107.666 47.5938 107.821 47.5938C108.187 47.5938 108.537 47.395 108.719 47.0495C108.975 46.5554 108.782 45.9474 108.288 45.6914Z" fill="white"/>
</svg>
