<svg width="119" height="119" viewBox="0 0 119 119" fill="none" xmlns="http://www.w3.org/2000/svg">
<g clip-path="url(#clip0)">
<path d="M58.571 42.7729C41.1902 42.7729 27.8943 45.579 27.8943 80.8866C27.8943 119 42.1106 119 58.571 119H60.0688C60.0835 119 60.0963 119 60.1107 119C67.5421 119 75.2238 118.991 80.7252 113.896C86.5406 108.513 89.2477 98.0243 89.2477 80.8866C89.2477 45.579 75.9518 42.7729 58.571 42.7729ZM79.463 112.531C74.4937 117.132 67.1841 117.141 60.1104 117.141C60.0977 117.141 60.0814 117.141 60.0686 117.141H58.5707C42.4698 117.141 29.7531 117.141 29.7531 80.8866C29.7531 44.6322 44.4034 44.6322 58.5707 44.6322C72.7378 44.6322 87.3881 44.6322 87.3884 80.8866C87.3884 97.4704 84.8703 107.525 79.463 112.531Z" fill="white"/>
<path d="M51.3408 46.5892C50.9778 46.2261 50.3894 46.2261 50.0264 46.5892L32.5821 64.0321C32.219 64.3951 32.219 64.9835 32.5821 65.3465C32.7637 65.5281 33.0014 65.6189 33.2392 65.6189C33.4772 65.6189 33.715 65.5283 33.8963 65.3465L51.3408 47.9037C51.7039 47.5406 51.7039 46.9523 51.3408 46.5892Z" fill="white"/>
<path d="M67.1185 46.5876C66.7555 46.2245 66.1671 46.2245 65.8041 46.5876L31.8846 80.5052C31.5215 80.8683 31.5215 81.4566 31.8846 81.8197C32.0661 82.0012 32.3042 82.0921 32.542 82.0921C32.7797 82.0921 33.0175 82.0014 33.1993 81.8197L67.1185 47.9021C67.4816 47.539 67.4816 46.9507 67.1185 46.5876Z" fill="white"/>
<path d="M76.8902 52.5936C76.5272 52.2305 75.9389 52.2305 75.5758 52.5936L33.39 94.7796C33.0269 95.1425 33.0269 95.7308 33.39 96.0938C33.5718 96.2754 33.8095 96.3663 34.0473 96.3663C34.2851 96.3663 34.5229 96.2756 34.7044 96.0938L76.8902 53.9081C77.2533 53.545 77.2533 52.9567 76.8902 52.5936Z" fill="white"/>
<path d="M82.8925 62.3636C82.5294 62.0005 81.9411 62.0005 81.5781 62.3636L37.9579 105.985C37.5948 106.349 37.5948 106.937 37.9579 107.3C38.1394 107.481 38.3774 107.572 38.6152 107.572C38.853 107.572 39.091 107.482 39.2723 107.3L82.8925 63.6778C83.2556 63.315 83.2556 62.7267 82.8925 62.3636Z" fill="white"/>
<path d="M85.0027 76.0332C84.6396 75.6701 84.051 75.6701 83.688 76.0332L47.1849 112.533C46.8218 112.896 46.8218 113.484 47.1849 113.847C47.3664 114.029 47.6042 114.119 47.842 114.119C48.0798 114.119 48.3178 114.029 48.4994 113.847L85.0024 77.3479C85.3657 76.9848 85.3657 76.3962 85.0027 76.0332Z" fill="white"/>
<path d="M85.0384 91.7693C84.6756 91.4062 84.087 91.4062 83.7239 91.7693L61.7987 113.695C61.4356 114.058 61.4356 114.646 61.7987 115.009C61.9802 115.191 62.2182 115.281 62.456 115.281C62.6936 115.281 62.9316 115.191 63.1131 115.009L85.0384 93.0837C85.4015 92.7206 85.4015 92.1323 85.0384 91.7693Z" fill="white"/>
<path d="M84.5522 64.0212L67.2711 46.7401C66.908 46.377 66.3197 46.377 65.9566 46.7401C65.5936 47.1032 65.5936 47.6915 65.9566 48.0545L83.2377 65.3356C83.4192 65.5172 83.657 65.608 83.8948 65.608C84.1328 65.608 84.3706 65.5174 84.5522 65.3356C84.9152 64.9728 84.9152 64.3842 84.5522 64.0212Z" fill="white"/>
<path d="M85.1186 80.3672L51.3409 46.5893C50.9778 46.2262 50.3895 46.2262 50.0265 46.5893C49.6634 46.9524 49.6634 47.5407 50.0265 47.9038L83.8041 81.6817C83.9857 81.8632 84.2237 81.9541 84.4615 81.9541C84.6993 81.9541 84.9373 81.8632 85.1186 81.6817C85.4817 81.3186 85.4817 80.7303 85.1186 80.3672Z" fill="white"/>
<path d="M82.8926 93.9173L41.4967 52.5211C41.1336 52.158 40.5453 52.158 40.1822 52.5211C39.8191 52.8842 39.8191 53.4725 40.1822 53.8355L81.5784 95.2317C81.7599 95.4133 81.998 95.5041 82.2357 95.5041C82.4735 95.5041 82.7111 95.4133 82.8926 95.2317C83.2557 94.8689 83.2557 94.2803 82.8926 93.9173Z" fill="white"/>
<path d="M79.3158 106.116L35.5648 62.3639C35.2017 62.0008 34.6134 62.0008 34.2503 62.3639C33.8873 62.7267 33.8873 63.315 34.2503 63.6781L78.0014 107.431C78.1829 107.612 78.4209 107.703 78.6585 107.703C78.8963 107.703 79.1343 107.612 79.3158 107.431C79.6791 107.068 79.6791 106.479 79.3158 106.116Z" fill="white"/>
<path d="M70.0129 112.587L33.4569 76.0332C33.0938 75.6701 32.5055 75.6701 32.1424 76.0332C31.7793 76.3962 31.7793 76.9848 32.1424 77.3479L68.698 113.902C68.8795 114.083 69.1176 114.174 69.3553 114.174C69.5934 114.174 69.8312 114.083 70.0129 113.902C70.376 113.539 70.376 112.95 70.0129 112.587Z" fill="white"/>
<path d="M55.3422 113.695L33.4278 91.7784C33.0648 91.4153 32.4764 91.4153 32.1134 91.7784C31.7503 92.1415 31.7503 92.7298 32.1134 93.0929L54.0277 115.009C54.2093 115.191 54.4473 115.282 54.6851 115.282C54.9231 115.282 55.1609 115.191 55.3422 115.009C55.7055 114.646 55.7055 114.058 55.3422 113.695Z" fill="white"/>
<path d="M91.1067 27.8998C74.227 27.8998 69.955 39.1883 69.7806 39.6685C69.6079 40.1504 69.8569 40.6806 70.3378 40.8568C70.4431 40.8949 70.5503 40.913 70.6555 40.913C71.0351 40.913 71.3908 40.6787 71.5288 40.3033C71.6869 39.8721 75.5852 29.7591 91.1067 29.7591C91.6206 29.7591 92.0364 29.3432 92.0364 28.8295C92.0364 28.3156 91.6206 27.8998 91.1067 27.8998Z" fill="white"/>
<path d="M91.9872 28.5338C91.8255 28.047 91.299 27.7867 90.8125 27.9473C90.3348 28.1063 79.1035 31.9753 77.1754 43.5499C77.0901 44.0567 77.4331 44.535 77.9396 44.6194C77.9905 44.6285 78.0431 44.6322 78.094 44.6322C78.5386 44.6322 78.9329 44.3098 79.0091 43.8549C80.7506 33.4034 91.2955 29.7457 91.4008 29.7104C91.8873 29.5467 92.1506 29.0203 91.9872 28.5338Z" fill="white"/>
<path d="M59.9308 28.0057C59.6674 27.867 59.3513 27.866 59.0845 27.9976C58.7595 28.1601 51.134 32.0637 51.134 39.9844C51.134 40.4981 51.5496 40.9139 52.0636 40.9139C52.5773 40.9139 52.9931 40.4981 52.9931 39.9844C52.9931 34.2168 57.9862 30.799 59.4931 29.8994C61 30.8264 66.0075 34.3305 66.0075 39.9844C66.0075 40.4981 66.4231 40.9139 66.937 40.9139C67.451 40.9139 67.8666 40.4978 67.8668 39.9844C67.8668 32.2499 60.2555 28.1754 59.9308 28.0057Z" fill="white"/>
<path d="M60.0686 16.9385C59.7365 16.6816 59.2769 16.6789 58.9429 16.9304C58.6235 17.1691 51.134 22.8764 51.134 30.6881C51.134 31.202 51.5496 31.6179 52.0636 31.6179C52.5773 31.6179 52.9931 31.202 52.9931 30.6881C52.9931 24.9807 57.8153 20.3282 59.4931 18.8831C61.1669 20.36 66.0075 25.1116 66.0075 30.6881C66.0075 31.202 66.4231 31.6179 66.937 31.6179C67.451 31.6179 67.8666 31.202 67.8666 30.6881C67.8666 23.0589 60.3861 17.1847 60.0686 16.9385Z" fill="white"/>
<path d="M60.2536 0.396546C60.0777 0.15411 59.8271 -0.0518333 59.5003 0.0116232C59.2044 0.0116232 58.9266 0.15225 58.7523 0.390038C58.4401 0.812151 51.134 10.829 51.134 19.533C51.134 20.0469 51.5496 20.4627 52.0636 20.4627C52.5773 20.4627 52.9931 20.0469 52.9931 19.533C52.9931 13.0286 57.6357 5.38497 59.4931 2.588C61.3484 5.41844 66.0075 13.1664 66.0075 19.533C66.0075 20.0469 66.4231 20.4627 66.937 20.4627C67.451 20.4627 67.8666 20.0469 67.8666 19.5332C67.8666 11.0307 60.5642 0.826795 60.2536 0.396546Z" fill="white"/>
<path d="M90.1695 17.5587C90.1058 17.0475 89.623 16.6954 89.1309 16.7516C73.8526 18.6616 69.9329 29.9157 69.773 30.3941C69.6112 30.8817 69.8746 31.4082 70.3611 31.5698C70.4592 31.6025 70.5573 31.6179 70.6554 31.6179C71.044 31.6179 71.4071 31.372 71.5377 30.9824C71.5721 30.8762 75.2342 20.3628 89.3634 18.5963C89.872 18.5326 90.233 18.0677 90.1695 17.5587Z" fill="white"/>
<path d="M90.1367 17.411C89.9915 16.9205 89.4834 16.6356 88.9857 16.7818C88.7096 16.8634 82.1645 18.8579 79.0869 26.6278C78.898 27.1052 79.1323 27.6454 79.6081 27.8341C79.7208 27.8785 79.837 27.8994 79.9514 27.8994C80.3217 27.8994 80.6703 27.677 80.8156 27.3125C83.5461 20.4176 89.4506 18.583 89.5105 18.5658C90.0024 18.4186 90.282 17.9021 90.1367 17.411Z" fill="white"/>
<path d="M86.1025 8.08293C85.9753 7.70707 85.625 7.45208 85.2273 7.44836C85.2164 7.46301 73.6617 7.47835 69.773 19.2417C69.6114 19.7292 69.8764 20.255 70.3629 20.4156C70.461 20.4483 70.5591 20.4628 70.6553 20.4628C71.0458 20.4628 71.4087 20.2159 71.5377 19.8245C73.8144 12.9377 78.8547 10.5594 82.1428 9.73861C77.1897 14.2959 77.1481 17.338 77.1625 17.713C77.1844 18.2185 77.6871 18.5997 78.1102 18.5925C78.6148 18.5825 79.0197 18.1604 79.0216 17.6549C79.0216 17.6212 79.1071 14.2296 85.7849 9.1159C86.1006 8.87462 86.2277 8.45972 86.1025 8.08293Z" fill="white"/>
<path d="M49.2185 39.6682C49.0461 39.1879 44.7756 27.8994 27.8941 27.8994C27.3802 27.8994 26.9644 28.3153 26.9644 28.8292C26.9644 29.3429 27.3804 29.7587 27.8941 29.7587C43.4177 29.7587 47.3139 39.8718 47.472 40.302C47.6098 40.6786 47.9657 40.9129 48.3452 40.9129C48.4505 40.9129 48.5577 40.8947 48.663 40.8564C49.1441 40.6811 49.3929 40.1502 49.2185 39.6682Z" fill="white"/>
<path d="M41.8253 43.5502C39.8953 31.9756 28.664 28.1063 28.1882 27.9476C27.6942 27.786 27.1749 28.0482 27.0115 28.535C26.8498 29.0226 27.1131 29.5491 27.5998 29.7106C27.7051 29.746 38.2447 33.3737 39.9915 43.8552C40.0659 44.3098 40.4599 44.6322 40.9067 44.6322C40.9576 44.6322 41.0082 44.6285 41.061 44.6197C41.5675 44.5351 41.9085 44.0567 41.8253 43.5502Z" fill="white"/>
<path d="M49.2256 30.394C49.0678 29.9156 45.1479 18.6615 29.8676 16.7516C29.3591 16.6916 28.8944 17.0493 28.831 17.5586C28.7675 18.0679 29.1287 18.5328 29.6371 18.5962C43.7135 20.3556 47.3175 30.5511 47.4628 30.9842C47.5953 31.3719 47.9565 31.6169 48.3451 31.6169C48.4432 31.6169 48.5429 31.6015 48.641 31.5688C49.1257 31.4054 49.389 30.8805 49.2256 30.394Z" fill="white"/>
<path d="M39.9136 26.6273C36.8361 18.8574 30.2908 16.8629 30.0149 16.7813C29.5228 16.6369 29.0073 16.9193 28.862 17.4105C28.7167 17.9016 28.998 18.4181 29.49 18.5653C29.5482 18.5825 35.4543 20.4171 38.185 27.312C38.3284 27.677 38.6789 27.8994 39.0492 27.8994C39.1636 27.8994 39.2779 27.8785 39.3907 27.8336C39.8683 27.6449 40.1022 27.1047 39.9136 26.6273Z" fill="white"/>
<path d="M49.2275 19.2417C45.3385 7.47833 33.9547 7.44021 33.775 7.44834C33.3791 7.45206 33.027 7.70705 32.9017 8.08291C32.7764 8.45946 32.9036 8.87437 33.2176 9.11588C39.8266 14.1787 39.9772 17.554 39.9791 17.653C39.9681 18.1576 40.3621 18.5816 40.8686 18.6025C41.377 18.6406 41.8144 18.2257 41.8363 17.713C41.8528 17.3387 41.8109 14.3121 36.8997 9.77671C40.1932 10.63 45.2188 13.0386 47.463 19.8245C47.5918 20.2159 47.9548 20.4627 48.3453 20.4627C48.4416 20.4627 48.5397 20.4481 48.6357 20.4156C49.124 20.2547 49.389 19.7292 49.2275 19.2417Z" fill="white"/>
</g>
<defs>
<clipPath id="clip0">
<rect width="119" height="119" fill="white"/>
</clipPath>
</defs>
</svg>
