<svg width="120" height="120" viewBox="0 0 120 120" fill="none" xmlns="http://www.w3.org/2000/svg">
<g clip-path="url(#clip0)">
<path d="M119.887 29.6126C119.368 28.6626 116.671 23.899 114.417 23.3844C113.864 23.259 113.333 23.3577 112.89 23.6746C110.929 25.0847 109.029 27.5069 108.948 27.6096C108.629 28.0177 108.703 28.6065 109.111 28.9251C109.517 29.2411 110.107 29.1724 110.427 28.7631C110.444 28.7401 112.238 26.4522 113.956 25.2063C113.961 25.2063 113.967 25.2063 113.97 25.2063C114.642 25.2063 116.53 27.5043 117.999 30.0796C116.31 33.391 108.68 48.8679 111.02 53.7761C114.728 61.5564 111.282 68.6278 107.736 73.1909C96.9779 87.037 69.0345 98.7522 42.6437 93.5355C28.3377 90.7066 9.7489 81.7068 2.04925 54.9634L8.11548 51.8991C16.1939 63.8466 30.0862 70.7917 47.3437 71.4785C68.3275 72.3079 90.1756 63.4823 100.538 49.9499L112.256 32.458C112.545 32.0276 112.43 31.4453 112 31.157C111.568 30.8696 110.985 30.983 110.7 31.4144L99.0157 48.8578C89.0347 61.8874 67.8294 70.4147 47.4187 69.6053C30.4523 68.93 16.8878 62.0285 9.22498 50.1771C8.96501 49.7734 8.44484 49.6314 8.01468 49.8494L0.514754 53.6378C0.115777 53.8394 -0.0858214 54.2944 0.0351376 54.7245C7.85575 82.9649 27.325 92.4185 42.281 95.374C46.7598 96.2601 51.2826 96.6682 55.7649 96.6682C78.3929 96.6682 99.9517 86.2644 109.217 74.3405C114.765 67.1995 115.973 59.8102 112.712 52.9685C111.149 49.6909 116.288 37.4431 119.894 30.4934C120.038 30.216 120.035 29.8864 119.887 29.6126Z" fill="white"/>
<path d="M116.86 34.8861C113.474 32.8152 110.048 29.7078 110.548 28.5599C110.753 28.0856 110.535 27.5327 110.061 27.3266C109.59 27.1177 109.034 27.3367 108.827 27.8128C107.439 31.0069 113.875 35.2588 115.882 36.4864C116.034 36.5797 116.202 36.6238 116.371 36.6238C116.685 36.6238 116.993 36.4644 117.171 36.1751C117.44 35.7337 117.301 35.1571 116.86 34.8861Z" fill="white"/>
<path d="M102.576 53.5832C102.105 53.368 101.55 53.5776 101.334 54.0483C97.0824 63.4022 78.4406 75.0384 57.4678 77.4555C37.9763 79.7021 21.3908 73.3192 10.7432 59.4891C10.4265 59.0772 9.83691 59.0012 9.42856 59.3189C9.01857 59.6346 8.94168 60.2235 9.2565 60.6337C18.8748 73.1251 33.1241 79.7734 49.9294 79.7734C52.4581 79.7734 55.0453 79.6212 57.6821 79.3177C75.1227 77.3092 97.5109 66.9874 103.041 54.8246C103.255 54.3532 103.046 53.7974 102.576 53.5832Z" fill="white"/>
<path d="M97.304 47.614C96.9855 47.2019 96.3959 47.1285 95.9894 47.4454C95.7206 47.6534 95.4458 47.8557 95.173 48.0551C81.6471 57.888 59.1691 61.1354 40.4997 55.9442C25.7762 51.8508 14.889 43.0215 9.84435 31.0822C9.65752 30.642 9.16501 30.4076 8.70907 30.5503L0.667168 32.9819C0.238655 33.1108 -0.0379569 33.5239 0.00423815 33.9688C0.52605 39.3667 1.59358 44.4597 3.18293 49.1051C3.34936 49.5957 3.88243 49.8548 4.37306 49.689C4.86205 49.5214 5.1239 48.9888 4.95535 48.4989C3.49048 44.2098 2.47991 39.5221 1.94872 34.5527L8.45261 32.5862C13.8615 44.6692 25.0308 53.5893 39.9978 57.7504C46.2525 59.4898 52.8317 60.3313 59.3501 60.3313C73.1324 60.3313 86.6493 56.5685 96.2787 49.5692C96.5661 49.3571 96.8554 49.1457 97.1355 48.9286C97.5457 48.6119 97.621 48.0233 97.304 47.614Z" fill="white"/>
<path d="M47.9758 65.9069C36.0412 63.8052 19.4501 57.3111 8.17816 38.303C7.91444 37.8555 7.33754 37.7115 6.89449 37.9743C6.44957 38.2387 6.30119 38.8138 6.56678 39.2587C18.1995 58.8794 35.3288 65.583 47.6499 67.7527C47.7048 67.7635 47.7599 67.7673 47.8147 67.7673C48.2594 67.7673 48.6551 67.4468 48.7358 66.9928C48.8255 66.4838 48.4847 65.9967 47.9758 65.9069Z" fill="white"/>
</g>
<defs>
<clipPath id="clip0">
<rect width="120" height="120" fill="white"/>
</clipPath>
</defs>
</svg>
