<svg width="135" height="135" viewBox="0 0 135 135" fill="none" xmlns="http://www.w3.org/2000/svg">
<g clip-path="url(#clip0)">
<path d="M47.3723 115.001C47.1395 114.469 46.5216 114.224 45.9828 114.459C38.6865 117.652 28.4322 116.097 19.8608 110.492C8.57961 103.117 2.10924 90.2032 2.10924 75.0646C2.10924 58.1142 7.00283 46.3222 16.2591 40.9637C25.7349 35.4812 38.2584 37.6933 45.881 42.0708C46.3868 42.3569 47.0316 42.186 47.3209 41.6813C47.6115 41.1757 47.4364 40.532 46.9317 40.2414C38.5272 35.414 25.458 33.2013 15.2024 39.1382C8.26763 43.1531 0 52.6452 0 75.0646C0 90.9281 6.81822 104.485 18.7062 112.257C24.6594 116.15 31.4096 118.195 37.5844 118.195C40.9041 118.195 44.0569 117.604 46.8296 116.391C47.3631 116.156 47.6063 115.534 47.3723 115.001Z" fill="white"/>
<path d="M65.203 113.742C64.8704 113.264 64.2143 113.145 63.7353 113.476C59.6042 116.333 51.1129 116.329 46.8367 114.416C46.3021 114.177 45.68 114.42 45.4432 114.949C45.2053 115.48 45.4442 116.105 45.9756 116.342C48.2025 117.337 51.2709 117.885 54.4152 117.885C58.2869 117.885 62.273 117.054 64.9363 115.211C65.4152 114.879 65.5345 114.222 65.203 113.742Z" fill="white"/>
<path d="M77.6098 39.0926C67.3567 33.156 54.2862 35.3694 45.8806 40.1957C45.3761 40.4864 45.201 41.1301 45.4914 41.6357C45.7809 42.1415 46.4257 42.3147 46.9313 42.0252C54.5552 37.6458 67.0763 35.4295 76.5534 40.9181C85.8084 46.2769 90.703 58.0691 90.703 75.0192C90.703 77.965 90.4683 80.8448 90.0026 83.5804C89.9037 84.155 90.2911 84.6991 90.8636 84.7958C90.9235 84.8061 90.9831 84.8122 91.0408 84.8122C91.5477 84.8122 91.9924 84.4477 92.0788 83.9345C92.5649 81.0814 92.8123 78.0821 92.8123 75.0189C92.8123 52.5996 84.5436 43.1075 77.6098 39.0926Z" fill="white"/>
<path d="M46.4064 114.679C45.8233 114.679 45.3518 115.151 45.3518 115.734V117.071C45.3518 117.654 45.8233 118.126 46.4064 118.126C46.9893 118.126 47.461 117.654 47.461 117.071V115.734C47.461 115.151 46.9893 114.679 46.4064 114.679Z" fill="white"/>
<path d="M43.2629 115.738C42.68 115.738 42.2083 116.21 42.2083 116.793V117.104C42.2083 117.687 42.68 118.159 43.2629 118.159C43.846 118.159 44.3175 117.687 44.3178 117.104V116.793C44.3178 116.21 43.846 115.738 43.2629 115.738Z" fill="white"/>
<path d="M49.591 115.738C49.0079 115.738 48.5361 116.21 48.5361 116.793V117.104C48.5361 117.687 49.0079 118.159 49.591 118.159C50.1738 118.159 50.6456 117.687 50.6456 117.104V116.793C50.6456 116.21 50.1738 115.738 49.591 115.738Z" fill="white"/>
<path d="M35.3693 8.61492C34.8809 8.29054 34.2279 8.4224 33.9067 8.90738C33.5834 9.39236 33.7142 10.0467 34.1992 10.37C34.3205 10.4515 46.3435 18.6882 45.3527 37.1729C45.3218 37.7547 45.7675 38.2513 46.3495 38.2832C46.3691 38.2842 46.3878 38.2842 46.4073 38.2842C46.9632 38.2842 47.4289 37.8486 47.4601 37.2861C48.5136 17.6117 35.907 8.97331 35.3693 8.61492Z" fill="white"/>
<path d="M23.1556 45.4158C22.9507 44.8709 22.3452 44.5927 21.7972 44.8008C4.40616 51.3545 8.29524 78.5417 8.4693 79.6952C8.54868 80.2184 8.99859 80.5934 9.51152 80.5934C9.564 80.5934 9.61675 80.5895 9.67002 80.581C10.246 80.4945 10.6424 79.9568 10.5559 79.3801C10.5158 79.1142 6.72954 52.7324 22.5406 46.7742C23.0855 46.5693 23.3616 45.9604 23.1556 45.4158Z" fill="white"/>
<path d="M78.6235 13.6431C77.7379 11.8015 74.4438 10.8674 68.8326 10.8674C63.3377 10.8674 57.3721 11.8171 54.6489 13.1251C49.2593 15.7146 46.9789 22.2064 49.5652 27.5963C51.3606 31.3353 55.2014 33.7515 59.35 33.7515C60.9803 33.7515 62.5571 33.391 64.0371 32.6803C68.6061 30.4861 80.7678 18.11 78.6235 13.6431ZM63.1247 30.7786C61.9321 31.3514 60.6623 31.6417 59.35 31.6417C56.0076 31.6417 52.9123 29.6952 51.4664 26.6835C49.384 22.3411 51.2214 17.1121 55.5617 15.0263C57.9956 13.8585 63.7006 12.9769 68.8329 12.9769C74.4728 12.9769 76.461 14.011 76.7244 14.5566C77.8532 16.9122 68.3218 28.283 63.1247 30.7786Z" fill="white"/>
<path d="M68.7301 18.6152C68.5817 18.0516 68.001 17.7138 67.4416 17.8641C67.0326 17.9712 57.3817 20.5501 53.6256 24.5568C53.2271 24.9811 53.2487 25.6486 53.6741 26.0471C53.8769 26.2378 54.1364 26.3324 54.3949 26.3324C54.676 26.3324 54.9563 26.2201 55.1644 25.9991C58.5065 22.4354 67.8857 19.9285 67.9793 19.9037C68.5426 19.7552 68.8784 19.1785 68.7301 18.6152Z" fill="white"/>
<path d="M133.945 86.4846H60.1171C59.5343 86.4846 59.0625 86.9564 59.0625 87.5395C59.0625 88.1223 59.5343 88.5941 60.1171 88.5941H133.945C134.528 88.5941 135 88.1223 135 87.5395C135 86.9564 134.528 86.4846 133.945 86.4846Z" fill="white"/>
<path d="M133.945 87.5396C133.362 87.5396 132.891 88.0111 132.891 88.5942C132.891 108.368 116.804 124.454 97.0311 124.454C77.2579 124.454 61.1718 108.368 61.1718 88.5942C61.1718 88.0111 60.7 87.5396 60.1169 87.5396C59.5341 87.5396 59.0623 88.0111 59.0623 88.5942C59.0623 109.531 76.0938 126.563 97.0311 126.563C117.968 126.563 135 109.531 135 88.5942C135 88.0111 134.528 87.5396 133.945 87.5396Z" fill="white"/>
<path d="M110.097 90.7865C109.564 90.5618 108.944 90.8171 108.719 91.3527C106.746 96.0844 102.158 99.1414 97.031 99.1414C91.9304 99.1414 87.3533 96.1073 85.3675 91.4105C85.1412 90.8748 84.523 90.6217 83.9874 90.85C83.4497 91.0766 83.2007 91.6947 83.427 92.2322C85.7425 97.7115 91.0818 101.251 97.031 101.251C103.013 101.251 108.365 97.6846 110.664 92.1644C110.89 91.627 110.635 91.0088 110.097 90.7865Z" fill="white"/>
<path d="M129.677 90.71C129.104 90.6338 128.581 91.0766 128.527 91.6576C126.962 107.949 113.42 120.235 97.0311 120.235C80.638 120.235 67.0991 107.949 65.5355 91.6555C65.4801 91.0763 64.9703 90.6296 64.3851 90.7079C63.8052 90.7636 63.3809 91.2783 63.4365 91.8572C65.1043 109.239 79.5464 122.344 97.0311 122.344C114.512 122.344 128.956 109.239 130.625 91.8593C130.682 91.2805 130.258 90.7657 129.677 90.71Z" fill="white"/>
<path d="M60.1171 86.4846C59.5343 86.4846 59.0625 86.9564 59.0625 87.5395V88.5941C59.0625 89.177 59.5343 89.6488 60.1171 89.6488C60.7002 89.6488 61.1717 89.177 61.172 88.5941V87.5395C61.172 86.9564 60.7002 86.4846 60.1171 86.4846Z" fill="white"/>
<path d="M133.945 86.4846C133.362 86.4846 132.891 86.9564 132.891 87.5395V88.5941C132.891 89.177 133.362 89.6488 133.945 89.6488C134.528 89.6488 135 89.177 135 88.5941V87.5395C135 86.9564 134.528 86.4846 133.945 86.4846Z" fill="white"/>
<path d="M93.929 92.813H93.9084C93.3277 92.813 92.8662 93.2848 92.8662 93.8676C92.8662 94.4507 93.3483 94.9222 93.929 94.9222C94.5142 94.9222 94.9836 94.4507 94.9836 93.8676C94.9836 93.2848 94.5142 92.813 93.929 92.813Z" fill="white"/>
<path d="M102.366 90.7037H102.346C101.765 90.7037 101.304 91.1753 101.304 91.7583C101.304 92.3412 101.786 92.813 102.366 92.813C102.952 92.813 103.421 92.3412 103.421 91.7583C103.421 91.1753 102.952 90.7037 102.366 90.7037Z" fill="white"/>
</g>
<defs>
<clipPath id="clip0">
<rect width="135" height="135" fill="white"/>
</clipPath>
</defs>
</svg>
