<svg width="20" height="34" viewBox="0 0 20 34" fill="none" xmlns="http://www.w3.org/2000/svg">
<path d="M19.9933 2.78571C19.9933 2.48438 19.8594 2.21652 19.6585 2.01562L17.9844 0.341515C17.7835 0.140625 17.4821 0.00669336 17.2143 0.00669336C16.9464 0.00669336 16.6451 0.140625 16.4442 0.341515L0.841518 15.9442C0.640625 16.1451 0.506696 16.4464 0.506696 16.7143C0.506696 16.9821 0.640625 17.2835 0.841518 17.4844L16.4442 33.0871C16.6451 33.2879 16.9464 33.4219 17.2143 33.4219C17.4821 33.4219 17.7835 33.2879 17.9844 33.0871L19.6585 31.4129C19.8594 31.2121 19.9933 30.9107 19.9933 30.6429C19.9933 30.375 19.8594 30.0737 19.6585 29.8728L6.5 16.7143L19.6585 3.5558C19.8594 3.35491 19.9933 3.05357 19.9933 2.78571Z" fill="white"/>
</svg>
