<svg width="157" height="15" viewBox="0 0 157 15" fill="none" xmlns="http://www.w3.org/2000/svg">
<path d="M7.038 0.877999C8.91 0.877999 10.422 1.502 11.574 2.75C12.738 3.986 13.32 5.606 13.32 7.61C13.32 9.614 12.738 11.234 11.574 12.47C10.422 13.694 8.904 14.306 7.02 14.306C5.124 14.306 3.594 13.694 2.43 12.47C1.266 11.234 0.684 9.614 0.684 7.61C0.684 5.582 1.26 3.956 2.412 2.732C3.576 1.496 5.118 0.877999 7.038 0.877999ZM7.002 3.182C5.946 3.182 5.1 3.578 4.464 4.37C3.84 5.162 3.528 6.224 3.528 7.556C3.528 8.936 3.84 10.016 4.464 10.796C5.088 11.576 5.946 11.972 7.038 11.984C8.106 11.984 8.946 11.588 9.558 10.796C10.17 10.004 10.476 8.924 10.476 7.556C10.476 6.212 10.164 5.15 9.54 4.37C8.916 3.578 8.07 3.182 7.002 3.182ZM23.7298 14H21.1378V8.582C21.1378 7.922 21.0298 7.424 20.8138 7.088C20.5978 6.74 20.1778 6.566 19.5538 6.566C18.2098 6.566 17.5378 7.382 17.5378 9.014V14H14.9998V4.712H17.4298V6.008C18.1978 4.976 19.2238 4.46 20.5078 4.46C21.5038 4.46 22.2898 4.748 22.8658 5.324C23.4418 5.9 23.7298 6.722 23.7298 7.79V14ZM28.2797 1.184V14H25.7237V1.184H28.2797ZM32.9203 1.184V3.344H30.3643V1.184H32.9203ZM32.9203 4.712V14H30.3643V4.712H32.9203ZM43.6809 14H41.0889V8.582C41.0889 7.922 40.9809 7.424 40.7649 7.088C40.5489 6.74 40.1289 6.566 39.5049 6.566C38.1609 6.566 37.4889 7.382 37.4889 9.014V14H34.9509V4.712H37.3809V6.008C38.1489 4.976 39.1749 4.46 40.4589 4.46C41.4549 4.46 42.2409 4.748 42.8169 5.324C43.3929 5.9 43.6809 6.722 43.6809 7.79V14ZM54.3329 11.12C54.0449 12.116 53.5109 12.89 52.7309 13.442C51.9629 13.994 51.0449 14.27 49.9769 14.27C48.5489 14.27 47.3969 13.826 46.5209 12.938C45.6569 12.05 45.2249 10.874 45.2249 9.41C45.2249 7.97 45.6629 6.782 46.5389 5.846C47.4149 4.91 48.5309 4.442 49.8869 4.442C51.2909 4.442 52.4069 4.922 53.2349 5.882C54.0629 6.83 54.4769 8.12 54.4769 9.752V10.004H47.8169C47.8289 10.808 48.0209 11.42 48.3929 11.84C48.7769 12.26 49.3109 12.47 49.9949 12.47C50.8949 12.47 51.5249 12.02 51.8849 11.12H54.3329ZM51.8849 8.384C51.8249 7.772 51.6269 7.274 51.2909 6.89C50.9549 6.494 50.4869 6.296 49.8869 6.296C49.3229 6.296 48.8549 6.482 48.4829 6.854C48.1109 7.226 47.8889 7.736 47.8169 8.384H51.8849Z" fill="#FF4A3E"/>
<path d="M67.6568 9.05C67.5128 10.658 66.9488 11.936 65.9648 12.884C64.9808 13.832 63.6308 14.306 61.9148 14.306C60.0548 14.306 58.5548 13.694 57.4148 12.47C56.2868 11.234 55.7228 9.602 55.7228 7.574C55.7228 5.654 56.2928 4.058 57.4328 2.786C58.5848 1.514 60.1148 0.877999 62.0228 0.877999C63.5468 0.877999 64.8248 1.31 65.8568 2.174C66.8888 3.038 67.4588 4.136 67.5668 5.468H64.8128C64.6688 4.76 64.3448 4.214 63.8408 3.83C63.3488 3.434 62.7248 3.236 61.9688 3.236C61.1888 3.236 60.5288 3.458 59.9888 3.902C59.4608 4.334 59.0888 4.868 58.8728 5.504C58.6568 6.14 58.5488 6.836 58.5488 7.592C58.5488 8.912 58.8548 9.968 59.4668 10.76C60.0788 11.54 60.9008 11.93 61.9328 11.93C63.6488 11.93 64.6268 10.97 64.8668 9.05H67.6568ZM77.9206 14H75.3286C75.2446 13.76 75.1846 13.46 75.1486 13.1C74.3686 13.88 73.3666 14.27 72.1426 14.27C71.1106 14.27 70.3006 14.024 69.7126 13.532C69.1246 13.028 68.8306 12.338 68.8306 11.462C68.8306 11.066 68.8786 10.718 68.9746 10.418C69.0826 10.118 69.2506 9.866 69.4786 9.662C69.7186 9.458 69.9406 9.29 70.1446 9.158C70.3606 9.026 70.6546 8.918 71.0266 8.834C71.3986 8.75 71.6986 8.69 71.9266 8.654C72.1546 8.606 72.4726 8.558 72.8806 8.51C73.7806 8.39 74.3806 8.264 74.6806 8.132C74.9926 8 75.1486 7.754 75.1486 7.394C75.1486 6.566 74.5906 6.152 73.4746 6.152C72.8866 6.152 72.4546 6.26 72.1786 6.476C71.9026 6.68 71.7226 7.046 71.6386 7.574H69.2446C69.3886 5.486 70.8226 4.442 73.5466 4.442C76.2466 4.442 77.5966 5.45 77.5966 7.466V11.48C77.5966 12.656 77.7046 13.496 77.9206 14ZM75.1306 9.482C74.8306 9.662 74.2306 9.824 73.3306 9.968C72.5746 10.088 72.0826 10.238 71.8546 10.418C71.5906 10.646 71.4586 10.958 71.4586 11.354C71.4586 11.738 71.5786 12.044 71.8186 12.272C72.0706 12.488 72.4186 12.596 72.8626 12.596C73.5466 12.596 74.0926 12.416 74.5006 12.056C74.9206 11.684 75.1306 11.174 75.1306 10.526V9.482ZM87.4645 7.412H85.0885C85.0165 6.944 84.8365 6.614 84.5485 6.422C84.2725 6.23 83.8645 6.134 83.3245 6.134C82.8685 6.134 82.5145 6.218 82.2625 6.386C82.0105 6.542 81.8845 6.764 81.8845 7.052C81.8845 7.388 82.0285 7.622 82.3165 7.754C82.6045 7.886 83.1205 8.03 83.8645 8.186C83.9965 8.21 84.0925 8.228 84.1525 8.24C84.5845 8.324 84.9265 8.402 85.1785 8.474C85.4425 8.534 85.7605 8.642 86.1325 8.798C86.5045 8.942 86.7925 9.11 86.9965 9.302C87.2005 9.482 87.3805 9.728 87.5365 10.04C87.6925 10.352 87.7705 10.712 87.7705 11.12C87.7705 12.092 87.3925 12.86 86.6365 13.424C85.8805 13.988 84.8425 14.27 83.5225 14.27C82.2625 14.27 81.2245 14 80.4085 13.46C79.5925 12.92 79.1785 12.092 79.1665 10.976H81.5965C81.6805 12.008 82.3405 12.524 83.5765 12.524C84.0925 12.524 84.5005 12.422 84.8005 12.218C85.1125 12.002 85.2685 11.72 85.2685 11.372C85.2685 11.024 85.1305 10.778 84.8545 10.634C84.5785 10.49 84.0685 10.334 83.3245 10.166C83.2645 10.154 83.2165 10.142 83.1805 10.13C83.0965 10.106 82.9105 10.064 82.6225 10.004C82.3345 9.944 82.1305 9.902 82.0105 9.878C81.9025 9.842 81.7165 9.788 81.4525 9.716C81.2005 9.644 81.0145 9.578 80.8945 9.518C80.7745 9.446 80.6125 9.362 80.4085 9.266C80.2165 9.158 80.0725 9.044 79.9765 8.924C79.8805 8.804 79.7725 8.666 79.6525 8.51C79.5445 8.342 79.4665 8.156 79.4185 7.952C79.3825 7.748 79.3645 7.526 79.3645 7.286C79.3645 6.374 79.7185 5.672 80.4265 5.18C81.1345 4.688 82.1365 4.442 83.4325 4.442C84.5965 4.442 85.5505 4.682 86.2945 5.162C87.0385 5.642 87.4285 6.392 87.4645 7.412ZM91.9125 1.184V3.344H89.3565V1.184H91.9125ZM91.9125 4.712V14H89.3565V4.712H91.9125ZM102.673 14H100.081V8.582C100.081 7.922 99.9731 7.424 99.7571 7.088C99.5411 6.74 99.1211 6.566 98.4971 6.566C97.1531 6.566 96.4811 7.382 96.4811 9.014V14H93.9431V4.712H96.3731V6.008C97.1411 4.976 98.1671 4.46 99.4511 4.46C100.447 4.46 101.233 4.748 101.809 5.324C102.385 5.9 102.673 6.722 102.673 7.79V14ZM109.167 4.442C110.595 4.442 111.741 4.892 112.605 5.792C113.481 6.692 113.919 7.88 113.919 9.356C113.919 10.844 113.481 12.038 112.605 12.938C111.741 13.838 110.583 14.288 109.131 14.288C107.679 14.288 106.515 13.838 105.639 12.938C104.763 12.038 104.325 10.844 104.325 9.356C104.325 7.88 104.769 6.692 105.657 5.792C106.545 4.892 107.715 4.442 109.167 4.442ZM109.095 6.386C108.411 6.386 107.871 6.65 107.475 7.178C107.079 7.706 106.881 8.432 106.881 9.356C106.881 10.304 107.079 11.042 107.475 11.57C107.871 12.098 108.423 12.362 109.131 12.362C109.839 12.362 110.385 12.098 110.769 11.57C111.165 11.03 111.363 10.286 111.363 9.338C111.363 8.414 111.159 7.694 110.751 7.178C110.355 6.65 109.803 6.386 109.095 6.386ZM118.551 11.192V14H115.707V11.192H118.551ZM129.465 10.418C129.309 11.618 128.835 12.554 128.043 13.226C127.263 13.898 126.255 14.234 125.019 14.234C123.591 14.234 122.445 13.796 121.581 12.92C120.717 12.044 120.285 10.88 120.285 9.428C120.285 7.928 120.717 6.722 121.581 5.81C122.457 4.898 123.615 4.442 125.055 4.442C126.291 4.442 127.299 4.76 128.079 5.396C128.859 6.02 129.303 6.872 129.411 7.952H126.909C126.717 6.884 126.105 6.35 125.073 6.35C124.377 6.35 123.831 6.62 123.435 7.16C123.051 7.688 122.859 8.426 122.859 9.374C122.859 10.298 123.045 11.018 123.417 11.534C123.801 12.038 124.335 12.29 125.019 12.29C126.135 12.29 126.795 11.666 126.999 10.418H129.465ZM135.517 4.442C136.945 4.442 138.091 4.892 138.955 5.792C139.831 6.692 140.269 7.88 140.269 9.356C140.269 10.844 139.831 12.038 138.955 12.938C138.091 13.838 136.933 14.288 135.481 14.288C134.029 14.288 132.865 13.838 131.989 12.938C131.113 12.038 130.675 10.844 130.675 9.356C130.675 7.88 131.119 6.692 132.007 5.792C132.895 4.892 134.065 4.442 135.517 4.442ZM135.445 6.386C134.761 6.386 134.221 6.65 133.825 7.178C133.429 7.706 133.231 8.432 133.231 9.356C133.231 10.304 133.429 11.042 133.825 11.57C134.221 12.098 134.773 12.362 135.481 12.362C136.189 12.362 136.735 12.098 137.119 11.57C137.515 11.03 137.713 10.286 137.713 9.338C137.713 8.414 137.509 7.694 137.101 7.178C136.705 6.65 136.153 6.386 135.445 6.386ZM156.259 14H153.667V8.456C153.667 7.844 153.571 7.376 153.379 7.052C153.187 6.716 152.791 6.548 152.191 6.548C151.003 6.548 150.409 7.292 150.409 8.78V14H147.853V8.348C147.853 7.772 147.757 7.328 147.565 7.016C147.373 6.692 147.001 6.53 146.449 6.53C145.213 6.53 144.595 7.34 144.595 8.96V14H142.039V4.712H144.469V5.99C145.201 4.97 146.185 4.46 147.421 4.46C148.705 4.46 149.581 4.97 150.049 5.99C150.793 4.97 151.807 4.46 153.091 4.46C154.111 4.46 154.891 4.76 155.431 5.36C155.983 5.948 156.259 6.746 156.259 7.754V14Z" fill="#111111"/>
</svg>
