<svg width="36" height="35" viewBox="0 0 36 35" fill="none" xmlns="http://www.w3.org/2000/svg">
<path d="M0 4.5C0 3.30653 0.474106 2.16193 1.31802 1.31802C2.16193 0.474106 3.30653 0 4.5 0L31.5 0C32.6935 0 33.8381 0.474106 34.682 1.31802C35.5259 2.16193 36 3.30653 36 4.5V22.5C36 23.6935 35.5259 24.8381 34.682 25.682C33.8381 26.5259 32.6935 27 31.5 27H25.875C25.5257 27 25.1812 27.0813 24.8688 27.2375C24.5563 27.3938 24.2846 27.6206 24.075 27.9L19.8 33.5993C19.5904 33.8787 19.3187 34.1055 19.0062 34.2617C18.6938 34.4179 18.3493 34.4993 18 34.4993C17.6507 34.4993 17.3062 34.4179 16.9938 34.2617C16.6813 34.1055 16.4096 33.8787 16.2 33.5993L11.925 27.9C11.7154 27.6206 11.4437 27.3938 11.1312 27.2375C10.8188 27.0813 10.4743 27 10.125 27H4.5C3.30653 27 2.16193 26.5259 1.31802 25.682C0.474106 24.8381 0 23.6935 0 22.5V4.5ZM16.1865 10.7235C16.0382 10.5021 15.867 10.297 15.6757 10.1115C15.375 9.80184 15.0165 9.55417 14.6205 9.3825L14.6025 9.3735C14.0696 9.12609 13.489 8.99859 12.9015 9C10.746 9 9 10.6785 9 12.7508C9 14.8208 10.746 16.4993 12.9015 16.4993C13.6733 16.4993 14.391 16.2855 14.9963 15.9143C14.688 16.7895 14.1187 17.7233 13.1737 18.6593C13.0847 18.7461 13.0145 18.8503 12.9672 18.9654C12.92 19.0805 12.8968 19.204 12.8992 19.3284C12.9015 19.4527 12.9292 19.5753 12.9807 19.6885C13.0322 19.8018 13.1063 19.9032 13.1985 19.9868C13.5878 20.3468 14.2043 20.3355 14.58 19.9643C17.5815 16.974 17.6625 13.7588 16.6973 11.6258C16.5555 11.3105 16.3845 11.0092 16.1865 10.7258V10.7235ZM24.75 15.9143C24.444 16.7895 23.8725 17.7233 22.9275 18.6593C22.8386 18.7463 22.7685 18.8506 22.7215 18.9657C22.6744 19.0809 22.6515 19.2045 22.654 19.3288C22.6565 19.4532 22.6845 19.5757 22.7362 19.6889C22.7879 19.802 22.8622 19.9034 22.9545 19.9868C23.3415 20.3468 23.958 20.3355 24.3337 19.9643C27.3352 16.974 27.4163 13.7588 26.4533 11.6258C26.3107 11.3104 26.1389 11.0091 25.9403 10.7258C25.7921 10.5036 25.6209 10.2977 25.4295 10.1115C25.1288 9.8018 24.7703 9.55412 24.3743 9.3825L24.3562 9.3735C23.8241 9.12641 23.2442 8.99892 22.6575 9C20.5042 9 18.756 10.6785 18.756 12.7508C18.756 14.8208 20.5042 16.4993 22.6575 16.4993C23.4292 16.4993 24.147 16.2855 24.7523 15.9143H24.75Z" fill="#FF4A3E"/>
</svg>
