<svg width="20" height="34" viewBox="0 0 20 34" fill="none" xmlns="http://www.w3.org/2000/svg">
<path d="M0.00669515 2.78571C0.00669515 2.48438 0.140623 2.21652 0.341517 2.01562L2.01562 0.341515C2.21652 0.140625 2.51786 0.00669336 2.78571 0.00669336C3.05357 0.00669336 3.35491 0.140625 3.5558 0.341515L19.1585 15.9442C19.3594 16.1451 19.4933 16.4464 19.4933 16.7143C19.4933 16.9821 19.3594 17.2835 19.1585 17.4844L3.5558 33.0871C3.35491 33.2879 3.05357 33.4219 2.78571 33.4219C2.51786 33.4219 2.21652 33.2879 2.01562 33.0871L0.341517 31.4129C0.140623 31.2121 0.00669515 30.9107 0.00669515 30.6429C0.00669515 30.375 0.140623 30.0737 0.341517 29.8728L13.5 16.7143L0.341517 3.5558C0.140623 3.35491 0.00669515 3.05357 0.00669515 2.78571Z" fill="white"/>
</svg>
