<svg width="15" height="14" viewBox="0 0 15 14" fill="#DFEEB6" xmlns="http://www.w3.org/2000/svg">
<path d="M5.06445 5.00195C5.72852 4.33789 6.5293 4.00586 7.4668 4.00586C8.4043 4.00586 9.19531 4.33789 9.83984 5.00195C10.5039 5.64648 10.8359 6.4375 10.8359 7.375C10.8359 8.3125 10.5039 9.11328 9.83984 9.77734C9.19531 10.4219 8.4043 10.7441 7.4668 10.7441C6.5293 10.7441 5.72852 10.4219 5.06445 9.77734C4.41992 9.11328 4.09766 8.3125 4.09766 7.375C4.09766 6.4375 4.41992 5.64648 5.06445 5.00195ZM5.91406 8.92773C6.34375 9.35742 6.86133 9.57227 7.4668 9.57227C8.07227 9.57227 8.58984 9.35742 9.01953 8.92773C9.44922 8.49805 9.66406 7.98047 9.66406 7.375C9.66406 6.76953 9.44922 6.25195 9.01953 5.82227C8.58984 5.39258 8.07227 5.17773 7.4668 5.17773C6.86133 5.17773 6.34375 5.39258 5.91406 5.82227C5.48438 6.25195 5.26953 6.76953 5.26953 7.375C5.26953 7.98047 5.48438 8.49805 5.91406 8.92773ZM11.5098 3.33203C11.666 3.46875 11.7441 3.64453 11.7441 3.85938C11.7441 4.07422 11.666 4.25977 11.5098 4.41602C11.373 4.57227 11.1973 4.65039 10.9824 4.65039C10.7676 4.65039 10.582 4.57227 10.4258 4.41602C10.2695 4.25977 10.1914 4.07422 10.1914 3.85938C10.1914 3.64453 10.2695 3.46875 10.4258 3.33203C10.582 3.17578 10.7676 3.09766 10.9824 3.09766C11.1973 3.09766 11.373 3.17578 11.5098 3.33203ZM14 4.67969C14.0195 5.20703 14.0293 6.10547 14.0293 7.375C14.0293 8.64453 14.0195 9.54297 14 10.0703C13.9414 11.2617 13.5801 12.1895 12.916 12.8535C12.2715 13.498 11.3535 13.8398 10.1621 13.8789C9.63477 13.918 8.73633 13.9375 7.4668 13.9375C6.19727 13.9375 5.29883 13.918 4.77148 13.8789C3.58008 13.8203 2.66211 13.4688 2.01758 12.8242C1.76367 12.5898 1.55859 12.3164 1.40234 12.0039C1.24609 11.6914 1.12891 11.3887 1.05078 11.0957C0.992188 10.8027 0.962891 10.4609 0.962891 10.0703C0.923828 9.54297 0.904297 8.64453 0.904297 7.375C0.904297 6.10547 0.923828 5.19727 0.962891 4.65039C1.02148 3.47852 1.37305 2.57031 2.01758 1.92578C2.66211 1.26172 3.58008 0.900391 4.77148 0.841797C5.29883 0.822266 6.19727 0.8125 7.4668 0.8125C8.73633 0.8125 9.63477 0.822266 10.1621 0.841797C11.3535 0.900391 12.2715 1.26172 12.916 1.92578C13.5801 2.57031 13.9414 3.48828 14 4.67969ZM12.5938 11.2422C12.6523 11.0859 12.7012 10.8906 12.7402 10.6562C12.7793 10.4023 12.8086 10.1094 12.8281 9.77734C12.8477 9.42578 12.8574 9.14258 12.8574 8.92773C12.8574 8.71289 12.8574 8.41016 12.8574 8.01953C12.8574 7.62891 12.8574 7.41406 12.8574 7.375C12.8574 7.31641 12.8574 7.10156 12.8574 6.73047C12.8574 6.33984 12.8574 6.03711 12.8574 5.82227C12.8574 5.60742 12.8477 5.33398 12.8281 5.00195C12.8086 4.65039 12.7793 4.35742 12.7402 4.12305C12.7012 3.86914 12.6523 3.66406 12.5938 3.50781C12.3594 2.90234 11.9395 2.48242 11.334 2.24805C11.1777 2.18945 10.9727 2.14062 10.7188 2.10156C10.4844 2.0625 10.1914 2.0332 9.83984 2.01367C9.50781 1.99414 9.23438 1.98438 9.01953 1.98438C8.82422 1.98438 8.52148 1.98438 8.11133 1.98438C7.7207 1.98438 7.50586 1.98438 7.4668 1.98438C7.42773 1.98438 7.21289 1.98438 6.82227 1.98438C6.43164 1.98438 6.12891 1.98438 5.91406 1.98438C5.69922 1.98438 5.41602 1.99414 5.06445 2.01367C4.73242 2.0332 4.43945 2.0625 4.18555 2.10156C3.95117 2.14062 3.75586 2.18945 3.59961 2.24805C2.99414 2.48242 2.57422 2.90234 2.33984 3.50781C2.28125 3.66406 2.23242 3.86914 2.19336 4.12305C2.1543 4.35742 2.125 4.65039 2.10547 5.00195C2.08594 5.33398 2.07617 5.60742 2.07617 5.82227C2.07617 6.01758 2.07617 6.32031 2.07617 6.73047C2.07617 7.12109 2.07617 7.33594 2.07617 7.375C2.07617 7.45312 2.07617 7.63867 2.07617 7.93164C2.07617 8.20508 2.07617 8.43945 2.07617 8.63477C2.07617 8.81055 2.07617 9.04492 2.07617 9.33789C2.0957 9.63086 2.11523 9.88477 2.13477 10.0996C2.1543 10.2949 2.18359 10.5 2.22266 10.7148C2.26172 10.9297 2.30078 11.1055 2.33984 11.2422C2.59375 11.8477 3.01367 12.2676 3.59961 12.502C3.75586 12.5605 3.95117 12.6094 4.18555 12.6484C4.43945 12.6875 4.73242 12.7168 5.06445 12.7363C5.41602 12.7559 5.68945 12.7656 5.88477 12.7656C6.09961 12.7656 6.40234 12.7656 6.79297 12.7656C7.20312 12.7656 7.42773 12.7656 7.4668 12.7656C7.52539 12.7656 7.74023 12.7656 8.11133 12.7656C8.50195 12.7656 8.80469 12.7656 9.01953 12.7656C9.23438 12.7656 9.50781 12.7559 9.83984 12.7363C10.1914 12.7168 10.4844 12.6875 10.7188 12.6484C10.9727 12.6094 11.1777 12.5605 11.334 12.502C11.9395 12.248 12.3594 11.8281 12.5938 11.2422Z" fill="#DFEEB6"/>
</svg>
