<svg width="15" height="13" viewBox="0 0 15 13" fill="#DFEEB6" xmlns="http://www.w3.org/2000/svg">
<path d="M13.4473 3.32812C13.4668 3.40625 13.4766 3.5332 13.4766 3.70898C13.4766 4.74414 13.2812 5.7793 12.8906 6.81445C12.5 7.83008 11.9434 8.76758 11.2207 9.62695C10.5176 10.4668 9.59961 11.1504 8.4668 11.6777C7.33398 12.2051 6.08398 12.4688 4.7168 12.4688C2.99805 12.4688 1.42578 12.0098 0 11.0918C0.214844 11.1113 0.458984 11.1211 0.732422 11.1211C2.1582 11.1211 3.4375 10.6816 4.57031 9.80273C3.88672 9.80273 3.28125 9.60742 2.75391 9.2168C2.24609 8.80664 1.89453 8.29883 1.69922 7.69336C1.89453 7.71289 2.08008 7.72266 2.25586 7.72266C2.5293 7.72266 2.80273 7.69336 3.07617 7.63477C2.60742 7.53711 2.1875 7.3418 1.81641 7.04883C1.44531 6.75586 1.15234 6.4043 0.9375 5.99414C0.722656 5.56445 0.615234 5.10547 0.615234 4.61719V4.55859C1.04492 4.8125 1.50391 4.94922 1.99219 4.96875C1.07422 4.34375 0.615234 3.48438 0.615234 2.39062C0.615234 1.84375 0.761719 1.32617 1.05469 0.837891C1.81641 1.79492 2.74414 2.55664 3.83789 3.12305C4.95117 3.68945 6.13281 4.00195 7.38281 4.06055C7.34375 3.82617 7.32422 3.5918 7.32422 3.35742C7.32422 2.51758 7.61719 1.79492 8.20312 1.18945C8.80859 0.583984 9.53125 0.28125 10.3711 0.28125C11.2695 0.28125 12.0215 0.603516 12.627 1.24805C13.3301 1.11133 13.9844 0.867188 14.5898 0.515625C14.3555 1.23828 13.9062 1.80469 13.2422 2.21484C13.8281 2.13672 14.4141 1.9707 15 1.7168C14.5703 2.3418 14.0527 2.87891 13.4473 3.32812Z" fill="#DFEEB6"/>
</svg>
