<svg width="17" height="12" viewBox="0 0 17 12" fill="" xmlns="http://www.w3.org/2000/svg">
<path d="M16.2383 2.50781C16.2969 2.74219 16.3457 3.03516 16.3848 3.38672C16.4434 3.73828 16.4824 4.08984 16.502 4.44141C16.5215 4.77344 16.5312 5.08594 16.5312 5.37891C16.5508 5.67188 16.5605 5.91602 16.5605 6.11133V6.375C16.5605 8.13281 16.4531 9.43164 16.2383 10.2715C16.1406 10.6035 15.9648 10.8965 15.7109 11.1504C15.457 11.4043 15.1543 11.5801 14.8027 11.6777C14.4316 11.7754 13.7285 11.8535 12.6934 11.9121C11.6582 11.9512 10.7109 11.9805 9.85156 12H8.5625C5.22266 12 3.14258 11.8926 2.32227 11.6777C1.56055 11.4629 1.08203 10.9941 0.886719 10.2715C0.789062 9.90039 0.710938 9.39258 0.652344 8.74805C0.613281 8.08398 0.583984 7.52734 0.564453 7.07812V6.375C0.564453 4.63672 0.671875 3.34766 0.886719 2.50781C0.984375 2.15625 1.16016 1.85352 1.41406 1.59961C1.66797 1.3457 1.9707 1.16992 2.32227 1.07227C2.69336 0.974609 3.39648 0.90625 4.43164 0.867188C5.4668 0.808594 6.41406 0.769531 7.27344 0.75H8.5625C11.9023 0.75 13.9824 0.857422 14.8027 1.07227C15.1543 1.16992 15.457 1.3457 15.7109 1.59961C15.9648 1.85352 16.1406 2.15625 16.2383 2.50781ZM6.92188 8.77734L11.1113 6.375L6.92188 4.00195V8.77734Z" fill="#433840"/>
</svg>
