<svg width="15" height="15" viewBox="0 0 15 15" fill="none" xmlns="http://www.w3.org/2000/svg">
<path d="M14.7656 7.375C14.7656 9.17188 14.1797 10.7539 13.0078 12.1211C11.8359 13.4688 10.3809 14.2793 8.64258 14.5527V9.48438H10.3418L10.6641 7.375H8.64258V5.99805C8.64258 5.25586 9.0332 4.88477 9.81445 4.88477H10.7227V3.09766C10.1758 3 9.63867 2.95117 9.11133 2.95117C8.54492 2.95117 8.05664 3.05859 7.64648 3.27344C7.25586 3.48828 6.94336 3.81055 6.70898 4.24023C6.47461 4.66992 6.35742 5.17773 6.35742 5.76367V7.375H4.51172V9.48438H6.35742V14.5527C4.61914 14.2793 3.16406 13.4688 1.99219 12.1211C0.820312 10.7539 0.234375 9.17188 0.234375 7.375C0.234375 5.36328 0.9375 3.6543 2.34375 2.24805C3.76953 0.822266 5.48828 0.109375 7.5 0.109375C9.51172 0.109375 11.2207 0.822266 12.627 2.24805C14.0527 3.6543 14.7656 5.36328 14.7656 7.375Z" fill="#433840"/>
</svg>
