<svg width="57" height="27" fill="none" xmlns="http://www.w3.org/2000/svg"><path d="M7.537 18.474h41.455v.094H7.537v-.094zm12.74-2.567h.02l1.704-4.525h1.546v.146c-.137 0-.253.014-.335.04a.397.397 0 00-.205.127c-.055.053-.082.147-.103.253a2.26 2.26 0 00-.027.4v4.199c0 .166.013.306.034.413.02.107.055.193.11.253.054.06.116.1.205.12.088.02.198.033.328.033v.154h-2.34v-.154c.158 0 .28-.006.383-.026a.467.467 0 00.247-.113.527.527 0 00.13-.254c.027-.106.04-.253.04-.433v-4.125h-.02l-1.909 5.098h-.109l-1.902-4.985h-.02v4.019c0 .18.013.326.034.433.02.107.061.186.123.253a.498.498 0 00.24.113c.102.02.225.027.383.027v.153h-1.875v-.153c.15 0 .267-.013.363-.033a.455.455 0 00.232-.12.467.467 0 00.117-.253c.02-.107.034-.254.034-.427v-4.199c0-.16-.007-.293-.028-.4a.544.544 0 00-.11-.253.486.486 0 00-.232-.126 1.467 1.467 0 00-.376-.04v-.154h1.621l1.697 4.539zm6.729 1.091c0 .127.046.226.131.282.086.063.25.091.486.084v.162H25.91v-.162c.112 0 .21-.014.296-.042a.49.49 0 00.216-.14.886.886 0 00.165-.275 5.01 5.01 0 00.15-.444l1.63-5.568h.15l1.748 5.568c.065.219.13.38.177.5.052.12.111.211.17.268.06.056.132.091.204.105.072.014.164.021.276.021v.162h-2.167v-.162c.197 0 .341-.028.42-.084.079-.056.125-.155.125-.282a.68.68 0 00-.02-.162c-.013-.056-.04-.147-.072-.267l-.348-1.112h-1.603l-.36 1.253c-.04.148-.06.24-.06.295zm1.169-4.21l-.65 2.31h1.386l-.716-2.31h-.02zm6.967 4.189c.03.107.074.188.14.255a.605.605 0 00.28.114c.124.02.279.026.462.026v.154h-2.822v-.154a3 3 0 00.463-.026.515.515 0 00.28-.108.492.492 0 00.139-.254 1.75 1.75 0 00.044-.442v-4.839h-.735c-.213 0-.397.02-.544.054a.833.833 0 00-.367.18.653.653 0 00-.206.328c-.052.134-.066.295-.074.496h-.169v-1.393h5.182v1.393h-.169c-.015-.382-.11-.656-.287-.817-.176-.16-.477-.24-.904-.24h-.75v4.838c-.007.188.008.328.037.435zm6.313-5.468c-.146 0-.273.006-.375.027a.386.386 0 00-.234.12.617.617 0 00-.121.254 1.94 1.94 0 00-.032.421v4.213c0 .187.013.334.045.44.031.108.07.188.127.255a.413.413 0 00.234.107c.096.013.216.027.356.027v.153H39.1v-.153c.152 0 .285-.014.38-.034a.413.413 0 00.236-.127.616.616 0 00.114-.254c.025-.107.032-.247.032-.408v-4.212c0-.174-.013-.314-.032-.421a.52.52 0 00-.12-.254.446.446 0 00-.236-.12 2.014 2.014 0 00-.374-.027v-.148h2.355v.14zm7.186 1.468c-.051-.545-.233-.986-.547-1.296-.314-.324-.723-.483-1.22-.483-.649 0-1.13.269-1.437.807-.306.537-.467 1.337-.467 2.392 0 .49.051.91.139 1.268.095.359.226.641.401.876.175.227.387.392.642.496.256.103.533.158.84.158.408 0 .759-.096 1.043-.296.278-.2.548-.51.789-.938l.167.076c-.489.986-1.255 1.49-2.284 1.49a2.86 2.86 0 01-1.992-.793 2.723 2.723 0 01-.657-.986c-.168-.386-.248-.841-.248-1.358 0-.503.073-.965.218-1.393a3.56 3.56 0 01.62-1.103c.27-.31.585-.558.935-.73a2.736 2.736 0 011.182-.262c.205 0 .387.02.555.055.168.041.3.082.416.138.117.055.219.096.307.138a.542.542 0 00.226.055.192.192 0 00.16-.09c.037-.055.059-.159.08-.303h.176l.124 2.095-.168-.013zM9.624 16.836c0 .157.062.28.191.362.13.082.362.116.703.11v.205h-2.51v-.206c.157 0 .307-.02.43-.054a.709.709 0 00.32-.178c.089-.082.17-.205.246-.355.068-.15.15-.342.218-.568L11.582 9h.218l2.53 7.166c.103.273.185.492.26.65a.928.928 0 00.252.341.664.664 0 00.3.137c.11.02.246.027.403.027v.205H12.4v-.205c.287 0 .492-.04.608-.11.116-.068.17-.19.17-.362a.661.661 0 00-.027-.198 10.1 10.1 0 00-.11-.349l-.51-1.429h-2.32l-.525 1.607a1.445 1.445 0 00-.062.356zm1.685-5.415l-.948 2.974h2.012l-1.037-2.974h-.027zm5.71 8h-.532v1.895h.613c.215-.013.316-.097.33-.226v-1.43c-.048-.155-.189-.226-.411-.239zm.08 1.663h-.282v-1.431h.283v1.43zm-9.091-1.663h-.47v1.895h.47V19.42zm22.432 0h-.292v.265h.292v1.63h.366v-1.63h.285v-.265h-.651zm9.601 0h-.47v1.895h.47V19.42zm-4.475 0h-.707v1.894h.33v-.84h.222a.06.06 0 01.06.058v.783h.33v-.809a.174.174 0 00-.134-.168h-.014l.04-.02a.163.163 0 00.102-.148v-.53c.006-.123-.101-.22-.229-.22zm-.094.763a.06.06 0 01-.06.058h-.223v-.588h.283v.53zm7.875-.763h-.008v1.895h.942v-.265h-.51v-.544h.391v-.265h-.39v-.556h.509v-.265h-.934zM12.42 20.527l-.33-1.054v-.052h-.313v1.895h.312v-.9l.286.9h.345V19.42h-.3v1.106zm9.402.525c0 .019-.02.038-.048.038h-.196c-.027 0-.04-.02-.048-.038V19.42h-.332v1.664c0 .129.109.232.244.232h.454a.237.237 0 00.244-.232V19.42h-.332v1.63h.014zm4.782-1.631h-.454c-.13 0-.24.103-.24.231v.649c0 .096.089.18.192.18h.412v.571c0 .02-.02.039-.04.039h-.194c-.02 0-.04-.02-.04-.039v-.289h-.324v.321c0 .129.11.232.24.232h.455c.13 0 .24-.103.24-.232v-.655c0-.096-.082-.173-.185-.173h-.427v-.572c0-.019.02-.038.041-.038h.193c.02 0 .041.02.041.038v.244h.323v-.276c.008-.128-.103-.231-.233-.231zm22.14 0h-.453a.237.237 0 00-.241.231v.649c0 .096.09.18.192.18h.413v.571c0 .02-.02.039-.041.039h-.193c-.02 0-.041-.02-.041-.039v-.289h-.323v.321c0 .129.11.232.24.232h.454c.13 0 .241-.103.241-.232v-.655c0-.096-.083-.173-.186-.173h-.426v-.572c0-.019.02-.038.041-.038h.193c.02 0 .041.02.041.038v.244h.323v-.276c.007-.128-.103-.231-.234-.231z" fill="#777"/></svg>