<svg width="42" height="26" fill="none" xmlns="http://www.w3.org/2000/svg"><path fill-rule="evenodd" clip-rule="evenodd" d="M5.385 14.897a.99.99 0 00.419-.091.949.949 0 00.322-.253c.09-.103.155-.227.206-.369.045-.143.071-.292.071-.454a.838.838 0 00-.187-.55c-.122-.15-.302-.22-.54-.22a.977.977 0 00-.407.09 1.067 1.067 0 00-.328.253c-.09.11-.168.233-.22.375a1.305 1.305 0 00-.076.448c0 .226.07.414.206.557.122.143.302.214.534.214zm3.833-1.99a.761.761 0 00-.348.072.928.928 0 00-.457.415.697.697 0 00-.097.246h1.54c.006-.026.006-.059.006-.078v-.078a.56.56 0 00-.167-.408c-.11-.117-.27-.169-.477-.169z" fill="#E8561B"/><path fill-rule="evenodd" clip-rule="evenodd" d="M15.164 10.25c-.69-1.626-3.858-1.957-8.2-.116-.664.278-1.263.577-1.81.881l-.355 1.899h.013a1.26 1.26 0 01.458-.409c.186-.097.386-.149.612-.149.186 0 .36.033.515.091a1.135 1.135 0 01.644.674c.058.156.09.33.09.525a2.031 2.031 0 01-.457 1.309 1.548 1.548 0 01-1.173.544c-.219 0-.431-.052-.624-.149a.982.982 0 01-.438-.434h-.013l-.084.512h-.676l.682-3.914C1.92 13.095.973 14.858 1.501 16.11c.69 1.626 4.303 1.645 8.078.032a17.374 17.374 0 001.733-.862.664.664 0 01-.174-.48c0-.058.006-.123.006-.187.007-.065.013-.13.026-.188l.251-1.38h-.528l.103-.597h.516l.148-.868h.715l-.148.868h.663l-.103.596h-.657l-.258 1.394a.808.808 0 00-.019.175c0 .103.032.181.097.22.013.006.032.02.045.026 2.357-1.53 3.697-3.363 3.17-4.607zm-4.657 3.578a2.514 2.514 0 01-.058.33H8.252c-.006.02-.006.045-.006.071a.645.645 0 00.219.486.837.837 0 00.554.195c.186 0 .348-.033.483-.104s.251-.168.36-.285l.413.389c-.367.395-.812.596-1.34.596-.2 0-.387-.033-.554-.09a1.29 1.29 0 01-.438-.26 1.142 1.142 0 01-.29-.415 1.397 1.397 0 01-.103-.564c0-.259.045-.492.129-.719.084-.22.206-.415.36-.583.155-.169.336-.298.548-.389.213-.09.445-.143.696-.143.174 0 .341.027.49.078.148.052.283.123.392.22.11.098.2.22.258.37.064.149.09.324.09.525.007.084 0 .175-.006.292z" fill="#E8561B"/><path d="M17.722 12.894l.077-.453h.69l-.47 2.728c-.046.26-.11.499-.2.713-.084.214-.2.402-.348.55a1.413 1.413 0 01-.535.357 2.11 2.11 0 01-.773.123c-.122 0-.251-.013-.38-.032a2.006 2.006 0 01-.387-.104 2.056 2.056 0 01-.36-.168 1.33 1.33 0 01-.297-.227l.483-.532a1.229 1.229 0 00.96.428c.18 0 .335-.026.458-.078a.852.852 0 00.315-.214c.084-.09.155-.2.206-.33.052-.13.09-.266.123-.415l.051-.24h-.006c-.11.143-.251.26-.425.344a1.36 1.36 0 01-.6.13c-.186 0-.36-.033-.515-.091a1.189 1.189 0 01-.393-.26 1.117 1.117 0 01-.25-.401 1.482 1.482 0 01-.091-.519c0-.252.039-.492.122-.712.078-.22.194-.422.335-.59a1.54 1.54 0 01.516-.395c.2-.098.418-.143.657-.143.27 0 .49.052.657.15.167.096.29.226.367.381h.013zm-1.926 1.212c0 .22.064.402.187.551.128.149.302.22.54.22a.976.976 0 00.406-.09c.13-.065.239-.15.329-.253.09-.11.168-.233.219-.37.052-.142.077-.291.077-.447 0-.226-.064-.414-.206-.557a.725.725 0 00-.547-.214.99.99 0 00-.42.091 1.015 1.015 0 00-.321.253 1.14 1.14 0 00-.206.369 1.926 1.926 0 00-.058.447zm5.069-.57c.007-.052.013-.09.013-.117 0-.026.006-.052.006-.078 0-.142-.045-.246-.141-.31-.09-.065-.232-.091-.413-.091-.141 0-.296.026-.444.084-.155.058-.29.13-.412.214l-.277-.493c.167-.123.36-.214.58-.285a2.117 2.117 0 011.082-.058c.141.032.264.084.373.149a.84.84 0 01.264.278.857.857 0 01.097.428c0 .04 0 .084-.006.136a3.964 3.964 0 01-.02.143l-.219 1.212a5.042 5.042 0 00-.071.673h-.663c0-.11.013-.226.038-.356h-.012c-.232.279-.554.415-.967.415a1.41 1.41 0 01-.322-.039.843.843 0 01-.302-.13.731.731 0 01-.226-.24.762.762 0 01-.084-.382c0-.246.065-.44.194-.59.128-.149.296-.272.502-.356a2.51 2.51 0 01.69-.168c.25-.026.495-.04.74-.04zm-.155.518c-.141 0-.283.007-.438.013a1.94 1.94 0 00-.412.072.825.825 0 00-.31.162.354.354 0 00-.122.278c0 .071.013.13.04.175a.375.375 0 00.109.117.554.554 0 00.154.064.82.82 0 00.49-.039.956.956 0 00.251-.148.902.902 0 00.18-.227.957.957 0 00.104-.279l.038-.188h-.084zm1.779-1.276a3.65 3.65 0 00.038-.337h.677c-.007.045-.013.116-.026.22-.013.097-.02.182-.032.246h.013c.09-.142.206-.265.354-.376a.916.916 0 01.56-.168c.245 0 .445.052.593.162a.75.75 0 01.296.421c.13-.181.277-.324.451-.427.174-.104.374-.156.6-.156.173 0 .321.026.444.071a.95.95 0 01.309.201.74.74 0 01.18.298c.039.117.058.234.058.357a1.2 1.2 0 01-.026.278l-.328 1.854h-.721l.283-1.64.02-.149c.006-.052.006-.097.006-.149a.674.674 0 00-.026-.194.538.538 0 00-.077-.162.423.423 0 00-.149-.11.68.68 0 00-.548.026.983.983 0 00-.237.194.863.863 0 00-.162.266c-.038.097-.07.194-.083.291l-.284 1.627h-.728l.316-1.802a.844.844 0 00.02-.168.534.534 0 00-.11-.344c-.071-.09-.187-.136-.348-.136a.673.673 0 00-.303.071.88.88 0 00-.393.44c-.045.098-.07.195-.09.293l-.29 1.64h-.715l.406-2.34c.02-.071.032-.175.052-.298zm5.706 1.38c-.006.02-.006.045-.006.065 0 .097.02.188.058.272.038.084.09.155.16.214a.836.836 0 00.555.194.997.997 0 00.483-.104c.135-.07.251-.168.36-.285l.413.39c-.367.394-.812.595-1.34.595-.2 0-.386-.032-.554-.09a1.291 1.291 0 01-.438-.26 1.143 1.143 0 01-.29-.414 1.398 1.398 0 01-.103-.564c0-.26.045-.5.129-.72.084-.22.206-.414.36-.583a1.67 1.67 0 01.548-.388 1.758 1.758 0 011.186-.072c.148.052.283.123.392.227.11.097.2.22.258.37a1.3 1.3 0 01.09.524 2.869 2.869 0 01-.077.61h-2.184v.019zm1.604-.518c.007-.026.007-.059.007-.078v-.078a.559.559 0 00-.168-.408c-.116-.11-.27-.169-.476-.169a.76.76 0 00-.348.072.926.926 0 00-.457.415.697.697 0 00-.097.245h1.54zm1.341.926a.64.64 0 00.277.279.854.854 0 00.406.097.754.754 0 00.406-.097.3.3 0 00.148-.272c0-.11-.039-.188-.123-.24a1.687 1.687 0 00-.386-.162 2.57 2.57 0 01-.367-.143.975.975 0 01-.264-.168.572.572 0 01-.155-.22.81.81 0 01-.052-.292c0-.143.033-.279.097-.395a.955.955 0 01.27-.311c.117-.085.252-.156.406-.201.155-.046.329-.072.516-.072.232 0 .438.046.625.13a.997.997 0 01.444.389l-.56.337a.654.654 0 00-.213-.208.627.627 0 00-.354-.084.912.912 0 00-.187.02.567.567 0 00-.167.058.335.335 0 00-.123.11.287.287 0 00-.045.169c0 .097.039.168.122.213.078.046.2.091.355.136.277.078.49.188.644.318.154.136.225.324.225.577a.891.891 0 01-.386.758 1.314 1.314 0 01-.406.194 1.718 1.718 0 01-.49.065c-.322 0-.58-.058-.773-.168a1.183 1.183 0 01-.444-.428l.554-.389zm3.22.409c0 .13-.045.24-.135.33-.09.09-.2.143-.322.143a.454.454 0 01-.316-.117.413.413 0 01-.135-.33c0-.137.045-.247.142-.338a.467.467 0 01.328-.136c.123 0 .226.04.31.123.09.078.128.188.128.325zm.457-1.938l.103-.596h.516l.148-.869h.715l-.148.869h.67l-.103.596h-.657l-.258 1.393a.855.855 0 00-.02.175c0 .11.033.182.097.22a.49.49 0 00.258.059c.052 0 .097 0 .148-.013.045-.007.09-.013.135-.026l-.045.55a.977.977 0 01-.219.06c-.083.012-.16.018-.232.018-.315 0-.534-.064-.67-.187-.135-.123-.2-.292-.2-.5 0-.058.007-.122.007-.187a1.66 1.66 0 01.026-.188l.251-1.38h-.522v.006zm3.433 2.385h-.779l-.58-2.981h.76l.342 2.184h.013l1.237-2.184h.766l-1.758 2.98z" fill="#E8561B"/></svg>