<svg width="34" height="12" fill="none" xmlns="http://www.w3.org/2000/svg"><path fill-rule="evenodd" clip-rule="evenodd" d="M6.663 4.659c.001.372-.099.735-.288 1.046h-3.17V0H4.87c.936-.014 1.853.9 1.788 1.942l.004 2.717zM4.862 1.295h-.475v4.01h.046c.44 0 1.03.002 1.03-.646l-.005-2.717c-.026-.35-.252-.654-.596-.647zM6.5 6.197c.182.305.295.683.276 1.049l.004 2.717c.006 1.041-.814 1.956-1.786 1.938H3.206V6.197H6.5zm-.92 3.766l.008-2.717c0-.348-.262-.65-.59-.647h-.6v4.01h.593c.322.003.592-.301.589-.646z" fill="#000"/><path d="M13.954 5.692h-1.19l.002-4.396-1.189.002.005-1.294L15.03 0l-.004 1.293-1.07.002-.002 4.397zm-1.192 6.211l.002-5.719h1.19l-.003 5.717-1.19.002zm-2.028-6.6l-.002.389H7.64V0l3.086.003-.004 1.293-1.9-.001v4.01l1.91-.002zM10.729 6.6l-1.9-.002v4.009l1.905.005-.011 1.29-3.085-.003.001-5.715h3.091l-.001.416zM0 8.15V3.678l2.09 2.257L0 8.151zm27.529-2.847l.002.389h-3.12V.002L27.535 0l-.004 1.293-1.921.002-.002 4.01 1.922-.002zm1.649.389h1.193l.001-4.398h1.073L31.45 0l-3.46.001-.004 1.294h1.193v4.397zm0 .492h1.192v5.718h-1.192V6.184zm-4.768 0l-.002 5.719 1.201-.002.006-5.303h1.922l-.003-.414H24.41zm-3.18-.492l.006-3.75c-.003-.347.271-.65.593-.648.327-.008.6.295.6.646v3.752h1.184V1.939c.035-.531-.212-1.078-.571-1.429a1.67 1.67 0 00-2.46.06 1.996 1.996 0 00-.524 1.372v3.75h1.172zm1.194.492v3.777c.002.348-.273.65-.596.648-.345.005-.58-.296-.6-.647l.003-3.778h-1.174v3.78c-.068 1.046.828 1.955 1.77 1.938.972.015 1.783-.904 1.778-1.942V6.184h-1.181zm-6.076-.492h1.947l-.647-.582c-.464-.453-.656-1.087-.656-1.746l.01-1.423c-.003-.345.268-.65.59-.647a.551.551 0 01.403.168c.257.259.187.728.189 1.074l.001.31h1.185v-.905c.035-.531-.206-1.078-.564-1.43a1.673 1.673 0 00-2.459.06c-.34.361-.532.855-.532 1.37l-.003 1.812c-.005.142-.002.285.009.427.047.602.223 1.107.527 1.512zm2.45.492h-1.953c.226.204.453.406.68.608.387.38.584.862.629 1.45.007.094.005.301.006.296l.002 1.425a.655.655 0 01-.18.46.562.562 0 01-.838.005.664.664 0 01-.175-.413c0-.314.005-.629.01-.944v-.013h-1.186v.905c-.034.531.207 1.078.566 1.43.7.7 1.789.674 2.459-.061a2 2 0 00.53-1.37l.003-1.81c.022-.7-.132-1.422-.553-1.968zM34 8.178V3.704l-2.09 2.237L34 8.178z" fill="#000"/></svg>