<svg width="38" height="17" fill="none" xmlns="http://www.w3.org/2000/svg"><g clip-path="url(#clip0)"><path d="M2.527 5.333l4.159 1.893C6.588 7.163 4.61 5.861 4 4.831c-.627-1.055-.581-1.836-.052-2.59.529-.756 1.84-1.231 3.833-1.106 1.994.126 4.186.716 5.83 2.162 0 0-1.402-2.437-4.973-3.119-3.57-.682-6.32.695-7.904 2.105-.42.375-.637.73-.708 1.072.033 1.037 2.5 1.978 2.5 1.978z" fill="#2F98D5"/><path d="M3.949 14.76c-.531-.755-.575-1.536.052-2.59.626-1.055 2.689-2.398 2.689-2.398l-4.163 1.895s-2.469.94-2.5 1.978c.071.341.288.697.708 1.072 1.585 1.41 4.331 2.785 7.902 2.103 3.573-.68 4.976-3.117 4.976-3.117-1.645 1.446-3.837 2.038-5.83 2.162-1.994.125-3.305-.348-3.834-1.105z" fill="#F9AE00"/><path d="M2.527 11.667L6.69 9.772s1.182-.618 1.182-1.23c0-.014 0-.029-.002-.042l.002-.041c0-.613-1.182-1.23-1.182-1.23s-.002-.003-.004-.003l-4.16-1.893S.06 4.394.028 3.357c-.197.942.719 1.757 1.474 2.455 1.01.931 1.459 1.856 1.451 2.688.008.832-.44 1.757-1.45 2.69-.758.697-1.673 1.51-1.477 2.455.03-1.037 2.5-1.978 2.5-1.978z" fill="#E40E20"/><path d="M10.209 8.91c0 .098.05.17.15.217a.88.88 0 00.377.075c.151.002.3-.005.446-.018a9.95 9.95 0 00.412-.049 2.88 2.88 0 01.223-.028c.013.271-.042.464-.165.577-.123.112-.37.168-.742.168-.512 0-.887-.1-1.129-.305-.24-.204-.36-.554-.36-1.056 0-.251.032-.463.098-.635a.834.834 0 01.287-.397 1.21 1.21 0 01.422-.193c.155-.038.337-.057.544-.057.397 0 .69.083.876.248.188.165.282.427.282.786a.588.588 0 01-.083.332.4.4 0 01-.212.167 1.619 1.619 0 01-.317.061 2.382 2.382 0 01-.364.012c-.12-.006-.249 0-.389.017a1.448 1.448 0 00-.356.078zm-.025-.492a.599.599 0 01.266-.075 3.3 3.3 0 01.345-.02.659.659 0 00.286-.066.205.205 0 00.12-.199c0-.08-.065-.148-.197-.202a.72.72 0 00-.533-.02c-.24.085-.335.278-.287.582zm4.839-.315v1.708a2.056 2.056 0 01-.287-.002.844.844 0 01-.229-.054.295.295 0 01-.159-.139.484.484 0 01-.046-.241V8.118c-.047-.229-.266-.318-.653-.272a2.363 2.363 0 00-.35.057c.009.052.014.116.014.187v1.285a.463.463 0 01-.048.241.302.302 0 01-.159.139.813.813 0 01-.226.054c-.08.008-.176.01-.287.002V7.526c0-.204.335-.313 1.004-.328.949-.024 1.424.277 1.426.905zm2.514-1.909a.395.395 0 00.18.066c.073.009.138.015.197.015.06 0 .117.009.17.026.054.017.096.058.127.123a.7.7 0 01.046.287V9.48a.783.783 0 00-.046.055.652.652 0 01-.075.08.86.86 0 01-.326.157 2.755 2.755 0 01-.296.053 3.55 3.55 0 01-.422.024c-.493 0-.847-.104-1.062-.312-.215-.208-.322-.555-.322-1.04 0-.187.025-.356.077-.504.051-.148.118-.27.203-.363.084-.094.184-.172.3-.234a1.29 1.29 0 01.352-.131c.118-.025.241-.038.37-.038.247 0 .421.038.528.113V6.194h-.002zm0 2.345v-.667a1.296 1.296 0 00-.32-.054 1.288 1.288 0 00-.21.002.614.614 0 00-.203.056.619.619 0 00-.182.124.572.572 0 00-.124.215.976.976 0 00-.048.326c0 .118.019.223.057.31a.542.542 0 00.142.201.536.536 0 00.207.105 1.03 1.03 0 00.433.037c.077-.007.13-.014.161-.02.03-.005.058-.013.085-.019h.005c-.002.004-.002-.202-.003-.616zm1.4-.028a.58.58 0 01-.008-.075 1.27 1.27 0 01.015-.183 1.185 1.185 0 01.19-.536c.063-.1.144-.186.238-.259a1.19 1.19 0 01.381-.18 1.88 1.88 0 01.548-.072c.144 0 .276.01.4.033.12.023.225.053.313.09a.973.973 0 01.236.14c.07.057.127.113.17.167a.77.77 0 01.114.195c.03.075.053.14.069.195.015.054.027.118.034.193l.012.167c.002.037.002.086 0 .142l-.002.095a1.488 1.488 0 01-.035.33 1.06 1.06 0 01-.067.234 1.038 1.038 0 01-.356.43 1.21 1.21 0 01-.332.138c-.136.037-.29.056-.458.056a2.89 2.89 0 01-.471-.034 1.9 1.9 0 01-.351-.086.805.805 0 01-.253-.148.881.881 0 01-.286-.436 2.413 2.413 0 01-.065-.28 3.498 3.498 0 01-.036-.316zm.715.043c.01.109.023.197.04.26a.57.57 0 00.096.19.398.398 0 00.209.136 1.2 1.2 0 00.354.044.701.701 0 00.288-.053.468.468 0 00.178-.118.646.646 0 00.136-.403v-.123a1.056 1.056 0 00-.023-.197.942.942 0 00-.034-.105.455.455 0 00-.137-.196.46.46 0 00-.113-.077.595.595 0 00-.151-.049.904.904 0 00-.194-.019.876.876 0 00-.325.053.515.515 0 00-.198.12.455.455 0 00-.096.178.728.728 0 00-.036.17c-.002.041 0 .092.002.155a.131.131 0 01.004.034zm4.438-1.346a.406.406 0 00.002.099.847.847 0 01-.04.346.266.266 0 01-.118.15.423.423 0 01-.228.056c-.134 0-.237.006-.312.015a.47.47 0 00-.197.072.268.268 0 00-.116.159 1.102 1.102 0 00-.028.28v1.503a.652.652 0 00-.228-.096 4.363 4.363 0 00-.24-.054.296.296 0 01-.174-.11c-.052-.062-.077-.15-.077-.266V8.105c0-.019 0-.045.002-.077.002-.034.008-.079.017-.137a.783.783 0 01.15-.354.742.742 0 01.163-.165.832.832 0 01.247-.118c.101-.031.213-.046.34-.046h.837zm1.306 3.641a.448.448 0 00-.228-.073 3.1 3.1 0 00-.24-.011c-.064 0-.124-.034-.174-.102-.051-.067-.076-.178-.076-.331V7.563a.75.75 0 00.046-.054.497.497 0 01.075-.077 1.05 1.05 0 01.124-.08.864.864 0 01.201-.08 2.76 2.76 0 01.297-.053 3.55 3.55 0 01.422-.025c.493 0 .847.105 1.062.313.215.208.322.555.322 1.04 0 .234-.038.438-.115.61a.95.95 0 01-.31.398 1.4 1.4 0 01-.413.202 1.63 1.63 0 01-.463.063c-.22 0-.397-.022-.53-.065v1.094zm0-2.347v.667c.052.015.108.028.165.037.06.01.134.017.223.024a.675.675 0 00.249-.028.89.89 0 00.22-.108.472.472 0 00.169-.225.977.977 0 00.063-.37.73.73 0 00-.06-.31.586.586 0 00-.14-.202.505.505 0 00-.208-.105 1.26 1.26 0 00-.217-.043 1.11 1.11 0 00-.216.007c-.086.01-.14.015-.16.019l-.086.019h-.005l.003.618zm3.226-1.205c.157-.061.42-.093.788-.093.18 0 .333.03.46.09.128.06.22.127.278.204a.87.87 0 01.132.262c.03.1.048.172.05.221a.666.666 0 010 .124v1.708c-.481.062-.72-.082-.72-.436V8.86c.003-.467-.02-.75-.068-.853-.048-.1-.2-.155-.45-.16-.158 0-.315.027-.472.084v1.446c.006.187-.054.31-.18.369-.127.058-.307.08-.54.067V6.151a.448.448 0 00.228.073c.093.008.174.011.24.011.064 0 .124.034.174.102.051.067.076.178.076.331v.63h.004zm2.511-.357a.374.374 0 01.002-.534.375.375 0 01.272-.11c.105 0 .195.037.272.11a.358.358 0 01.113.266.364.364 0 01-.113.266.375.375 0 01-.272.11.384.384 0 01-.274-.108zm.628.736c0-.154-.025-.264-.076-.332-.052-.067-.11-.1-.175-.1-.065 0-.145-.005-.24-.012a.448.448 0 01-.227-.073v2.65c.233.013.414-.01.54-.067.127-.058.186-.18.18-.37V7.677h-.002zm3.142.427v1.708a2.056 2.056 0 01-.288-.002.844.844 0 01-.228-.054.295.295 0 01-.159-.139.484.484 0 01-.046-.241V8.118c-.048-.229-.266-.318-.653-.272a2.363 2.363 0 00-.351.057c.01.052.015.116.015.187v1.285a.463.463 0 01-.048.241.302.302 0 01-.159.139.813.813 0 01-.226.054c-.08.008-.176.01-.287.002V7.526c0-.204.335-.313 1.004-.328.947-.024 1.422.277 1.426.905zm.874-.238a.42.42 0 01-.008-.13.7.7 0 01.064-.267.398.398 0 01.096-.131.525.525 0 01.163-.092.728.728 0 01.243-.037h.134a2.94 2.94 0 01.257 0l.265.01a1.438 1.438 0 01.494.12.76.76 0 01.207.134.919.919 0 01.163.198.908.908 0 01.107.277c.025.109.039.233.039.371v.519c0 .13-.016.245-.044.35a.958.958 0 01-.108.257.81.81 0 01-.535.34 1.583 1.583 0 01-.312.033h-.663c-.01 0-.025 0-.044-.002a1.268 1.268 0 01-.107-.015.776.776 0 01-.464-.24.62.62 0 01-.106-.19.763.763 0 01-.044-.261c0-.173.023-.317.067-.435a.565.565 0 01.203-.271.852.852 0 01.305-.133c.111-.025.248-.038.408-.038.278 0 .468-.019.57-.054.101-.036.151-.092.151-.167 0-.107-.105-.178-.314-.215a2.525 2.525 0 00-.667-.025 1.838 1.838 0 00-.52.094zm1.522.708a.69.69 0 01-.055.056.676.676 0 01-.161.086.653.653 0 01-.26.055 1.08 1.08 0 00-.38.056c-.098.037-.146.09-.146.16a.2.2 0 00.105.183c.071.04.211.061.422.061l.2-.001a.34.34 0 00.215-.097.295.295 0 00.04-.12c.01-.063.016-.12.018-.177l.002-.262z" fill="#1F2845"/></g><defs><clipPath id="clip0"><path fill="#fff" d="M0 0h38v17H0z"/></clipPath></defs></svg>