<svg width="39" height="6" fill="none" xmlns="http://www.w3.org/2000/svg"><g clip-path="url(#clip0)"><path d="M0 4.732V6h3.822L4.4 4.732H0zm0-1.535v1.289l4.803-.628.625-1.373L0 3.197zm0-1.582v1.329l5.865-1.41L6.564 0 0 1.615z" fill="#0099FA"/><path d="M3.535 3.93a.179.179 0 00.106-.056.16.16 0 00.042-.107.16.16 0 00-.042-.107.179.179 0 00-.106-.056.179.179 0 00-.106.056.16.16 0 00-.042.107c0 .04.015.077.042.107.027.03.065.05.106.056z" fill="#0099FA"/><path d="M9.417 3.705h1.286l.42-.942H9.417V2.11h2.001l.454-1.006.005-.009H8.162v4.31h3.719V4.388H9.417v-.684zm14.623-2.61h-1.967v4.309h1.285V4.172h.635a2.316 2.316 0 001.426-.403c.181-.136.325-.311.42-.51a1.3 1.3 0 00.124-.634 1.31 1.31 0 00-.118-.618 1.394 1.394 0 00-.396-.505 2.194 2.194 0 00-1.41-.407zm.428 1.99a.84.84 0 01-.518.136h-.604V2.098h.595a.897.897 0 01.54.145c.062.05.112.111.145.18a.48.48 0 01.048.223.494.494 0 01-.04.24.526.526 0 01-.153.198h-.013zm3.192-1.99h-1.273v4.31h2.81l.472-1.048h-2.01V1.095zm4.172-.032l-1.64 3.649-.31.692h1.337l.326-.769h1.77l.334.77h1.362l-1.954-4.342h-1.225zm.086 2.642l.518-1.208.51 1.208h-1.028zm5.66-2.61l-.951 1.57-.943-1.57h-1.448L35.98 3.79v1.615h1.277v-1.63L39 1.094h-1.422zm-21.945 0l-1.04 2.727-1.042-2.727H12.13l1.86 4.341h1.177l1.864-4.34h-1.397zm3.543-.076c-.471 0-.932.131-1.323.377a2.275 2.275 0 00-.878 1.005c-.18.409-.227.86-.135 1.294a2.2 2.2 0 00.652 1.146c.333.313.757.526 1.22.613.461.086.94.042 1.376-.128.435-.17.807-.456 1.069-.824.261-.369.401-.801.401-1.244 0-.594-.25-1.164-.698-1.583a2.461 2.461 0 00-1.684-.656zm0 3.415c-.247 0-.49-.07-.695-.199a1.195 1.195 0 01-.46-.527 1.11 1.11 0 01-.072-.68c.048-.228.167-.437.342-.602.175-.164.398-.276.641-.322a1.33 1.33 0 01.723.067c.228.09.424.24.561.433.138.194.211.421.211.654-.001.31-.133.609-.368.829a1.29 1.29 0 01-.883.343v.004z" fill="#090A0B"/></g><defs><clipPath id="clip0"><path fill="#fff" d="M0 0h39v6H0z"/></clipPath></defs></svg>