<svg width="36" height="12" fill="none" xmlns="http://www.w3.org/2000/svg"><path d="M15.927.417v10.506c0 .343-.004.686-.006 1.028h-3.955c-.006-.113-.017-.227-.017-.342V5.293c0-.082 0-.164-.005-.245-.004-.07-.028-.129-.115-.138-.087-.009-.154.009-.181.098-.027.09-.064.186-.095.28L9.398 11.95H6.523a1.63 1.63 0 00-.036-.167 8576.7 8576.7 0 00-2.188-6.777c-.031-.083-.099-.104-.184-.098-.085.006-.106.07-.107.14v6.902H.052L.056.054C1.166.054 2.278.051 3.39.05h.527c.05.003.1.003.15 0h.272c.051.018.11.015.163.028.867.215 1.438.73 1.69 1.548.323 1.047.636 2.098.953 3.147.208.69.414 1.379.624 2.067.03.098.037.214.195.219.172.006.183-.116.218-.222.016-.047.029-.094.042-.141l1.544-5.097c.12-.415.37-.786.715-1.064a2.3 2.3 0 011.22-.492l4.218.007c0 .124.006.245.006.368zm17.306 7.927c.337.462.66.933.986 1.402l1.524 2.204h-4.57c-.725-1.134-1.449-2.269-2.172-3.404a.244.244 0 00-.1-.09.258.258 0 00-.137-.025c-.428 0-.855.005-1.284 0-.17-.003-.222.065-.221.22.006 1.1.007 2.2.009 3.302h-4.004c-.007-.106-.018-.212-.018-.317V6.082c0-.392 0-.392.401-.392H35.68c.154 0 .178.064.113.184-.036.065-.067.131-.103.196-.538.93-1.343 1.574-2.362 1.979-.189.074-.208.138-.094.295zM21.62 11.951h-4.005c.003-.123.007-.245.007-.367V2.187c0-.709.005-1.42.007-2.128l3.985-.005c0 .122.006.245.006.367v11.53z" fill="#37A72E"/><path d="M23.007.049h8.662a4.46 4.46 0 011.638.31c.519.206.99.506 1.388.885.397.38.712.83.928 1.325.215.495.325 1.025.325 1.561v.866h-7.754a5.318 5.318 0 01-3.668-1.449 4.834 4.834 0 01-1.52-3.498z" fill="url(#paint0_linear)"/><defs><linearGradient id="paint0_linear" x1="23.007" y1="2.522" x2="35.948" y2="2.522" gradientUnits="userSpaceOnUse"><stop stop-color="#009FE4"/><stop offset="1" stop-color="#0078C4"/></linearGradient></defs></svg>