<svg width="40" height="17" fill="none" xmlns="http://www.w3.org/2000/svg"><path d="M6.594 6.892c-.538-.91-.852-1.852-.94-2.83-.784-.68-2.032-1.014-3.746-1.002a5.648 5.648 0 00.306 2.185h-.018c.178.449.426.862.733 1.222a.054.054 0 00.017.036c.109.127.229.243.358.346.754.618 1.648 1 2.68 1.148.095-.426.308-.81.61-1.105zm-3.29 4.293h-.018c-.488.79-.8 1.919-.936 3.388.75.122 1.443.085 2.077-.109a3.93 3.93 0 001.482-.875v-.018l.102-.11h.018c.68-.767 1.132-1.723 1.359-2.867a2.015 2.015 0 01-.829-.515c-1.04.726-2.126 1.095-3.255 1.106zm-.341-3.88a4.018 4.018 0 01-.323-.31c-.796.23-1.675.76-2.64 1.585a4.842 4.842 0 001.516 1.512c.5.305 1.06.48 1.634.51h.153c1.016-.01 1.988-.337 2.916-.979a2.278 2.278 0 01-.29-1.042c-1.135-.162-2.124-.587-2.966-1.276zm6.089-.65c.536-.884.84-1.797.91-2.738V3.88c.012-.114.017-.23.017-.345a4.099 4.099 0 00-.493-1.914C9.169 1.015 8.699.475 8.076 0h-.004c-.625.472-1.096 1.013-1.413 1.622a4.099 4.099 0 00-.494 1.913c0 .116.006.231.017.346v.036c.068.908.353 1.79.856 2.645a1.91 1.91 0 012.014.094zm.723 6.443v-.019c-.106-.895-.4-1.772-.882-2.633a1.92 1.92 0 01-.928.24h-.04c-.248 1.256-.75 2.31-1.505 3.159a.015.015 0 00-.013.004.017.017 0 00-.004.014c0 .005-.001.01-.004.014a.015.015 0 01-.013.005c.17.934.698 1.974 1.583 3.118a5.171 5.171 0 001.397-1.64c.25-.47.406-.991.46-1.53a.205.205 0 01-.034-.109 2.266 2.266 0 00-.017-.623z" fill="#FF4081"/><path d="M7.441 6.97c-.025.01-.053.017-.078.029-.653.285-1.03 1.022-.902 1.765.008.047.016.095.028.141a1.676 1.676 0 00.6.932c.022.016.043.032.066.046.049.032.098.062.15.088a1.437 1.437 0 00.667.17c.017-.001.034-.006.051-.007v-.005c.201-.01.4-.058.585-.142.715-.334 1.079-1.19.844-1.985-.235-.795-.993-1.273-1.757-1.107l-.066.015a1.435 1.435 0 00-.188.06z" fill="#FFD800"/><path fill-rule="evenodd" clip-rule="evenodd" d="M12.363 5.605h.81v5.877h-.81v.141h2.478v-.141h-.835V8.725c.163.088.49.149.768.149.99 0 2.077-.473 2.077-1.706 0-1.258-.94-1.705-2.158-1.705h-2.33v.142zm2.273 3.13a1.147 1.147 0 01-.63-.183V5.603h.5c.972 0 1.463.499 1.463 1.644 0 1.182-.793 1.488-1.333 1.488zm4.14-2.466c0-.246-.186-.446-.416-.446-.23 0-.416.2-.417.447 0 .246.187.445.417.445.23 0 .416-.2.416-.446zm-1.414 1.906h.654v3.307h-.654v.141h1.995v-.141h-.654v-3.64c-.163.175-.425.192-.687.192h-.654v.141zm5.653 3.359c-.22 0-.245-.219-.245-.385l-.003-2.291c0-.673-.736-1.014-1.357-1.014-.818 0-1.259.489-1.259.935 0 .298.131.49.36.49a.363.363 0 00.376-.367c0-.227-.09-.29-.165-.344-.056-.04-.105-.073-.105-.164 0-.314.558-.41.796-.41.31 0 .67.096.67.506v1.077h-.155c-.842 0-2.06.244-2.06 1.224 0 .594.384.935 1.022.935.54 0 .907-.149 1.185-.542h.017c.057.306.335.542.72.542.351 0 .564-.183.719-.472l-.09-.07c-.124.183-.238.35-.426.35zm-2.41-.875c0-.936.743-.953 1.34-.953h.139v1.145c0 .175-.27.665-.883.665-.523 0-.597-.367-.597-.857z" fill="#03A9F4"/><path d="M24.041 10.353h.106c.066.446.278 1.233 1.136 1.233.45 0 .795-.315.795-.813 0-.691-.49-.7-.923-.752-.53-.06-1.046-.142-1.046-1.05 0-.63.384-1.127 1.021-1.127.442 0 .744.306.826.306.049 0 .057-.061.057-.184v-.07h.114l.033 1.04h-.106c-.057-.496-.303-.953-.948-.953-.417 0-.752.244-.752.7 0 .454.318.612.861.646l.278.018c.662.044.932.425.932 1.032 0 .813-.507 1.347-1.136 1.347-.646 0-.843-.376-1.006-.376-.106 0-.082.142-.098.323h-.128l-.016-1.32zm3.599-2.178h-.711v-.141c.85.017 1.16-.367 1.3-1.224h.098v1.224h1.126v.141h-1.126v2.939c0 .358.138.472.397.472.409 0 .59-.403.637-.55l.123.026a.903.903 0 01-.899.664c-.572 0-.948-.201-.948-.78l.003-2.77zm3.044 0h-.686v-.141h.686c.265 0 .524-.017.688-.192v1.031h.016c.098-.393.384-1.031 1.054-1.031.303 0 .54.212.54.516 0 .227-.132.41-.376.41-.27 0-.36-.148-.36-.384a.43.43 0 01.18-.377.174.174 0 00-.115-.026c-.335 0-.94.567-.94 1.705v1.796h.743v.141h-2.12v-.141h.686l.005-3.307z" fill="#03A9F4"/><path fill-rule="evenodd" clip-rule="evenodd" d="M34.906 6.269c0-.246-.186-.446-.416-.446-.23 0-.417.2-.418.447 0 .246.188.445.418.445.23 0 .416-.2.416-.446zm-1.414 1.906h.654v3.307h-.654v.141h1.995v-.141h-.654v-3.64c-.163.175-.422.192-.687.192h-.654v.141z" fill="#03A9F4"/><path d="M38.205 9.285l.398-.567c.097-.142.204-.315.204-.385 0-.114-.114-.158-.36-.158h-.171v-.141h1.512v.141h-.245c-.318 0-.457.114-.678.411l-.596.813 1.192 2.082h.54v.142h-2v-.142h.637l-.817-1.425-.597.84c-.132.183-.198.349-.198.445 0 .079.04.142.198.142h.368v.142h-1.594v-.142h.204c.409 0 .556-.166.891-.63l.663-.921-.997-1.758h-.59v-.142h1.897v.142h-.49l.629 1.11z" fill="#03A9F4"/></svg>