<svg width="39" height="12" fill="none" xmlns="http://www.w3.org/2000/svg"><path d="M14.534 2.454h-2.15a.28.28 0 00-.195.083.362.362 0 00-.101.209l-.87 6.377a.24.24 0 00.005.088c.007.03.02.056.036.079a.184.184 0 00.061.053.16.16 0 00.075.02h1.027a.28.28 0 00.195-.084.362.362 0 00.1-.209l.235-1.72a.362.362 0 01.101-.209.276.276 0 01.194-.083h.681c1.417 0 2.235-.793 2.448-2.364.097-.687.004-1.227-.274-1.605-.306-.415-.848-.635-1.568-.635zm.248 2.33c-.117.892-.707.892-1.277.892h-.325l.228-1.667a.217.217 0 01.06-.125.165.165 0 01.117-.05h.149c.388 0 .755 0 .944.256.113.153.147.38.104.693zm6.182-.03h-1.03a.166.166 0 00-.117.05.217.217 0 00-.06.125l-.046.333-.072-.12c-.223-.374-.72-.5-1.216-.5-1.139 0-2.11.997-2.3 2.395-.099.698.041 1.365.384 1.83.313.427.763.606 1.297.606.917 0 1.426-.682 1.426-.682l-.046.33a.238.238 0 00.04.168.184.184 0 00.061.054.16.16 0 00.075.019h.928a.28.28 0 00.195-.083.362.362 0 00.1-.21l.557-4.075a.237.237 0 00-.04-.167.184.184 0 00-.061-.054.159.159 0 00-.075-.019zm-1.436 2.318c-.1.68-.566 1.137-1.162 1.137-.3 0-.538-.11-.692-.32-.152-.21-.21-.507-.161-.837.092-.675.567-1.147 1.154-1.147.292 0 .53.113.687.325.157.214.22.513.174.842zm6.922-2.318h-1.035a.268.268 0 00-.14.04.32.32 0 00-.108.112L23.74 7.337l-.605-2.336a.35.35 0 00-.108-.178.274.274 0 00-.178-.069H21.83a.16.16 0 00-.082.023.19.19 0 00-.064.064.238.238 0 00-.024.188l1.14 3.868-1.072 1.75a.235.235 0 00-.013.215.199.199 0 00.066.082c.029.02.06.03.094.03h1.034a.266.266 0 00.138-.04.318.318 0 00.107-.109l3.443-5.745a.235.235 0 00.012-.214.198.198 0 00-.067-.082.162.162 0 00-.092-.03z" fill="#003087"/><path d="M29.876 2.454h-2.151c-.071 0-.14.03-.194.083a.363.363 0 00-.101.209l-.87 6.377a.24.24 0 00.004.088.22.22 0 00.037.079.184.184 0 00.06.053.158.158 0 00.076.02h1.104c.05 0 .098-.021.135-.059a.254.254 0 00.07-.146l.248-1.808a.363.363 0 01.1-.209.276.276 0 01.195-.083h.68c1.418 0 2.235-.793 2.449-2.363.096-.688.004-1.228-.275-1.606-.305-.415-.847-.635-1.567-.635zm.248 2.33c-.117.892-.707.892-1.277.892h-.325l.228-1.667a.217.217 0 01.06-.125.165.165 0 01.117-.05h.149c.388 0 .755 0 .944.256.113.153.147.38.104.693zm6.181-.03h-1.029a.165.165 0 00-.116.05.216.216 0 00-.06.125l-.046.334-.073-.121c-.223-.374-.72-.5-1.216-.5-1.138 0-2.11.997-2.3 2.395-.098.698.042 1.365.384 1.83.315.428.763.606 1.297.606.917 0 1.426-.682 1.426-.682l-.046.33a.24.24 0 00.005.09c.007.029.02.055.036.078a.185.185 0 00.061.054.17.17 0 00.076.019h.927c.071 0 .14-.03.194-.083a.362.362 0 00.101-.21l.557-4.075a.238.238 0 00-.041-.167.184.184 0 00-.062-.054.16.16 0 00-.075-.018zM34.87 7.073c-.1.68-.567 1.137-1.162 1.137-.299 0-.539-.11-.692-.32-.152-.21-.21-.506-.162-.837.094-.675.568-1.147 1.154-1.147.293 0 .53.113.687.325.158.214.22.513.175.842zm2.65-4.443l-.883 6.494a.24.24 0 00.004.088.22.22 0 00.037.079.185.185 0 00.06.053.16.16 0 00.076.02h.887c.148 0 .273-.124.296-.293l.87-6.377a.238.238 0 00-.04-.166.185.185 0 00-.062-.054.159.159 0 00-.075-.02h-.993a.166.166 0 00-.117.05.217.217 0 00-.06.126zM2.286 10.601l.164-1.208-.366-.01H.334L1.55.47A.12.12 0 011.584.4a.092.092 0 01.065-.028h2.95c.98 0 1.655.236 2.008.701.165.218.27.446.322.697.053.263.054.578.002.962l-.004.028v.245l.166.109c.126.074.24.174.335.295.141.187.233.424.271.705.04.289.027.633-.038 1.022a3.974 3.974 0 01-.363 1.158c-.145.286-.34.534-.574.727-.219.18-.479.316-.773.403-.285.086-.61.13-.966.13h-.23a.643.643 0 00-.448.19.842.842 0 00-.234.483l-.018.109-.29 2.129-.013.078c-.004.025-.01.037-.019.046a.045.045 0 01-.03.012H2.286z" fill="#009CDE"/><path d="M7.249 2.788a6.839 6.839 0 01-.03.2c-.39 2.31-1.72 3.107-3.42 3.107h-.866c-.208 0-.383.175-.415.412l-.443 3.25-.126.92a.295.295 0 00.05.207c.021.028.047.05.076.066a.2.2 0 00.093.023h1.535c.182 0 .336-.152.365-.36l.015-.09.289-2.12.018-.117c.029-.208.183-.36.365-.36h.23c1.487 0 2.651-.699 2.992-2.72.142-.843.068-1.548-.308-2.043a1.517 1.517 0 00-.42-.375z" fill="#009CDE"/><path d="M6.842 2.6a2.717 2.717 0 00-.378-.097A4.171 4.171 0 005.7 2.44H3.388a.34.34 0 00-.24.102.447.447 0 00-.124.259l-.492 3.602-.014.105a.51.51 0 01.141-.295.388.388 0 01.274-.117H3.8c1.7 0 3.03-.798 3.42-3.107l.03-.2a1.934 1.934 0 00-.407-.188z" fill="#012169"/><path d="M3.024 2.8a.446.446 0 01.124-.259.34.34 0 01.24-.102h2.313c.274 0 .53.021.763.065.158.028.313.071.465.128.115.044.222.096.32.156.116-.853 0-1.435-.4-1.96C6.41.247 5.615 0 4.6 0H1.65c-.208 0-.385.175-.417.412L.003 9.417a.337.337 0 00.058.236.261.261 0 00.086.076c.033.018.07.027.106.027h1.822l.457-3.354.492-3.602z" fill="#003087"/></svg>