<svg width="43" height="20" fill="none" xmlns="http://www.w3.org/2000/svg"><path d="M36.986 7.792c-2.135.134-1.177 2.954 1.183 2.805 2.309-.146 1.09-2.949-1.183-2.805z" fill="#F19021"/><path d="M36.084 6.05a6.81 6.81 0 00-3.82 1.176 6.954 6.954 0 00-2.534 3.13 7.065 7.065 0 00-.39 4.03 7.004 7.004 0 001.881 3.57 6.848 6.848 0 003.522 1.909 6.788 6.788 0 003.973-.397 6.899 6.899 0 003.087-2.569 7.045 7.045 0 001.159-3.874c0-1.85-.725-3.624-2.015-4.932a6.83 6.83 0 00-4.863-2.042zm0 13.218a6.094 6.094 0 01-3.42-1.051 6.224 6.224 0 01-2.267-2.801 6.323 6.323 0 01-.35-3.607 6.268 6.268 0 011.684-3.196 6.129 6.129 0 013.151-1.708 6.075 6.075 0 013.556.355 6.175 6.175 0 012.763 2.299 6.305 6.305 0 011.037 3.467 6.287 6.287 0 01-1.802 4.413 6.112 6.112 0 01-4.352 1.829zm-.207-18.086c-1.633 1.251-1.35 3.17-1.35 3.17S33.503 1.653 32.17 0c-.18 2.126.477 4.942.477 4.942s-.834-1.746-2.879-1.844c1.696.989 2.354 2.77 2.505 3.247a6.767 6.767 0 013.353-1.029c-.134-.444-.61-2.319.252-4.134z" fill="#F19021"/><path d="M.599 13.708v1.46H0v-3.76h1.26c.428 0 .75.103.965.309.215.206.323.488.324.846 0 .356-.11.636-.33.84-.221.204-.54.305-.956.305H.599zm1.34-1.145c0-.213-.06-.375-.177-.487-.117-.112-.305-.168-.564-.168h-.6v1.305h.6c.493 0 .74-.216.74-.65zm3.082 2.605l-.924-1.502h-.426v1.502h-.598v-3.76H4.38c.423 0 .745.104.964.314.219.209.328.486.328.831 0 .293-.082.534-.244.724-.163.19-.398.311-.704.362l.974 1.53H5.02zm-1.35-1.933h.661c.484 0 .726-.217.725-.65 0-.206-.058-.367-.176-.482-.117-.116-.3-.173-.549-.173h-.66v1.305zm4.754 1.118H6.86l-.284.815h-.64L7.3 11.466h.688l1.36 3.702h-.64l-.284-.815zm-.168-.468l-.615-1.758-.614 1.758h1.229zm4.118-2.18c.294.22.501.54.583.901h-.63c-.078-.2-.217-.37-.397-.485a1.162 1.162 0 00-.653-.18 1.186 1.186 0 00-.623.164 1.131 1.131 0 00-.43.468c-.108.223-.16.469-.153.716-.007.257.047.51.158.741.098.199.252.363.443.471.204.113.433.17.665.165.29.005.573-.1.792-.294.22-.194.353-.459.399-.796h-1.362v-.448h1.864v.58c-.039.27-.138.529-.29.754a1.672 1.672 0 01-.605.541 1.77 1.77 0 01-.858.202 1.842 1.842 0 01-.957-.245 1.662 1.662 0 01-.64-.679 2.296 2.296 0 010-1.987c.144-.282.366-.517.638-.676.29-.166.62-.25.953-.242.442 0 .81.11 1.103.33zm4.885-.239v3.702h-.604v-2.775L15.6 15.168h-.526l-1.061-2.775v2.775h-.598v-3.702h.724l1.208 2.956 1.187-2.956h.725zm2.93 2.887h-1.562l-.284.815h-.642l1.365-3.702h.688l1.36 3.702h-.64l-.284-.815zm-.167-.468l-.615-1.758-.614 1.758h1.229zm3.656-2.477v.49h-1.035v3.27h-.604v-3.27h-1.03v-.49h2.669zm.919 0v3.76h-.599v-3.76h.599zm3.388.314c.304.238.519.575.61.954h-.637a1.14 1.14 0 00-.417-.541 1.196 1.196 0 00-.701-.2 1.081 1.081 0 00-.591.164c-.177.115-.32.279-.41.472a1.777 1.777 0 000 1.427c.09.193.232.357.41.472.177.111.382.168.59.165.25.008.494-.062.702-.2.19-.13.335-.318.417-.535h.636c-.09.378-.305.714-.609.95-.301.234-.68.35-1.134.35a1.774 1.774 0 01-.93-.243 1.63 1.63 0 01-.625-.676 2.34 2.34 0 010-1.987 1.65 1.65 0 01.625-.68c.282-.166.603-.25.93-.244.454 0 .832.117 1.134.352zm3.434 1.986v1.46h-.598v-3.76h1.26c.427 0 .748.103.964.309.216.206.325.488.325.846 0 .356-.11.636-.33.84-.221.204-.54.305-.956.305h-.665zm1.342-1.145c0-.213-.06-.375-.176-.487-.118-.112-.306-.168-.565-.168h-.6v1.305h.598c.495 0 .743-.216.743-.65zm1.637 2.131h1.281v.474H33.8v-3.76h.599v3.286zm4.023-.34h-1.565l-.284.814h-.64l1.365-3.702h.688l1.36 3.702h-.64l-.284-.815zm-.168-.47l-.614-1.757-.615 1.758h1.23zm3.497-2.476l-1.234 2.391v1.37h-.603v-1.37l-1.24-2.391h.694l.851 1.741.851-1.741h.68z" fill="#444"/></svg>