<svg width="40" height="10" fill="none" xmlns="http://www.w3.org/2000/svg"><path fill-rule="evenodd" clip-rule="evenodd" d="M22.165.172a.589.589 0 00-.845.152l-3.27 4.807a.639.639 0 00.147.873.59.59 0 00.349.114.6.6 0 00.497-.266l3.27-4.807a.64.64 0 00-.148-.873zm17.722 7.777L36.395.439a.606.606 0 00-.548-.357.592.592 0 00-.262.061.636.636 0 00-.285.837l3.492 7.511a.605.605 0 00.548.357c.088 0 .177-.02.263-.062a.636.636 0 00.284-.837zM32.26 3.138a.639.639 0 00.01-.099v-.708c0-.023-.005-.045-.007-.068l.001-.013c0-1.196-.941-2.168-2.098-2.168h-1.529a.617.617 0 00-.607.627c0 .347.272.627.607.627h1.529c.488 0 .884.41.884.914 0 .023.004.045.007.068l-.001.013v.664c-.002.018-.006.035-.006.054 0 .503-.396.913-.884.913h-1.528a.617.617 0 00-.608.627c0 .347.272.628.607.628h1.51l.01-.002.01.002c1.127 0 2.047-.925 2.093-2.079zM24.913.082c-1.156 0-2.098.972-2.098 2.168 0 .346.273.627.608.627.335 0 .607-.28.607-.627 0-.504.396-.914.883-.914.488 0 .884.41.884.914 0 .346.272.627.607.627.336 0 .607-.28.607-.627 0-1.196-.94-2.168-2.098-2.168z" fill="#E46F2A"/><mask id="a" maskUnits="userSpaceOnUse" x="0" y="0" width="28" height="10"><path d="M.004.082h27.008v9.914H.004V.082z" fill="#fff"/></mask><g mask="url(#a)" fill-rule="evenodd" clip-rule="evenodd" fill="#E46F2A"><path d="M26.404 6.055a.618.618 0 00-.607.628c0 .503-.396.913-.884.913-.487 0-.883-.41-.883-.913a.618.618 0 00-.607-.628.618.618 0 00-.608.628c0 1.195.942 2.167 2.098 2.167 1.157 0 2.098-.972 2.098-2.167a.618.618 0 00-.607-.628zM2.097.082C.941.082-.001 1.054-.001 2.25c0 .346.272.627.607.627.335 0 .607-.28.607-.627 0-.504.397-.914.884-.914s.884.41.884.914c0 .346.271.627.607.627.335 0 .607-.28.607-.627 0-1.196-.941-2.168-2.098-2.168zm1.492 5.973a.618.618 0 00-.607.628c0 .503-.397.913-.884.913s-.884-.41-.884-.913a.618.618 0 00-.607-.628.618.618 0 00-.607.628C0 7.878.942 8.85 2.098 8.85c.167 0 .328-.022.484-.06l.467.883c.107.203.308.32.516.327h.018a.591.591 0 00.29-.077.638.638 0 00.242-.85l-.484-.916c.35-.388.565-.905.565-1.474a.618.618 0 00-.607-.628z"/></g><path fill-rule="evenodd" clip-rule="evenodd" d="M16.527 6.055a.618.618 0 00-.607.628c0 .503-.396.913-.883.913-.488 0-.884-.41-.884-.913a.618.618 0 00-.607-.628.618.618 0 00-.607.628c0 1.195.94 2.167 2.098 2.167 1.156 0 2.098-.972 2.098-2.167a.618.618 0 00-.608-.628zm-7.663 0a.618.618 0 00-.606.628c0 .503-.397.913-.885.913-.487 0-.883-.41-.883-.913a.618.618 0 00-.607-.628.618.618 0 00-.608.628c0 1.195.941 2.167 2.098 2.167 1.156 0 2.098-.972 2.098-2.167a.618.618 0 00-.607-.628zM15.037.082c-1.157 0-2.099.972-2.099 2.168 0 .346.273.627.608.627.335 0 .607-.28.607-.627 0-.504.396-.914.883-.914.488 0 .884.41.884.914 0 .346.273.627.607.627.336 0 .608-.28.608-.627 0-1.196-.942-2.168-2.099-2.168zm8.386 3.151a.942.942 0 01-.106-.006l2.17 3.19a.96.96 0 01.917-.719c.027 0 .055.003.082.005l-2.154-3.165a.957.957 0 01-.91.695zm-4.27-.345V.71a.618.618 0 00-.607-.627.618.618 0 00-.607.627v3.964l1.214-1.785zm-5.607 2.81c.23 0 .442.086.608.227V3.006a.931.931 0 01-1.214.002v2.917a.93.93 0 01.606-.227zm26.411 1.578V.709a.617.617 0 00-.607-.627.617.617 0 00-.607.627v3.956l1.214 2.611zm-11.32-3.671h.609V1.694h-.609a.933.933 0 01-.606-.226V3.83a.936.936 0 01.606-.225zM33.661.082a.618.618 0 00-.607.627v7.513c0 .346.271.627.607.627.336 0 .607-.28.607-.627V.709a.617.617 0 00-.607-.627zM18.545 6.475a.93.93 0 01-.547-.178 1.291 1.291 0 01-.06-.049v1.974c0 .346.273.627.608.627.335 0 .607-.28.607-.627V6.248a.938.938 0 01-.608.227zM11.204.082a.618.618 0 00-.607.627v7.513c0 .346.272.627.607.627.335 0 .607-.28.607-.627V.709a.618.618 0 00-.607-.627zm9.412 4.076l-.802 1.178 1.451 3.154a.598.598 0 00.81.297.637.637 0 00.287-.836l-1.745-3.793zM35.24 1.675v6.547c0 .346.272.627.607.627.335 0 .607-.28.607-.627V4.286l-1.214-2.61zm-6.603 3.898a.939.939 0 01-.606-.224v2.873c0 .346.272.627.608.627.334 0 .607-.28.607-.627V5.573h-.609zm-22.754.125c.23 0 .442.086.607.227V.71a.618.618 0 00-.607-.627.618.618 0 00-.608.627v5.216a.934.934 0 01.608-.227z" fill="#E46F2A"/><mask id="b" maskUnits="userSpaceOnUse" x="0" y="0" width="10" height="6"><path d="M.004.082H9.47v5.843H.004V.082z" fill="#fff"/></mask><g mask="url(#b)" fill-rule="evenodd" clip-rule="evenodd" fill="#E46F2A"><path d="M8.863 5.698a.93.93 0 01.607.227V.709a.617.617 0 00-.607-.627.617.617 0 00-.606.627v5.216a.928.928 0 01.606-.227zm-8.256 0c.23 0 .443.086.607.227V3.006A.93.93 0 010 3.008v2.917a.93.93 0 01.607-.227z"/></g><path fill-rule="evenodd" clip-rule="evenodd" d="M3.589 3.234a.928.928 0 01-.608-.228v2.92a.928.928 0 011.214-.001V3.008a.934.934 0 01-.606.226z" fill="#E46F2A"/></svg>