<svg width="35" height="9" fill="none" xmlns="http://www.w3.org/2000/svg"><path d="M7.776 2.871H5.381c0-.37-.046-.618-.138-.744-.142-.187-.536-.28-1.18-.28-.625 0-1.04.053-1.241.16-.202.109-.304.344-.304.706 0 .327.09.543.27.647.128.073.298.116.51.13l.483.031c1.035.065 1.682.11 1.94.136.818.078 1.411.283 1.78.615.29.259.462.597.517 1.015.033.25.048.533.048.847 0 .725-.073 1.256-.22 1.592-.267.617-.866 1.007-1.798 1.17-.39.07-.987.104-1.791.104-1.341 0-2.276-.075-2.804-.226C.806 8.589.38 8.214.173 7.65.056 7.336 0 6.813 0 6.08h2.395v.188c0 .39.12.642.358.754.165.077.364.117.598.122h.88c.45 0 .737-.021.86-.065.22-.081.365-.212.434-.394a1.42 1.42 0 00.055-.433c0-.396-.154-.637-.46-.724-.115-.034-.65-.082-1.602-.142-.766-.051-1.298-.1-1.595-.149C1.139 5.1.616 4.815.355 4.384c-.229-.366-.343-.92-.343-1.66 0-.565.062-1.017.185-1.358.124-.34.324-.598.6-.775.403-.272.92-.43 1.549-.478A21.364 21.364 0 014.088.048c1.005 0 1.721.054 2.148.162C7.278.473 7.8 1.21 7.8 2.424c0 .1-.007.248-.023.447zM18.308 9V0h4.796c.657 0 1.16.05 1.504.151.789.233 1.318.71 1.59 1.429.14.378.21.946.21 1.706 0 .913-.078 1.568-.232 1.968-.308.79-.94 1.245-1.897 1.363-.112.017-.59.033-1.435.046l-.427.013h-1.535V9h-2.574zm2.574-4.412h1.604c.51-.017.819-.054.93-.111.152-.079.255-.236.305-.473.033-.157.049-.391.049-.702 0-.38-.032-.663-.097-.847-.093-.258-.314-.415-.665-.472a5.554 5.554 0 00-.5-.014h-1.626v2.62zm11.019 2.857H28.46L27.997 9h-2.663l2.874-9h3.883L35 9h-2.607L31.9 7.445zm-.51-1.754L30.183 1.79l-1.17 3.901h2.376z" fill="#0F2B8C"/><path d="M14.755 1.266c1.061 0 2.009.46 2.632 1.181l.555-1.12A5.033 5.033 0 0014.59.08c-2.028 0-3.763 1.153-4.475 2.784H9.033l-.64 1.29h1.393a4.119 4.119 0 00.006.798h-.7l-.638 1.29h1.694c.732 1.59 2.446 2.707 4.442 2.707 1.006 0 1.94-.284 2.713-.769V6.6a3.476 3.476 0 01-2.548 1.089c-1.187 0-2.23-.576-2.838-1.447h3.547l.639-1.29h-4.708a3.055 3.055 0 01-.02-.799h5.124l.638-1.289h-5.32c.589-.955 1.684-1.598 2.938-1.598z" fill="#FFBF01"/></svg>