<svg width="35" height="12" fill="none" xmlns="http://www.w3.org/2000/svg"><g clip-path="url(#clip0)"><path fill-rule="evenodd" clip-rule="evenodd" d="M25.115 2.947c.793 0 1.436-.641 1.436-1.431a1.434 1.434 0 00-2.87 0c0 .79.643 1.43 1.434 1.43zm-10.991.772c-.065.163-.53 1.476-1.658 2.838V.735l-3.004.593V11.88h3.004V8.618c.87 1.302 1.3 3.262 1.3 3.262h3.597c-.356-1.476-1.913-4.198-1.913-4.198a13.139 13.139 0 002.109-3.963h-3.435zm7.896-.11c-2.69.086-4.056 1.29-4.056 3.685v4.586H20.9V8.14c0-1.433.188-2.048 1.893-2.107V3.651c-.287-.06-.772-.042-.772-.042zM4.425 4.881c-.368-.024-1.22-.079-1.22-.844 0-.923 1.227-.923 1.687-.923.808 0 1.856.239 2.604.462 0 0 .417.147.772.297l.033.009V1.353l-.045-.013c-.883-.308-1.91-.605-3.812-.605C1.163.735 0 2.643 0 4.276c0 .942.405 3.159 4.162 3.415.319.02 1.164.068 1.164.858 0 .653-.692 1.038-1.856 1.038a9.153 9.153 0 01-3.265-.632v2.604C1.33 11.853 2.6 12 4.085 12c3.209 0 4.645-1.804 4.645-3.593 0-2.028-1.607-3.345-4.305-3.526zM23.66 11.88h2.912V3.729H23.66v8.151zm8.393-10.625V11.88h2.912V.735l-2.912.52zm-4.248 0l2.909-.52V11.88h-2.91V1.255z" fill="#58205D"/></g><defs><clipPath id="clip0"><path fill="#fff" d="M0 0h35v12H0z"/></clipPath></defs></svg>