<svg width="34" height="17" fill="none" xmlns="http://www.w3.org/2000/svg"><path d="M31.314 11.094a.37.37 0 00-.284.138c-2.3 2.876-8.118 4.918-14.939 4.918-6.692 0-12.425-1.97-14.807-4.76a.058.058 0 01-.01-.063.061.061 0 01.022-.026.066.066 0 01.033-.01.293.293 0 01.208.082C3.798 13.693 8.72 15.3 14.433 15.3c5.418 0 10.128-1.457 12.525-3.587a.348.348 0 00.082-.4.367.367 0 00-.143-.163.39.39 0 00-.214-.056h-.684a.437.437 0 00-.304.128c-2.134 2.16-6.725 3.643-12.047 3.643C6.284 14.875.39 12.02.39 8.5s5.894-6.375 13.252-6.375c5.318 0 9.913 1.491 12.048 3.643a.418.418 0 00.304.131h.68a.39.39 0 00.215-.057.367.367 0 00.144-.162.348.348 0 00-.082-.4C24.56 3.157 19.84 1.7 14.432 1.7 8.71 1.7 3.782 3.313 1.52 5.64a.282.282 0 01-.207.082.065.065 0 01-.033-.01.061.061 0 01-.022-.027.058.058 0 01.009-.063C3.651 2.824 9.389.85 16.093.85c6.817 0 12.638 2.042 14.94 4.918a.359.359 0 00.286.138h1.947a.696.696 0 00.375-.092.657.657 0 00.26-.274.623.623 0 00-.101-.705C30.936 1.977 24.832 0 17.762 0 7.953 0 0 3.806 0 8.5S7.953 17 17.762 17c7.07 0 13.167-1.977 16.033-4.838a.62.62 0 00.102-.704.655.655 0 00-.261-.274.693.693 0 00-.375-.09h-1.948z" fill="#153F6F"/><path d="M23.196 10.127h2.6a.56.56 0 00-.174-.371.607.607 0 00-.387-.165H24.08a.153.153 0 01-.097-.041.14.14 0 01-.045-.093v-.556a.138.138 0 01.04-.093.15.15 0 01.094-.043h1.502V8.23h-1.489a.15.15 0 01-.1-.04.138.138 0 01-.044-.094v-.568c0-.035.014-.067.038-.093a.147.147 0 01.093-.043h1.152a.607.607 0 00.388-.166.56.56 0 00.175-.371h-2.59v3.271zM6.887 6.844h-.116c-.413 0-.626.228-.628.677v1.744a.388.388 0 01-.154.248.42.42 0 01-.29.08h-.496a.424.424 0 01-.318-.103.391.391 0 01-.13-.298V7.514c0-.447-.213-.675-.628-.675h-.116v2.254c0 .274.113.537.316.731a1.1 1.1 0 00.762.303h.717a1.12 1.12 0 00.763-.301.998.998 0 00.318-.73V6.843zM21.236 9.01l.507.903a.48.48 0 00.185.18.507.507 0 00.255.063h.474l-.613-1.105a.419.419 0 00-.111-.138l-.099-.075.109-.064c.16-.091.291-.22.383-.375a.995.995 0 00.139-.509v-.286a.714.714 0 00-.223-.515.776.776 0 00-.537-.214h-2.11v3.252h.745V9.066c0-.036.015-.07.041-.096a.15.15 0 01.098-.043h.616c.029 0 .058.008.083.022a.154.154 0 01.058.061zm-.76-.622a.15.15 0 01-.101-.042.138.138 0 01-.043-.099V7.53c0-.037.015-.071.04-.098a.15.15 0 01.1-.043h.886c.253.022.362.145.362.408v.165a.38.38 0 01-.126.306.414.414 0 01-.325.107l-.792.014zm8.207-1.428a.105.105 0 00-.035-.066.114.114 0 00-.071-.029h-1.314a.11.11 0 00-.068.024.101.101 0 00-.036.06l-.861 3.19h.086c.42 0 .696-.243.82-.687l.023-.078a.136.136 0 01.051-.072.146.146 0 01.086-.027h1.063a.21.21 0 01.126.042.196.196 0 01.072.108l.028.107c.109.42.144.549.154.593h.734l-.858-3.165zm-.392 1.783h-.742a.148.148 0 01-.102-.04.136.136 0 01-.043-.099v-.026s.226-1.042.254-1.093a.148.148 0 01.058-.06.157.157 0 01.083-.02h.233a.154.154 0 01.082.02.146.146 0 01.058.06c.03.05.253 1.093.253 1.093v.026a.136.136 0 01-.043.098.148.148 0 01-.102.04m-16.848 1.385h.744V6.84h-.116c-.413 0-.626.228-.628.677v2.611zm-.717 0V6.84h-.114c-.413 0-.623.226-.625.673v.565l.04.729a.137.137 0 01-.042.102.15.15 0 01-.105.044.149.149 0 01-.083-.025h-.013l-.028-.038-1.39-2.002v-.021h-.76v3.268h.117c.415 0 .626-.225.63-.67V8.94l-.032-.744v-.014a.132.132 0 01.07-.08.144.144 0 01.107-.008l.023-.014.05.07 1.403 1.98.752-.003zm5.812-3.262a.596.596 0 00-.381.163.551.551 0 00-.171.364h1.058a.153.153 0 01.099.04.14.14 0 01.045.094v2.601h.732V7.528a.143.143 0 01.042-.092.155.155 0 01.095-.044h.537a.6.6 0 00.381-.162.554.554 0 00.173-.365h-2.61zm-.842 2.099a.7.7 0 00-.226-.52.764.764 0 00-.546-.209h-1.215a.15.15 0 01-.103-.04.138.138 0 01-.044-.098v-.294a.374.374 0 01.125-.297.408.408 0 01.316-.106h.985a.605.605 0 00.387-.164.559.559 0 00.175-.37h-1.651a1.104 1.104 0 00-.748.285c-.202.185-.32.436-.333.703v.172c0 .194.08.379.222.516a.776.776 0 00.537.213h1.216a.152.152 0 01.102.044.14.14 0 01.042.1v.356a.388.388 0 01-.154.249.42.42 0 01-.29.08h-1.12a.59.59 0 00-.37.172.544.544 0 00-.158.364h1.773c.28 0 .55-.104.753-.291.202-.187.32-.443.328-.712l-.003-.153z" fill="#153F6F"/><path d="M8.535 8.145c-.076-.09-.192-.055-.202.025v1.3c0 .438-.203.659-.613.659h-.112V6.875h.76L9.773 8.85c.076.09.19.056.203-.025V7.497c0-.437.202-.658.613-.658h.111v3.259h-.76L8.535 8.155M33.17 6.873c-.085-.004-.17 0-.253.012-.059.017-.081.06-.17.272 0 0-.57 1.535-.656 1.685a.113.113 0 01-.043.053.12.12 0 01-.132 0 .113.113 0 01-.043-.053c-.086-.15-.655-1.685-.655-1.685-.087-.214-.112-.255-.17-.272a1.32 1.32 0 00-.253-.012h-.704v3.259h.111c.408 0 .615-.223.615-.668v-1.24c0-.098.061-.117.107-.117.03 0 .059.009.083.026a.137.137 0 01.051.068l.593 1.472h.658l.6-1.472a.136.136 0 01.051-.068.146.146 0 01.083-.026c.046 0 .107.019.107.116v1.248c0 .445.207.668.615.668h.114V6.873h-.71z" fill="#153F6F"/></svg>