<svg width="35" height="11" fill="none" xmlns="http://www.w3.org/2000/svg"><path d="M15.166 10.841h-2.835L14.104.193h2.835l-1.773 10.648zM25.444.453A7.17 7.17 0 0022.901 0c-2.8 0-4.771 1.45-4.783 3.523-.023 1.53 1.411 2.379 2.485 2.889 1.096.52 1.47.86 1.47 1.325-.012.714-.887 1.043-1.703 1.043-1.132 0-1.739-.17-2.66-.567l-.374-.17-.396 2.39c.664.294 1.89.556 3.162.567 2.974 0 4.911-1.427 4.934-3.636.011-1.213-.746-2.141-2.38-2.9-.991-.488-1.599-.816-1.599-1.315.012-.453.514-.917 1.633-.917a4.94 4.94 0 012.112.408l.257.113.385-2.3zm3.769 6.616l1.132-2.98c-.012.023.233-.622.373-1.019l.198.918s.537 2.549.653 3.081h-2.356zm3.5-6.876h-2.194c-.676 0-1.19.192-1.481.883l-4.212 9.765h2.975l.595-1.597h3.64c.082.374.339 1.597.339 1.597H35L32.712.193zm-22.75 0L7.186 7.454l-.303-1.473c-.514-1.699-2.123-3.545-3.92-4.463l2.543 9.312h2.998L12.961.193H9.963z" fill="#0057A0"/><path d="M4.608.193H.047L0 .408c3.558.884 5.915 3.014 6.883 5.574l-.991-4.894C5.728.408 5.227.215 4.608.193z" fill="#FAA61A"/></svg>