<svg width="41" height="21" viewBox="0 0 41 41" xmlns="http://www.w3.org/2000/svg" transform="scale(2)"><path d="M4.56 16.06c.339-.132.69-.226 1.05-.276.069.704.27 1.383.59 2.006a5.75 5.75 0 00.604-2.006 4.7 4.7 0 011.05.277 7.213 7.213 0 01-.427 1.666 3.721 3.721 0 001.509-1.038c.29.227.547.485.773.774a4.71 4.71 0 01-2.691 1.528c.314.34.66.635 1.038.887a5.802 5.802 0 012.263-1.41c.151.34.258.693.334 1.051a4.68 4.68 0 00-1.56.88 5.386 5.386 0 001.635.315 4.997 4.997 0 01-.195 1.094 6.39 6.39 0 01-4.333-2.12 6.337 6.337 0 01-4.332 2.12 4.994 4.994 0 01-.195-1.094 5.09 5.09 0 001.641-.333 4.936 4.936 0 00-1.56-.887c.076-.358.19-.704.334-1.038a5.8 5.8 0 012.264 1.409c.383-.252.73-.553 1.044-.893a4.698 4.698 0 01-2.692-1.534c.227-.29.49-.547.78-.774.409.472.93.824 1.51 1.038a6.653 6.653 0 01-.435-1.642zm-.435 5.37c.334-.15.654-.326.956-.534.377.497.755 1.006 1.12 1.503.377-.497.754-1 1.119-1.503.302.201.622.384.956.535-.503.698-1.038 1.377-1.535 2.069v1.553a4.335 4.335 0 01-1.069 0V23.5l-1.547-2.07z" fill="#F96432"/><path d="M33.278 18.645c.308-.195.68-.27 1.032-.201.333.044.654.182.918.402l-.371.554a1.384 1.384 0 00-.962-.321c-.158.019-.327.138-.302.314.025.176.132.24.251.283.39.151.824.189 1.164.453a.98.98 0 01.15 1.27 1.082 1.082 0 01-.742.44 2.017 2.017 0 01-1.66-.515l.415-.516c.246.227.547.365.874.403a.634.634 0 00.503-.126.309.309 0 00.07-.245.277.277 0 00-.151-.202c-.409-.22-.912-.213-1.29-.515a.84.84 0 01-.289-.698 1.02 1.02 0 01.39-.78zm-16.651 0a1.884 1.884 0 011.346-.145c.276.07.54.202.754.396l-.453.56a1.155 1.155 0 00-.754-.333.91.91 0 00-.78.333 1.159 1.159 0 00.1 1.553c.384.302.912.321 1.308.038v-.358h-.339v-.573h1.019v1.264a2.081 2.081 0 01-1.623.516 1.629 1.629 0 01-1.106-.61 1.856 1.856 0 01-.321-1.484c.107-.497.415-.918.849-1.157zm3.458.063a1.89 1.89 0 011.46-.208c.27.07.527.202.735.39-.15.183-.302.371-.447.554a1.145 1.145 0 00-.78-.334.903.903 0 00-.804.396 1.163 1.163 0 00.176 1.516c.383.27.893.27 1.283 0v-.346h-.333v-.572h1.018v1.27c-.37.327-.843.51-1.333.516a1.702 1.702 0 01-1.276-.478 1.754 1.754 0 01-.478-1.308 1.733 1.733 0 01.78-1.396zm-7.464-.208h.83c.252.497.516.994.774 1.49l.78-1.49h.804c-.409.761-.836 1.51-1.245 2.277v1.069h-.698v-1.063c-.409-.767-.836-1.522-1.245-2.283zm10.344 0h1.095a1.68 1.68 0 011.509.805c.27.478.308 1.063.088 1.572-.264.573-.824.95-1.44.969h-1.258c.006-1.12.006-2.233.006-3.346zm.711.648v2.025c.32 0 .667.038.95-.151.276-.201.433-.522.433-.868s-.17-.666-.446-.861c-.277-.17-.616-.132-.937-.145zm2.585-.648h1.465c.408-.012.792.202 1.006.56.22.447.145.987-.189 1.346a1.227 1.227 0 01-.383.239l.792 1.195h-.83c-.227-.359-.46-.711-.692-1.07h-.189v-.647c.24-.013.504.05.717-.095a.476.476 0 00.183-.433.474.474 0 00-.27-.384 3.316 3.316 0 00-.9-.05v2.685h-.704c-.006-1.12-.006-2.233-.006-3.346zm2.924 3.352l1.383-3.364h.654l1.383 3.364h-.754c-.1-.258-.201-.503-.296-.755h-1.081l.251-.641h.579l-.428-1.088-.98 2.49h-.711v-.006zm6.697-3.352h.704v3.346h-.704V18.5zm1.295 0h.717v2.68h1.51v.666h-2.227c0-1.12-.006-2.233 0-3.346z"/></svg>