<svg width="13" height="16" fill="none" xmlns="http://www.w3.org/2000/svg"><path d="M8.044 14.534c-.065.936-.952 1.659-1.908 1.42l-.261-.065a1.378 1.378 0 01-1.012-.965 9.368 9.368 0 01-.062-4.51c-.136.02-.285.037-.443.051-.713.065-1.669.071-2.516-.211-.518-.173-.994-.68-1.2-1.272a1.896 1.896 0 01.234-1.734 2.257 2.257 0 01-.138-.362 3.172 3.172 0 01-.113-.856c0-.29.036-.586.113-.857.04-.14.093-.275.16-.403-.169-.387-.107-.82.003-1.149.113-.325.278-.628.488-.9a1.402 1.402 0 01-.076-.465 1.86 1.86 0 01.253-.912C1.9.757 2.563.28 3.5.28H7c.605 0 1.07.08 1.466.217.34.125.666.287.97.485l.048.029c.504.308.999.61 2.068.723.766.081 1.448.7 1.448 1.545v4c0 .851-.685 1.433-1.357 1.616-.849.232-1.574.787-2.132 1.41-.56.626-.914 1.28-1.039 1.638-.199.575-.356 1.54-.428 2.591z" fill="#EB5757"/></svg>