<svg width="13" height="16" fill="none" xmlns="http://www.w3.org/2000/svg"><path d="M4.956 1.466C5.021.53 5.908-.193 6.864.046l.261.065a1.378 1.378 0 011.012.965c.22.816.533 2.512.062 4.51.136-.02.285-.037.443-.051.713-.065 1.669-.071 2.516.211.518.173.994.68 1.2 1.272a1.897 1.897 0 01-.234 1.734c.058.118.103.242.138.362.077.27.113.568.113.856 0 .29-.036.586-.113.857-.04.14-.093.275-.16.403.169.387.107.82-.003 1.149a3.162 3.162 0 01-.488.9c.054.153.076.313.076.465a1.86 1.86 0 01-.253.912c-.334.587-.997 1.064-1.934 1.064H6c-.605 0-1.07-.08-1.466-.217a4.825 4.825 0 01-.97-.485l-.048-.029c-.504-.308-.999-.61-2.068-.723C.682 14.185 0 13.566 0 12.721v-4c0-.851.685-1.433 1.357-1.616.849-.232 1.574-.787 2.132-1.41.56-.626.914-1.28 1.039-1.638.199-.575.356-1.54.428-2.591z" fill="#27AE60"/></svg>