<svg width="25" height="24" fill="none" xmlns="http://www.w3.org/2000/svg"><g clip-path="url(#clip0)"><path d="M23.922 19.862H.586a.415.415 0 01-.417-.414V4.552c0-.229.187-.414.417-.414h23.336c.23 0 .416.185.416.414v14.896a.415.415 0 01-.416.414z" fill="#F5F5F5"/><path d="M24.338 5.348H.168v-.796c0-.229.188-.414.418-.414h23.336c.23 0 .416.185.416.414v.796zm0 3.628H.168v1.21h24.17v-1.21zm0-2.419H.168v1.21h24.17v-1.21zm0 6.048H.586a.415.415 0 01-.417-.414v-.796h24.17v1.21zm0 3.629H.168v1.21h24.17v-1.21zm-.416 3.628H.586a.415.415 0 01-.417-.414v-.795h24.17v.795a.415.415 0 01-.417.414zm.416-6.047H.168v1.21h24.17v-1.21z" fill="#FF4B55"/><path d="M11.004 4.138H.586a.415.415 0 00-.417.414v7.639c0 .228.187.414.417.414h10.418c.23 0 .416-.186.416-.414V4.55a.415.415 0 00-.416-.413z" fill="#41479B"/><path d="M1.338 5.088l.092.274.292.003c.038 0 .053.048.023.07l-.235.172.088.276c.012.036-.03.065-.06.044l-.237-.169-.237.169c-.031.021-.072-.008-.06-.044l.087-.276-.234-.172a.039.039 0 01.023-.07l.291-.003.093-.274a.04.04 0 01.074 0zm0 1.437l.092.274.292.003c.038 0 .053.048.023.07l-.235.172.088.276c.012.036-.03.065-.06.044l-.237-.169-.237.169c-.031.021-.072-.008-.06-.044l.087-.276-.234-.172a.039.039 0 01.023-.07l.291-.003.093-.274a.039.039 0 01.074 0zm0 1.436l.092.275.292.002c.038 0 .053.048.023.07l-.235.173.088.276c.012.036-.03.065-.06.043l-.237-.168-.237.168c-.031.022-.072-.007-.06-.043l.087-.276-.234-.172a.039.039 0 01.023-.07l.291-.003.093-.275a.04.04 0 01.074 0zm0 1.437l.092.275.292.002c.038 0 .053.048.023.07l-.235.173.088.276c.012.035-.03.065-.06.043l-.237-.168-.237.168c-.031.022-.072-.008-.06-.043l.087-.276-.234-.172a.039.039 0 01.023-.07l.291-.003.093-.275a.04.04 0 01.074 0zm0 1.437l.092.275.292.002c.038 0 .053.048.023.07l-.235.172.088.277c.012.035-.03.065-.06.043l-.237-.168-.237.168c-.031.022-.072-.008-.06-.043l.087-.276-.234-.173a.039.039 0 01.023-.07l.291-.002.093-.275a.04.04 0 01.074 0zm1.123-5.043l.092.275.292.002c.038 0 .053.048.023.07l-.234.172.088.276c.011.036-.03.066-.06.044l-.238-.168-.237.168c-.03.022-.072-.008-.06-.044l.087-.276-.234-.172a.039.039 0 01.023-.07l.292-.002.092-.275a.04.04 0 01.074 0zm0 1.437l.092.275.292.002c.038 0 .053.048.023.07l-.234.172.088.276c.011.036-.03.066-.06.044l-.238-.169-.237.169c-.03.021-.072-.008-.06-.044l.087-.276-.234-.172a.039.039 0 01.023-.07l.292-.002.092-.275a.039.039 0 01.074 0zm0 1.437l.092.275.292.002c.038 0 .053.048.023.07l-.234.172.088.276c.011.036-.03.066-.06.044l-.238-.168-.237.168c-.03.022-.072-.008-.06-.044l.087-.276-.234-.172a.039.039 0 01.023-.07l.292-.002.092-.275a.04.04 0 01.074 0zm0 1.437l.092.275.292.002c.038 0 .053.048.023.07l-.234.172.088.276c.011.036-.03.066-.06.044l-.238-.169-.237.169c-.03.022-.072-.008-.06-.044l.087-.276-.234-.172a.039.039 0 01.023-.07l.292-.002.092-.275a.039.039 0 01.074 0zm1.123-5.015l.093.274.291.002c.038 0 .054.049.023.07l-.234.173.088.276c.011.036-.03.065-.06.043l-.238-.168-.237.168c-.03.022-.072-.007-.06-.043l.087-.276-.234-.172a.039.039 0 01.023-.07l.292-.003.092-.274a.039.039 0 01.074 0zm0 1.436l.093.275.291.002c.038 0 .054.048.023.07l-.234.173.088.276c.011.036-.03.065-.06.043l-.238-.168-.237.168c-.03.022-.072-.007-.06-.043l.087-.276-.234-.172a.039.039 0 01.023-.07l.292-.003.092-.275a.04.04 0 01.074 0zm0 1.437l.093.275.291.002c.038 0 .054.048.023.07l-.234.173.088.276c.011.035-.03.065-.06.043l-.238-.168-.237.168c-.03.022-.072-.008-.06-.043l.087-.276-.234-.172a.039.039 0 01.023-.07l.292-.003.092-.275a.04.04 0 01.074 0zm0 1.438l.093.274.291.002c.038 0 .054.049.023.07l-.234.173.088.276c.011.036-.03.065-.06.043l-.238-.168-.237.168c-.03.022-.072-.007-.06-.043l.087-.276-.234-.172a.039.039 0 01.023-.07l.292-.003.092-.274a.039.039 0 01.074 0zm0 1.436l.093.275.291.002c.038 0 .054.048.023.07l-.234.173.088.276c.011.035-.03.065-.06.043l-.238-.168-.237.168c-.03.022-.072-.008-.06-.043l.087-.276-.234-.172a.039.039 0 01.023-.07l.292-.003.092-.275a.04.04 0 01.074 0zm1.124-5.043l.093.275.291.002c.038 0 .054.048.023.07l-.234.172.088.276c.011.036-.03.066-.06.044l-.238-.168-.237.168c-.03.022-.072-.008-.06-.044l.088-.276-.235-.172a.039.039 0 01.023-.07l.292-.002.092-.275a.04.04 0 01.074 0zm0 1.437l.093.275.291.002c.038 0 .054.048.023.07l-.234.172.088.276c.011.036-.03.066-.06.044l-.238-.169-.237.169c-.03.021-.072-.008-.06-.044l.088-.276-.235-.172a.039.039 0 01.023-.07l.292-.002.092-.275a.039.039 0 01.074 0zm0 1.437l.093.275.291.002c.038 0 .054.048.023.07l-.234.172.088.276c.011.036-.03.066-.06.044l-.238-.168-.237.168c-.03.022-.072-.008-.06-.044l.088-.276-.235-.172a.039.039 0 01.023-.07l.292-.002.092-.275a.04.04 0 01.074 0zm0 1.437l.093.275.291.002c.038 0 .054.048.023.07l-.234.172.088.276c.011.036-.03.066-.06.044l-.238-.169-.237.169c-.03.022-.072-.008-.06-.044l.088-.276-.235-.172a.039.039 0 01.023-.07l.292-.002.092-.275a.039.039 0 01.074 0zm1.123-5.015l.093.274.291.002c.038 0 .054.049.023.07l-.234.173.088.276c.011.036-.03.065-.06.043l-.238-.168-.237.168c-.03.022-.072-.007-.06-.043l.088-.276-.235-.172a.039.039 0 01.023-.07l.292-.003.092-.274a.04.04 0 01.074 0zm0 1.436l.093.275.291.002c.038 0 .054.048.023.07l-.234.173.088.276c.011.036-.03.065-.06.043l-.238-.168-.237.168c-.03.022-.072-.007-.06-.043l.088-.276-.235-.172a.039.039 0 01.023-.07l.292-.003.092-.275a.04.04 0 01.074 0zm0 1.437l.093.275.291.002c.038 0 .054.048.023.07l-.234.173.088.276c.011.035-.03.065-.06.043l-.238-.168-.237.168c-.03.022-.072-.008-.06-.043l.088-.276-.235-.172a.039.039 0 01.023-.07l.292-.003.092-.275a.04.04 0 01.074 0zm0 1.438l.093.274.291.002c.038 0 .054.049.023.07l-.234.173.088.276c.011.036-.03.065-.06.043l-.238-.168-.237.168c-.03.022-.072-.007-.06-.043l.088-.276-.235-.172a.039.039 0 01.023-.07l.292-.003.092-.274a.04.04 0 01.074 0zm0 1.436l.093.275.291.002c.038 0 .054.048.023.07l-.234.173.088.276c.011.035-.03.065-.06.043l-.238-.168-.237.168c-.03.022-.072-.008-.06-.043l.088-.276-.235-.172a.039.039 0 01.023-.07l.292-.003.092-.275a.04.04 0 01.074 0zm1.123-5.043l.093.275.291.002c.038 0 .054.048.023.07l-.234.172.088.276c.011.036-.03.066-.06.044l-.238-.168-.237.168c-.03.022-.072-.008-.06-.044l.088-.276-.235-.172a.039.039 0 01.023-.07l.292-.002.092-.275a.04.04 0 01.074 0zm0 1.437l.093.275.291.002c.038 0 .054.048.023.07l-.234.172.088.276c.011.036-.03.066-.06.044l-.238-.169-.237.169c-.03.021-.072-.008-.06-.044l.088-.276-.235-.172a.039.039 0 01.023-.07l.292-.002.092-.275a.04.04 0 01.074 0zm0 1.437l.093.275.291.002c.038 0 .054.048.023.07l-.234.172.088.276c.011.036-.03.066-.06.044l-.238-.168-.237.168c-.03.022-.072-.008-.06-.044l.088-.276-.235-.172a.039.039 0 01.023-.07l.292-.002.092-.275a.04.04 0 01.074 0zm0 1.437l.093.275.291.002c.038 0 .054.048.023.07l-.234.172.088.276c.011.036-.03.066-.06.044l-.238-.169-.237.169c-.03.022-.072-.008-.06-.044l.088-.276-.235-.172a.039.039 0 01.023-.07l.292-.002.092-.275a.04.04 0 01.074 0zm1.123-5.015l.093.274.291.002c.038 0 .054.049.023.07l-.234.173.088.276c.011.036-.03.065-.06.043l-.238-.168-.237.168c-.03.022-.072-.007-.06-.043l.088-.276-.235-.172a.039.039 0 01.023-.07l.292-.003.092-.274c.012-.036.063-.036.074 0zm0 1.436l.093.275.291.002c.038 0 .054.048.023.07l-.234.173.088.276c.011.036-.03.065-.06.043l-.238-.168-.237.168c-.03.022-.072-.007-.06-.043l.088-.276-.235-.172a.039.039 0 01.023-.07l.292-.003.092-.275c.012-.035.063-.035.074 0zm0 1.437l.093.275.291.002c.038 0 .054.048.023.07l-.234.173.088.276c.011.035-.03.065-.06.043l-.238-.168-.237.168c-.03.022-.072-.008-.06-.043l.088-.276-.235-.172a.039.039 0 01.023-.07l.292-.003.092-.275c.012-.035.063-.035.074 0zm0 1.438l.093.274.291.002c.038 0 .054.049.023.07l-.234.173.088.276c.011.036-.03.065-.06.043l-.238-.168-.237.168c-.03.022-.072-.007-.06-.043l.088-.276-.235-.172a.039.039 0 01.023-.07l.292-.003.092-.274c.012-.036.063-.036.074 0zm0 1.436l.093.275.291.002c.038 0 .054.048.023.07l-.234.173.088.276c.011.035-.03.065-.06.043l-.238-.168-.237.168c-.03.022-.072-.008-.06-.043l.088-.276-.235-.172a.039.039 0 01.023-.07l.292-.003.092-.275c.012-.035.063-.035.074 0zM9.2 5.792l.093.275.291.002c.038 0 .054.048.023.07l-.234.172.088.276c.011.036-.03.066-.06.044l-.238-.168-.237.168c-.03.022-.072-.008-.06-.044l.088-.276-.235-.172a.039.039 0 01.023-.07l.292-.002.092-.275c.012-.035.063-.035.075 0zm0 1.437l.093.275.291.002c.038 0 .054.048.023.07l-.234.172.088.276c.011.036-.03.066-.06.044l-.238-.169-.237.169c-.03.021-.072-.008-.06-.044l.088-.276-.235-.172a.039.039 0 01.023-.07l.292-.002.092-.275a.04.04 0 01.075 0zm0 1.437l.093.275.291.002c.038 0 .054.048.023.07l-.234.172.088.276c.011.036-.03.066-.06.044l-.238-.168-.237.168c-.03.022-.072-.008-.06-.044l.088-.276-.235-.172a.039.039 0 01.023-.07l.292-.002.092-.275a.04.04 0 01.075 0zm0 1.437l.093.275.291.002c.038 0 .054.048.023.07l-.234.172.088.276c.011.036-.03.066-.06.044l-.238-.169-.237.169c-.03.022-.072-.008-.06-.044l.088-.276-.235-.172a.039.039 0 01.023-.07l.292-.002.092-.275a.04.04 0 01.075 0zm1.125-5.015l.092.274.291.002c.038 0 .054.049.023.07l-.234.173.088.276c.011.036-.03.065-.06.043l-.238-.168-.237.168c-.03.022-.072-.007-.06-.043l.088-.276-.235-.172a.039.039 0 01.023-.07l.292-.003.092-.274a.04.04 0 01.075 0zm0 1.436l.092.275.291.002c.038 0 .054.048.023.07l-.234.173.088.276c.011.036-.03.065-.06.043l-.238-.168-.237.168c-.03.022-.072-.007-.06-.043l.088-.276-.235-.172a.039.039 0 01.023-.07l.292-.003.092-.275c.012-.035.063-.035.075 0zm0 1.437l.092.275.291.002c.038 0 .054.048.023.07l-.234.173.088.276c.011.035-.03.065-.06.043l-.238-.168-.237.168c-.03.022-.072-.008-.06-.043l.088-.276-.235-.172a.039.039 0 01.023-.07l.292-.003.092-.275c.012-.035.063-.035.075 0zm0 1.438l.092.274.291.002c.038 0 .054.049.023.07l-.234.173.088.276c.011.036-.03.065-.06.043l-.238-.168-.237.168c-.03.022-.072-.007-.06-.043l.088-.276-.235-.172a.039.039 0 01.023-.07l.292-.003.092-.274a.04.04 0 01.075 0zm0 1.436l.092.275.291.002c.038 0 .054.048.023.07l-.234.173.088.276c.011.035-.03.065-.06.043l-.238-.168-.237.168c-.03.022-.072-.008-.06-.043l.088-.276-.235-.172a.039.039 0 01.023-.07l.292-.003.092-.275c.012-.035.063-.035.075 0z" fill="#F5F5F5"/></g><defs><clipPath id="clip0"><path fill="#fff" transform="translate(.169)" d="M0 0h24.169v24H0z"/></clipPath></defs></svg>