<svg width="15" height="15" viewBox="0 0 15 15" fill="none" xmlns="http://www.w3.org/2000/svg">
<path d="M13.8719 7.39047L7.43594 0.959216C7.3896 0.912785 7.33456 0.875948 7.27396 0.850815C7.21337 0.825681 7.14841 0.812744 7.08281 0.812744C7.01721 0.812744 6.95226 0.825681 6.89166 0.850815C6.83107 0.875948 6.77603 0.912785 6.72969 0.959216L0.29375 7.39047C0.10625 7.57797 0 7.83265 0 8.09828C0 8.64984 0.448438 9.09828 1 9.09828H1.67813V13.6873C1.67813 13.9639 1.90156 14.1873 2.17813 14.1873H6.08281V10.6873H7.83281V14.1873H11.9875C12.2641 14.1873 12.4875 13.9639 12.4875 13.6873V9.09828H13.1656C13.4313 9.09828 13.6859 8.99359 13.8734 8.80453C14.2625 8.4139 14.2625 7.78109 13.8719 7.39047Z" fill="#333333"/>
</svg>
