<svg width="51" height="28" viewBox="0 0 51 28" fill="none" xmlns="http://www.w3.org/2000/svg">
<rect x="0.5" y="0.5" width="49.2664" height="26.418" rx="1.5" stroke="#DADADA"/>
<g clip-path="url(#clip0)">
<path d="M22.6928 9.45708C22.6928 12.1243 22.6928 14.7913 22.6928 17.4583C22.6928 17.7194 22.6898 17.9805 22.6879 18.2417H19.7766C19.772 18.1551 19.7637 18.0682 19.7637 17.9805C19.7637 16.3772 19.7637 14.7738 19.7637 13.1703C19.7637 13.108 19.7637 13.0457 19.7599 12.9837C19.7577 12.9304 19.7395 12.8856 19.6756 12.8789C19.6117 12.8722 19.5622 12.8853 19.5422 12.9535C19.5221 13.0218 19.4949 13.0949 19.4726 13.1662L17.8861 18.2413H15.7688C15.7623 18.1986 15.7536 18.1563 15.7427 18.1145C15.2159 16.4234 14.6886 14.7323 14.1608 13.0412C14.1517 13.0117 14.143 12.9819 14.1321 12.9528C14.1086 12.8894 14.0591 12.8737 13.9963 12.8782C13.9336 12.8827 13.9184 12.9315 13.9177 12.9845C13.9169 13.0375 13.9177 13.0964 13.9177 13.1524V18.2413H11.0049L11.0083 9.18066C11.8257 9.17966 12.6438 9.1783 13.4625 9.17655H13.813H13.8508C13.8874 9.17898 13.9242 9.17898 13.9608 9.17655H14.1612C14.199 9.18998 14.2428 9.18812 14.281 9.19782C14.9196 9.36195 15.3397 9.75327 15.5253 10.3766C15.7635 11.1745 15.9938 11.9747 16.2271 12.7737C16.3806 13.2986 16.5322 13.8238 16.6868 14.3483C16.7087 14.4229 16.714 14.5106 16.8301 14.5147C16.9564 14.5192 16.9647 14.4263 16.9908 14.3453C17.0021 14.3099 17.0116 14.2737 17.0218 14.2379C17.3999 12.9447 17.7786 11.6508 18.158 10.3561C18.2469 10.04 18.4306 9.7577 18.6848 9.54625C18.9391 9.33479 19.2521 9.20399 19.583 9.17096L22.6879 9.17655C22.6879 9.27093 22.6928 9.36307 22.6928 9.45708Z" fill="#BDBDBD"/>
<path d="M35.4347 15.4939C35.6824 15.8461 35.9206 16.2049 36.1603 16.5623C36.5349 17.1214 36.9089 17.6809 37.2825 18.241H33.9175C33.3844 17.3768 32.8515 16.5124 32.3189 15.648C32.3013 15.6186 32.2755 15.5948 32.2446 15.5794C32.2137 15.5639 32.1791 15.5574 32.1446 15.5607C31.8297 15.5607 31.5151 15.5644 31.1994 15.5607C31.0746 15.5585 31.0357 15.61 31.0364 15.7275C31.041 16.5657 31.0413 17.4043 31.0428 18.2425H28.0949C28.0903 18.1619 28.082 18.0817 28.082 18.0011C28.082 16.591 28.082 15.1811 28.082 13.7713C28.082 13.4728 28.082 13.4728 28.3773 13.4728H37.084C37.1346 13.4728 37.1849 13.4728 37.2352 13.4728C37.3486 13.4728 37.3664 13.5217 37.3184 13.6127C37.2923 13.6623 37.2692 13.7131 37.2428 13.7619C36.8465 14.4707 36.2541 14.9609 35.5036 15.2694C35.3648 15.3261 35.3508 15.3746 35.4347 15.4939Z" fill="#BDBDBD"/>
<path d="M26.8846 18.2413H23.9355C23.9374 18.148 23.9405 18.0548 23.9408 17.9619C23.9408 15.5765 23.9408 13.1909 23.9408 10.8052C23.9408 10.2651 23.9439 9.72344 23.9458 9.18403L26.8797 9.1803C26.8797 9.27356 26.8839 9.36682 26.8839 9.46007C26.8844 12.3869 26.8846 15.314 26.8846 18.2413Z" fill="#BDBDBD"/>
<path d="M27.9058 9.17657H34.283C34.6967 9.17657 35.1064 9.25698 35.4887 9.41319C35.8709 9.56941 36.2183 9.79838 36.5108 10.087C36.8034 10.3757 37.0355 10.7184 37.1938 11.0955C37.3521 11.4726 37.4336 11.8769 37.4336 12.2851V12.9442H31.7245C30.7117 12.9442 29.7404 12.5473 29.0242 11.8407C28.3081 11.1341 27.9058 10.1758 27.9058 9.17657Z" fill="url(#paint0_linear)"/>
</g>
<defs>
<linearGradient id="paint0_linear" x1="27.9058" y1="11.0604" x2="37.4336" y2="11.0604" gradientUnits="userSpaceOnUse">
<stop stop-color="#BDBDBD"/>
<stop offset="1" stop-color="#CCCCCC"/>
</linearGradient>
<clipPath id="clip0">
<rect width="26.5041" height="9.13934" fill="white" transform="translate(10.9673 9.13928)"/>
</clipPath>
</defs>
</svg>
