<svg width="51" height="28" viewBox="0 0 51 28" fill="none" xmlns="http://www.w3.org/2000/svg">
<rect x="1.2334" y="0.5" width="49.2664" height="26.418" rx="1.5" stroke="#DADADA"/>
<g clip-path="url(#clip0)">
<path d="M21.2029 10.4684H18.985C18.9116 10.4683 18.8405 10.4952 18.7847 10.544C18.7289 10.5929 18.6919 10.6606 18.6805 10.7349L17.7835 16.5632C17.7793 16.5902 17.781 16.6179 17.7883 16.6442C17.7956 16.6705 17.8084 16.6949 17.8258 16.7157C17.8431 16.7365 17.8647 16.7532 17.889 16.7646C17.9133 16.776 17.9397 16.7819 17.9664 16.7818H19.0252C19.0987 16.7819 19.1697 16.755 19.2256 16.7061C19.2814 16.6571 19.3184 16.5894 19.3297 16.515L19.5717 14.943C19.583 14.8687 19.6199 14.801 19.6757 14.752C19.7314 14.7031 19.8024 14.6762 19.8758 14.6761H20.578C22.0389 14.6761 22.8821 13.9516 23.1023 12.5159C23.2015 11.8878 23.1065 11.3943 22.8195 11.0486C22.5043 10.6691 21.9452 10.4684 21.2029 10.4684ZM21.4588 12.597C21.3375 13.4126 20.7294 13.4126 20.1414 13.4126H19.8068L20.0416 11.8895C20.0484 11.8449 20.0706 11.8043 20.1041 11.775C20.1375 11.7457 20.1801 11.7296 20.2241 11.7296H20.3775C20.778 11.7296 21.1559 11.7296 21.3511 11.9636C21.4675 12.1032 21.5032 12.3105 21.4588 12.597ZM27.8325 12.5708H26.7705C26.7264 12.5708 26.6839 12.5869 26.6504 12.6162C26.6169 12.6455 26.5947 12.6861 26.5879 12.7306L26.5408 13.035L26.4666 12.9247C26.2367 12.5827 25.7239 12.4684 25.2122 12.4684C24.0386 12.4684 23.0361 13.3793 22.8409 14.6572C22.7394 15.2946 22.8837 15.9041 23.2366 16.3292C23.5602 16.72 24.0233 16.8829 24.5743 16.8829C25.52 16.8829 26.0443 16.2597 26.0443 16.2597L25.997 16.5622C25.9928 16.5892 25.9943 16.6169 26.0015 16.6432C26.0088 16.6696 26.0215 16.694 26.0388 16.7149C26.0561 16.7357 26.0776 16.7525 26.1019 16.764C26.1261 16.7755 26.1525 16.7815 26.1793 16.7815H27.1359C27.2094 16.7815 27.2805 16.7547 27.3363 16.7057C27.3922 16.6568 27.4291 16.589 27.4405 16.5146L28.0145 12.7894C28.0187 12.7625 28.0171 12.7349 28.0099 12.7086C28.0027 12.6823 27.9901 12.6579 27.9728 12.6371C27.9555 12.6163 27.934 12.5996 27.9098 12.5881C27.8855 12.5767 27.8592 12.5708 27.8325 12.5708ZM26.3521 14.6891C26.2496 15.3109 25.768 15.7283 25.1538 15.7283C24.8454 15.7283 24.5989 15.627 24.4407 15.4349C24.2837 15.2441 24.2241 14.9726 24.274 14.6702C24.3697 14.0537 24.8594 13.6226 25.4642 13.6226C25.7658 13.6226 26.0109 13.7253 26.1724 13.9191C26.3343 14.1148 26.3985 14.388 26.3521 14.6891ZM33.489 12.5708H32.4217C32.3714 12.5708 32.3218 12.5835 32.2773 12.6077C32.2329 12.6318 32.1948 12.6667 32.1665 12.7094L30.6945 14.9314L30.0705 12.7961C30.0514 12.731 30.0123 12.6739 29.959 12.6333C29.9057 12.5927 29.8411 12.5708 29.7748 12.5708H28.726C28.6965 12.5707 28.6675 12.5778 28.6413 12.5916C28.6151 12.6053 28.5925 12.6253 28.5753 12.6498C28.5581 12.6743 28.5469 12.7026 28.5426 12.7325C28.5383 12.7623 28.541 12.7928 28.5505 12.8214L29.7261 16.3568L28.6209 17.9557C28.6013 17.984 28.5896 18.0174 28.5872 18.052C28.5848 18.0867 28.5918 18.1214 28.6074 18.1523C28.623 18.1832 28.6465 18.2091 28.6755 18.2272C28.7045 18.2452 28.7378 18.2548 28.7717 18.2548H29.8377C29.8874 18.2548 29.9365 18.2425 29.9806 18.2189C30.0247 18.1953 30.0626 18.1611 30.091 18.1192L33.6407 12.8682C33.66 12.8398 33.6713 12.8065 33.6734 12.772C33.6755 12.7375 33.6683 12.7031 33.6527 12.6724C33.637 12.6418 33.6135 12.6161 33.5847 12.5982C33.5558 12.5803 33.5227 12.5708 33.489 12.5708Z" fill="#BDBDBD"/>
<path d="M37.0228 10.4683H34.8046C34.7312 10.4684 34.6602 10.4952 34.6045 10.5441C34.5487 10.593 34.5118 10.6606 34.5004 10.7349L33.6033 16.5631C33.5992 16.5901 33.6008 16.6177 33.608 16.644C33.6152 16.6703 33.628 16.6947 33.6453 16.7155C33.6626 16.7363 33.6841 16.753 33.7083 16.7644C33.7326 16.7759 33.7589 16.7818 33.7856 16.7818H34.9239C34.9752 16.7817 35.0249 16.7629 35.0639 16.7286C35.1029 16.6944 35.1287 16.647 35.1366 16.595L35.3912 14.943C35.4026 14.8686 35.4395 14.8009 35.4952 14.752C35.551 14.7031 35.622 14.6761 35.6954 14.6761H36.3972C37.8585 14.6761 38.7013 13.9516 38.9219 12.5159C39.0214 11.8878 38.9257 11.3942 38.6387 11.0486C38.3238 10.6691 37.7651 10.4683 37.0228 10.4683ZM37.2786 12.597C37.1577 13.4125 36.5496 13.4125 35.9613 13.4125H35.627L35.8621 11.8894C35.8688 11.8449 35.8909 11.8043 35.9243 11.7749C35.9578 11.7456 36.0003 11.7295 36.0443 11.7296H36.1977C36.5979 11.7296 36.9761 11.7296 37.1713 11.9635C37.2877 12.1031 37.3231 12.3105 37.2786 12.597ZM43.6521 12.5707H42.5907C42.5466 12.5706 42.504 12.5867 42.4706 12.616C42.4371 12.6453 42.4151 12.686 42.4084 12.7306L42.3614 13.035L42.2868 12.9247C42.0569 12.5827 41.5445 12.4684 41.0327 12.4684C39.8591 12.4684 38.857 13.3793 38.6618 14.6572C38.5606 15.2946 38.7043 15.9041 39.0571 16.3292C39.3814 16.72 39.8438 16.8828 40.3948 16.8828C41.3405 16.8828 41.8649 16.2597 41.8649 16.2597L41.8175 16.5621C41.8133 16.5892 41.8149 16.6169 41.8221 16.6434C41.8294 16.6698 41.8421 16.6942 41.8595 16.7151C41.8769 16.736 41.8985 16.7527 41.9229 16.7642C41.9472 16.7756 41.9737 16.7815 42.0004 16.7815H42.9568C43.0302 16.7814 43.1012 16.7545 43.157 16.7056C43.2127 16.6567 43.2496 16.5889 43.261 16.5146L43.8353 12.7894C43.8394 12.7623 43.8377 12.7347 43.8304 12.7084C43.823 12.682 43.8102 12.6576 43.7928 12.6369C43.7754 12.6161 43.7538 12.5994 43.7295 12.588C43.7052 12.5766 43.6788 12.5707 43.6521 12.5707ZM42.1717 14.6891C42.0698 15.3109 41.5876 15.7283 40.9734 15.7283C40.6656 15.7283 40.4185 15.6269 40.2602 15.4348C40.1033 15.2441 40.0443 14.9726 40.0935 14.6701C40.1899 14.0536 40.6789 13.6226 41.2837 13.6226C41.5853 13.6226 41.8305 13.7253 41.992 13.919C42.1545 14.1148 42.2187 14.388 42.1717 14.6891ZM44.9042 10.6282L43.9939 16.5631C43.9897 16.5901 43.9913 16.6177 43.9986 16.644C44.0058 16.6703 44.0185 16.6947 44.0358 16.7155C44.0532 16.7363 44.0747 16.753 44.0989 16.7644C44.1231 16.7759 44.1495 16.7818 44.1762 16.7818H45.0913C45.2434 16.7818 45.3725 16.6688 45.3958 16.5149L46.2935 10.687C46.2977 10.66 46.2961 10.6324 46.2888 10.6061C46.2816 10.5797 46.2689 10.5553 46.2516 10.5345C46.2343 10.5137 46.2127 10.497 46.1885 10.4855C46.1643 10.474 46.1379 10.4681 46.1112 10.468H45.0865C45.0425 10.4682 45 10.4844 44.9666 10.5137C44.9332 10.5431 44.9111 10.5837 44.9042 10.6282Z" fill="#BDBDBD"/>
<path d="M8.57331 17.9145L8.74292 16.8104L8.36511 16.8014H6.56104L7.81478 8.6548C7.81851 8.62991 7.83085 8.60722 7.84954 8.59087C7.86823 8.57452 7.89203 8.5656 7.91661 8.56574H10.9585C11.9684 8.56574 12.6653 8.78109 13.0292 9.20615C13.1998 9.40556 13.3084 9.61394 13.3609 9.84325C13.4161 10.0839 13.417 10.3713 13.3632 10.722L13.3593 10.7475V10.9722L13.5299 11.0712C13.6601 11.1389 13.7772 11.2303 13.8753 11.3411C14.0212 11.5116 14.1156 11.7283 14.1555 11.9852C14.1967 12.2494 14.183 12.5638 14.1156 12.9197C14.0378 13.3292 13.9119 13.6858 13.742 13.9776C13.5921 14.239 13.3905 14.4654 13.1501 14.6422C12.9244 14.8064 12.6562 14.931 12.353 15.0108C12.0592 15.0892 11.7242 15.1288 11.3568 15.1288H11.12C10.9508 15.1288 10.7863 15.1913 10.6573 15.3033C10.5284 15.4165 10.4429 15.5729 10.416 15.7446L10.3981 15.844L10.0985 17.7898L10.0849 17.8613C10.0813 17.8839 10.0751 17.8952 10.0661 17.9028C10.0573 17.9102 10.0463 17.9143 10.0349 17.9145H8.57331Z" fill="#BDBDBD"/>
<path d="M13.6912 10.7734C13.6821 10.8329 13.6717 10.8937 13.6601 10.9562C13.2589 13.0669 11.8865 13.7961 10.1336 13.7961H9.24117C9.02681 13.7961 8.84617 13.9556 8.81277 14.1723L8.35583 17.1421L8.22644 17.9839C8.22128 18.0173 8.22325 18.0514 8.23221 18.084C8.24116 18.1165 8.25689 18.1466 8.27831 18.1724C8.29973 18.1981 8.32633 18.2187 8.35629 18.2329C8.38624 18.247 8.41884 18.2544 8.45183 18.2544H10.0347C10.2222 18.2544 10.3814 18.1148 10.4109 17.9254L10.4265 17.843L10.7245 15.9048L10.7436 15.7984C10.7728 15.6083 10.9324 15.4687 11.1198 15.4687H11.3566C12.8902 15.4687 14.0907 14.8306 14.4416 12.9842C14.5882 12.2128 14.5123 11.5687 14.1245 11.1157C14.0015 10.9756 13.8547 10.8596 13.6912 10.7734Z" fill="#BDBDBD"/>
<path d="M13.2718 10.602C13.1437 10.564 13.0134 10.5344 12.8816 10.5132C12.6213 10.4722 12.3583 10.4526 12.0949 10.4544H9.71065C9.61991 10.4543 9.53214 10.4875 9.46321 10.548C9.39427 10.6085 9.34872 10.6922 9.33479 10.7841L8.82758 14.0762L8.81299 14.1723C8.82879 14.0675 8.88067 13.9719 8.95925 13.9029C9.03782 13.8339 9.13791 13.796 9.24139 13.7961H10.1339C11.8867 13.7961 13.2591 13.0666 13.6603 10.9562C13.6723 10.8938 13.6823 10.8329 13.6914 10.7734C13.5856 10.7166 13.4752 10.6689 13.3616 10.6309C13.3318 10.6207 13.3019 10.6111 13.2718 10.602Z" fill="#CCCCCC"/>
<path d="M9.33458 10.7841C9.3484 10.6922 9.39393 10.6084 9.4629 10.548C9.53187 10.4875 9.6197 10.4544 9.71044 10.4547H12.0947C12.3772 10.4547 12.6408 10.4737 12.8814 10.5136C13.0443 10.5398 13.2049 10.579 13.3617 10.6309C13.4801 10.6711 13.59 10.7186 13.6915 10.7735C13.8109 9.99345 13.6906 9.46237 13.279 8.98148C12.8253 8.45206 12.0065 8.2254 10.9587 8.2254H7.91674C7.70271 8.2254 7.52013 8.38493 7.48705 8.60194L6.22001 16.8323C6.21411 16.8706 6.21635 16.9096 6.22659 16.9469C6.23683 16.9841 6.25482 17.0186 6.27932 17.0481C6.30382 17.0775 6.33425 17.1011 6.36852 17.1174C6.40278 17.1336 6.44008 17.142 6.47783 17.1421H8.35585L8.82738 14.0762L9.33458 10.7841Z" fill="#BDBDBD"/>
</g>
<defs>
<clipPath id="clip0">
<rect width="40.2131" height="10.9672" fill="white" transform="translate(6.2168 8.2254)"/>
</clipPath>
</defs>
</svg>
