<svg width="238" height="28" viewBox="0 0 238 28" fill="none" xmlns="http://www.w3.org/2000/svg">
<rect x="1.49219" y="0.5" width="52.2002" height="26.418" rx="1.5" fill="#F8FDFF" stroke="#E4F1F5"/>
<g clip-path="url(#clip0)">
<path d="M25.0097 9.45714C25.0097 12.1243 25.0097 14.7914 25.0097 17.4584C25.0097 17.7195 25.0065 17.9806 25.0045 18.2417H21.9233C21.9185 18.1552 21.9097 18.0683 21.9097 17.9806C21.9097 16.3773 21.9097 14.7739 21.9097 13.1703C21.9097 13.108 21.9097 13.0457 21.9057 12.9838C21.9033 12.9305 21.8841 12.8857 21.8165 12.879C21.7488 12.8723 21.6964 12.8853 21.6752 12.9536C21.654 13.0219 21.6252 13.095 21.6016 13.1662L19.9225 18.2414H17.6816C17.6747 18.1987 17.6655 18.1563 17.654 18.1145C17.0965 16.4234 16.5384 14.7323 15.9798 13.0413C15.9702 13.0118 15.961 12.9819 15.9494 12.9528C15.9245 12.8894 15.8721 12.8738 15.8057 12.8782C15.7393 12.8827 15.7233 12.9316 15.7225 12.9846C15.7217 13.0375 15.7225 13.0965 15.7225 13.1524V18.2414H12.6396L12.6432 9.18072C13.5084 9.17972 14.3742 9.17836 15.2407 9.17662H15.6116H15.6516C15.6904 9.17904 15.7293 9.17904 15.7681 9.17662H15.9802C16.0202 9.19005 16.0666 9.18818 16.107 9.19788C16.7829 9.36201 17.2275 9.75333 17.4239 10.3767C17.676 11.1746 17.9197 11.9747 18.1666 12.7738C18.3291 13.2986 18.4895 13.8239 18.6532 14.3484C18.6764 14.423 18.682 14.5106 18.8049 14.5147C18.9385 14.5192 18.9473 14.4263 18.9749 14.3454C18.9869 14.3099 18.9969 14.2738 19.0078 14.2379C19.4079 12.9448 19.8087 11.6508 20.2102 10.3562C20.3044 10.04 20.4988 9.75776 20.7679 9.54631C21.037 9.33485 21.3683 9.20405 21.7184 9.17102L25.0045 9.17662C25.0045 9.27099 25.0097 9.36313 25.0097 9.45714Z" fill="#777777"/>
<path d="M38.4947 15.494C38.7568 15.8461 39.0089 16.205 39.2626 16.5623C39.6591 17.1214 40.055 17.6809 40.4503 18.241H36.8889C36.3247 17.3768 35.7607 16.5125 35.197 15.648C35.1784 15.6186 35.1511 15.5948 35.1184 15.5794C35.0858 15.5639 35.049 15.5574 35.0126 15.5607C34.6792 15.5607 34.3463 15.5645 34.0122 15.5607C33.8801 15.5585 33.8389 15.61 33.8397 15.7275C33.8445 16.5657 33.8449 17.4043 33.8465 18.2425H30.7265C30.7217 18.1619 30.7129 18.0817 30.7129 18.0011C30.7129 16.5911 30.7129 15.1811 30.7129 13.7713C30.7129 13.4729 30.7129 13.4729 31.0254 13.4729H40.2402C40.2938 13.4729 40.3471 13.4729 40.4003 13.4729C40.5203 13.4729 40.5391 13.5217 40.4883 13.6127C40.4607 13.6624 40.4363 13.7131 40.4083 13.762C39.9889 14.4707 39.3619 14.9609 38.5676 15.2694C38.4207 15.3261 38.4059 15.3746 38.4947 15.494Z" fill="#777777"/>
<path d="M29.4464 18.2414H26.3252C26.3272 18.1481 26.3304 18.0548 26.3308 17.9619C26.3308 15.5765 26.3308 13.191 26.3308 10.8053C26.3308 10.2651 26.334 9.72348 26.336 9.18407L29.4412 9.18034C29.4412 9.2736 29.4456 9.36686 29.4456 9.46012C29.4462 12.3869 29.4464 15.314 29.4464 18.2414Z" fill="#777777"/>
<path d="M30.5264 9.17662H37.2758C37.7137 9.17662 38.1473 9.25702 38.5519 9.41324C38.9564 9.56945 39.324 9.79842 39.6337 10.0871C39.9433 10.3757 40.1889 10.7184 40.3565 11.0955C40.5241 11.4727 40.6103 11.8769 40.6103 12.2851V12.9443H34.568C33.4961 12.9443 32.4681 12.5473 31.7101 11.8407C30.9522 11.1342 30.5264 10.1759 30.5264 9.17662Z" fill="#CCCCCC"/>
</g>
<rect x="62.4307" y="0.499969" width="52.2002" height="26.418" rx="1.5" fill="#F8FDFF" stroke="#E4F1F5"/>
<path d="M86.1124 18.1468H83.7617L85.232 9.29966H87.5826L86.1124 18.1468Z" fill="#777777"/>
<path d="M94.6344 9.51594C94.1708 9.33693 93.4354 9.13928 92.5261 9.13928C90.2047 9.13928 88.57 10.3439 88.5599 12.0662C88.5407 13.3369 89.7303 14.0427 90.6201 14.4664C91.5296 14.8993 91.8387 15.1819 91.8387 15.5678C91.8295 16.1605 91.1038 16.4337 90.427 16.4337C89.4885 16.4337 88.9857 16.2929 88.2215 15.9631L87.912 15.8218L87.583 17.8078C88.1343 18.0522 89.1501 18.2691 90.2047 18.2786C92.6712 18.2786 94.277 17.0926 94.296 15.2572C94.3054 14.2501 93.6772 13.4784 92.3228 12.8478C91.5007 12.443 90.9971 12.1701 90.9971 11.7559C91.0068 11.3793 91.423 10.9937 92.3511 10.9937C93.1153 10.9748 93.6768 11.1535 94.1021 11.3324L94.3147 11.4264L94.6344 9.51594Z" fill="#777777"/>
<path d="M97.758 15.0126C97.9516 14.5043 98.6965 12.5372 98.6965 12.5372C98.6867 12.5561 98.8897 12.0196 99.0058 11.6902L99.1701 12.4525C99.1701 12.4525 99.6152 14.5702 99.7119 15.0126C99.3445 15.0126 98.2223 15.0126 97.758 15.0126ZM100.66 9.29966H98.8414C98.2807 9.29966 97.8547 9.45953 97.6127 10.0337L94.1211 18.1467H96.5876C96.5876 18.1467 96.9937 17.0547 97.081 16.8195C97.3515 16.8195 99.7509 16.8195 100.099 16.8195C100.167 17.1301 100.38 18.1467 100.38 18.1467H102.556L100.66 9.29966Z" fill="#777777"/>
<path d="M81.7988 9.29966L79.4967 15.3325L79.2451 14.109C78.8195 12.6972 77.4847 11.1633 75.9951 10.4006L78.1038 18.1374H80.5895L84.2844 9.29966H81.7988Z" fill="#777777"/>
<path d="M77.3588 9.29966H73.5768L73.5381 9.47841C76.4883 10.2126 78.4422 11.9823 79.2449 14.1094L78.4228 10.0433C78.2874 9.47829 77.8714 9.31829 77.3588 9.29966Z" fill="#CCCCCC"/>
<rect x="123.369" y="0.499969" width="52.2002" height="26.418" rx="1.5" fill="#F8FDFF" stroke="#E4F1F5"/>
<path d="M139.311 12.0547H136.928C136.928 11.6792 136.882 11.4272 136.791 11.2988C136.649 11.1091 136.258 11.014 135.617 11.014C134.995 11.014 134.583 11.0686 134.382 11.1781C134.18 11.2879 134.08 11.5266 134.08 11.8941C134.08 12.2268 134.169 12.4461 134.348 12.551C134.476 12.6256 134.645 12.6694 134.856 12.6824L135.336 12.7151C136.366 12.7806 137.009 12.8269 137.266 12.8532C138.08 12.932 138.67 13.14 139.037 13.477C139.325 13.7401 139.497 14.0839 139.552 14.5082C139.584 14.7621 139.6 15.0495 139.6 15.3687C139.6 16.1045 139.526 16.6433 139.38 16.9847C139.115 17.6113 138.519 18.0071 137.592 18.1733C137.203 18.2436 136.609 18.2786 135.81 18.2786C134.475 18.2786 133.545 18.2025 133.02 18.0491C132.376 17.8613 131.951 17.4808 131.745 16.9079C131.631 16.5889 131.574 16.0576 131.574 15.3139H133.957C133.957 15.3968 133.957 15.4603 133.957 15.504C133.957 15.9009 134.076 16.1559 134.313 16.2697C134.477 16.348 134.675 16.3891 134.909 16.3941H135.785C136.232 16.3941 136.517 16.3722 136.64 16.328C136.859 16.2453 137.003 16.1122 137.071 15.9279C137.108 15.8143 137.126 15.6676 137.126 15.4879C137.126 15.0856 136.973 14.8408 136.668 14.7529C136.553 14.7183 136.022 14.6698 135.074 14.6087C134.312 14.5565 133.783 14.5062 133.487 14.4575C132.707 14.3173 132.187 14.029 131.928 13.5915C131.7 13.2198 131.586 12.6574 131.586 11.9048C131.586 11.3319 131.647 10.8724 131.771 10.5268C131.894 10.1811 132.093 9.9187 132.367 9.7392C132.768 9.46352 133.282 9.30186 133.908 9.25355C134.428 9.20982 135.006 9.18763 135.641 9.18763C136.641 9.18763 137.354 9.24289 137.779 9.35234C138.816 9.61996 139.334 10.3693 139.334 11.6008C139.334 11.7018 139.326 11.8528 139.311 12.0547Z" fill="#777777"/>
<path d="M149.788 18.2786V9.13928H153.521H154.107H154.56C155.214 9.13928 155.713 9.19041 156.057 9.29311C156.841 9.52919 157.368 10.0129 157.638 10.7435C157.777 11.1271 157.847 11.7046 157.847 12.4757C157.847 13.4028 157.769 14.0688 157.616 14.4746C157.31 15.2766 156.681 15.7388 155.729 15.8584C155.617 15.8765 155.141 15.8924 154.301 15.9054L153.876 15.9189H152.349V18.2786H149.788ZM152.349 13.7988H153.946C154.452 13.7814 154.76 13.744 154.871 13.6854C155.022 13.6056 155.124 13.4454 155.174 13.2054C155.207 13.0457 155.223 12.8081 155.223 12.4927C155.223 12.106 155.191 11.8195 155.126 11.6323C155.034 11.3701 154.813 11.2107 154.464 11.1526C154.395 11.1439 154.229 11.1391 153.967 11.1391H152.349V13.7988Z" fill="#777777"/>
<path d="M163.313 16.6992H159.889L159.429 18.2786H156.779L159.639 9.13928H163.502L166.396 18.2786H163.802L163.313 16.6992ZM162.805 14.9187L161.605 10.957L160.44 14.9187H162.805Z" fill="#777777"/>
<path d="M146.254 10.4249C147.31 10.4249 148.253 10.8922 148.872 11.6242L149.424 10.4873C148.561 9.70359 147.386 9.22034 146.09 9.22034C144.072 9.22034 142.345 10.3909 141.637 12.048H140.56L139.925 13.3568H141.31C141.299 13.4782 141.292 13.5996 141.292 13.7236C141.292 13.8735 141.301 14.0219 141.316 14.1684H140.62L139.985 15.4776H141.67C142.399 17.0927 144.103 18.2265 146.09 18.2265C147.091 18.2265 148.02 17.9384 148.789 17.4462V15.8418C148.17 16.5191 147.264 16.9471 146.254 16.9471C145.073 16.9471 144.035 16.3625 143.43 15.4776H146.959L147.595 14.1684H142.911C142.886 14.0108 142.874 13.8498 142.874 13.6858C142.874 13.5748 142.879 13.4651 142.891 13.3568H147.989L148.624 12.048H143.331C143.917 11.0778 145.006 10.4249 146.254 10.4249Z" fill="#CCCCCC"/>
<rect x="184.308" y="0.5" width="52.2002" height="26.418" rx="1.5" fill="#F8FDFF" stroke="#E4F1F5"/>
<g clip-path="url(#clip1)">
<path d="M205.472 10.4683H203.125C203.047 10.4683 202.972 10.4951 202.913 10.544C202.854 10.5928 202.814 10.6605 202.802 10.7349L201.853 16.5631C201.849 16.5902 201.85 16.6178 201.858 16.6441C201.866 16.6705 201.879 16.6949 201.898 16.7157C201.916 16.7364 201.939 16.7531 201.965 16.7645C201.99 16.7759 202.018 16.7818 202.047 16.7818H203.167C203.245 16.7818 203.32 16.755 203.379 16.706C203.438 16.6571 203.477 16.5893 203.489 16.5149L203.745 14.943C203.758 14.8686 203.797 14.8009 203.856 14.752C203.915 14.703 203.99 14.6761 204.067 14.6761H204.811C206.357 14.6761 207.249 13.9516 207.482 12.5159C207.587 11.8878 207.487 11.3942 207.183 11.0486C206.849 10.6691 206.258 10.4683 205.472 10.4683ZM205.743 12.597C205.614 13.4125 204.971 13.4125 204.349 13.4125H203.994L204.243 11.8894C204.25 11.8449 204.274 11.8043 204.309 11.775C204.344 11.7457 204.389 11.7296 204.436 11.7296H204.598C205.022 11.7296 205.422 11.7296 205.629 11.9635C205.752 12.1031 205.79 12.3105 205.743 12.597ZM212.489 12.5707H211.364C211.318 12.5707 211.273 12.5868 211.237 12.6161C211.202 12.6454 211.178 12.686 211.171 12.7306L211.121 13.035L211.043 12.9247C210.799 12.5827 210.257 12.4684 209.715 12.4684C208.473 12.4684 207.412 13.3793 207.206 14.6572C207.098 15.2946 207.251 15.9041 207.624 16.3292C207.967 16.72 208.457 16.8828 209.04 16.8828C210.041 16.8828 210.596 16.2597 210.596 16.2597L210.546 16.5621C210.541 16.5892 210.543 16.6168 210.551 16.6432C210.558 16.6696 210.572 16.694 210.59 16.7148C210.608 16.7357 210.631 16.7524 210.657 16.764C210.683 16.7755 210.71 16.7814 210.739 16.7815H211.751C211.829 16.7815 211.904 16.7546 211.963 16.7057C212.022 16.6568 212.062 16.589 212.074 16.5146L212.681 12.7894C212.686 12.7624 212.684 12.7348 212.676 12.7085C212.669 12.6822 212.655 12.6578 212.637 12.637C212.619 12.6162 212.596 12.5995 212.57 12.5881C212.545 12.5766 212.517 12.5707 212.489 12.5707ZM210.922 14.6891C210.813 15.3109 210.304 15.7283 209.653 15.7283C209.327 15.7283 209.066 15.6269 208.899 15.4348C208.733 15.2441 208.669 14.9725 208.722 14.6701C208.824 14.0536 209.342 13.6226 209.982 13.6226C210.301 13.6226 210.561 13.7253 210.732 13.919C210.903 14.1148 210.971 14.388 210.922 14.6891ZM218.475 12.5707H217.346C217.292 12.5708 217.24 12.5835 217.193 12.6076C217.146 12.6318 217.105 12.6667 217.075 12.7093L215.517 14.9313L214.857 12.796C214.837 12.7309 214.795 12.6738 214.739 12.6333C214.683 12.5927 214.614 12.5708 214.544 12.5707H213.434C213.403 12.5706 213.372 12.5778 213.344 12.5915C213.317 12.6052 213.293 12.6252 213.275 12.6497C213.256 12.6742 213.245 12.7026 213.24 12.7324C213.235 12.7623 213.238 12.7927 213.248 12.8213L214.493 16.3567L213.323 17.9556C213.302 17.984 213.29 18.0173 213.287 18.052C213.285 18.0867 213.292 18.1214 213.309 18.1523C213.325 18.1831 213.35 18.209 213.381 18.2271C213.411 18.2452 213.447 18.2547 213.483 18.2547H214.611C214.663 18.2548 214.715 18.2425 214.762 18.2189C214.809 18.1953 214.849 18.161 214.879 18.1191L218.636 12.8682C218.656 12.8398 218.668 12.8065 218.67 12.772C218.672 12.7375 218.665 12.703 218.648 12.6724C218.632 12.6417 218.607 12.6161 218.576 12.5981C218.546 12.5802 218.511 12.5707 218.475 12.5707Z" fill="#777777"/>
<path d="M222.215 10.4683H219.867C219.79 10.4684 219.715 10.4952 219.656 10.5441C219.597 10.593 219.558 10.6606 219.546 10.7349L218.596 16.5631C218.592 16.5901 218.593 16.6177 218.601 16.644C218.609 16.6703 218.622 16.6947 218.641 16.7155C218.659 16.7363 218.682 16.753 218.707 16.7644C218.733 16.7759 218.761 16.7818 218.789 16.7818H219.994C220.048 16.7817 220.101 16.7629 220.142 16.7286C220.183 16.6944 220.211 16.647 220.219 16.595L220.488 14.943C220.5 14.8686 220.539 14.8009 220.598 14.752C220.657 14.703 220.733 14.6761 220.81 14.6761H221.553C223.1 14.6761 223.992 13.9516 224.225 12.5159C224.33 11.8878 224.229 11.3942 223.925 11.0486C223.592 10.6691 223.001 10.4683 222.215 10.4683ZM222.486 12.597C222.358 13.4125 221.714 13.4125 221.092 13.4125H220.738L220.987 11.8894C220.994 11.8449 221.017 11.8042 221.053 11.7749C221.088 11.7456 221.133 11.7295 221.18 11.7296H221.342C221.766 11.7296 222.166 11.7296 222.372 11.9635C222.496 12.1031 222.533 12.3105 222.486 12.597ZM229.231 12.5707H228.108C228.061 12.5706 228.016 12.5867 227.981 12.616C227.946 12.6453 227.922 12.686 227.915 12.7306L227.865 13.035L227.786 12.9247C227.543 12.5827 227.001 12.4684 226.459 12.4684C225.217 12.4684 224.156 13.3793 223.95 14.6571C223.843 15.2946 223.995 15.9041 224.368 16.3292C224.711 16.72 225.201 16.8828 225.784 16.8828C226.785 16.8828 227.34 16.2597 227.34 16.2597L227.29 16.5621C227.285 16.5892 227.287 16.6169 227.295 16.6433C227.302 16.6698 227.316 16.6942 227.334 16.7151C227.353 16.736 227.375 16.7527 227.401 16.7642C227.427 16.7756 227.455 16.7815 227.483 16.7815H228.496C228.573 16.7814 228.648 16.7545 228.707 16.7056C228.766 16.6567 228.805 16.5889 228.817 16.5146L229.425 12.7894C229.43 12.7623 229.428 12.7347 229.42 12.7084C229.412 12.682 229.399 12.6576 229.38 12.6369C229.362 12.6161 229.339 12.5994 229.313 12.588C229.288 12.5766 229.26 12.5707 229.231 12.5707ZM227.665 14.6891C227.557 15.3109 227.046 15.7283 226.396 15.7283C226.071 15.7283 225.809 15.6269 225.642 15.4348C225.475 15.2441 225.413 14.9725 225.465 14.6701C225.567 14.0536 226.085 13.6226 226.725 13.6226C227.044 13.6226 227.303 13.7253 227.474 13.919C227.646 14.1148 227.714 14.388 227.665 14.6891ZM230.557 10.6282L229.593 16.5631C229.589 16.5901 229.59 16.6177 229.598 16.644C229.606 16.6703 229.619 16.6947 229.638 16.7155C229.656 16.7363 229.679 16.753 229.704 16.7644C229.73 16.7759 229.758 16.7818 229.786 16.7818H230.755C230.916 16.7818 231.052 16.6688 231.077 16.5149L232.027 10.687C232.031 10.66 232.03 10.6324 232.022 10.6061C232.014 10.5797 232.001 10.5553 231.983 10.5345C231.964 10.5137 231.942 10.497 231.916 10.4855C231.89 10.474 231.862 10.4681 231.834 10.468H230.749C230.703 10.4682 230.658 10.4844 230.623 10.5137C230.587 10.5431 230.564 10.5837 230.557 10.6282Z" fill="#777777"/>
<path d="M192.105 17.9144L192.285 16.8104L191.885 16.8014H189.976L191.303 8.65476C191.306 8.62987 191.32 8.60718 191.339 8.59083C191.359 8.57448 191.384 8.56556 191.41 8.56569H194.63C195.699 8.56569 196.436 8.78105 196.821 9.20611C197.002 9.40551 197.117 9.61389 197.172 9.84321C197.231 10.0838 197.232 10.3713 197.175 10.7219L197.171 10.7475V10.9722L197.351 11.0712C197.489 11.1388 197.613 11.2303 197.717 11.3411C197.871 11.5116 197.971 11.7282 198.013 11.9851C198.057 12.2493 198.042 12.5637 197.971 12.9197C197.889 13.3291 197.756 13.6857 197.576 13.9775C197.417 14.2389 197.204 14.4653 196.949 14.6422C196.71 14.8064 196.427 14.931 196.106 15.0108C195.795 15.0892 195.44 15.1287 195.051 15.1287H194.801C194.622 15.1287 194.447 15.1912 194.311 15.3032C194.174 15.4164 194.084 15.5728 194.056 15.7446L194.037 15.8439L193.72 17.7898L193.705 17.8612C193.701 17.8838 193.695 17.8951 193.685 17.9028C193.676 17.9102 193.664 17.9143 193.652 17.9144H192.105Z" fill="#777777"/>
<path d="M197.522 10.7734C197.512 10.8329 197.501 10.8937 197.489 10.9562C197.065 13.0669 195.612 13.7961 193.757 13.7961H192.812C192.585 13.7961 192.394 13.9556 192.359 14.1723L191.875 17.1421L191.738 17.9839C191.733 18.0173 191.735 18.0514 191.744 18.0839C191.754 18.1165 191.771 18.1466 191.793 18.1724C191.816 18.1981 191.844 18.2187 191.876 18.2329C191.907 18.247 191.942 18.2544 191.977 18.2544H193.652C193.851 18.2544 194.019 18.1148 194.05 17.9254L194.067 17.843L194.382 15.9048L194.402 15.7984C194.433 15.6083 194.602 15.4687 194.801 15.4687H195.051C196.674 15.4687 197.945 14.8306 198.316 12.9841C198.471 12.2128 198.391 11.5687 197.981 11.1157C197.85 10.9756 197.695 10.8596 197.522 10.7734Z" fill="#777777"/>
<path d="M197.077 10.6019C196.942 10.564 196.804 10.5343 196.665 10.5132C196.389 10.4722 196.111 10.4525 195.832 10.4544H193.308C193.212 10.4543 193.12 10.4875 193.047 10.548C192.974 10.6084 192.925 10.6922 192.911 10.7841L192.374 14.0762L192.358 14.1723C192.375 14.0675 192.43 13.9719 192.513 13.9029C192.596 13.8339 192.702 13.796 192.812 13.7961H193.756C195.612 13.7961 197.064 13.0666 197.489 10.9562C197.501 10.8937 197.512 10.8329 197.522 10.7734C197.41 10.7165 197.293 10.6688 197.173 10.6309C197.141 10.6207 197.109 10.6111 197.077 10.6019Z" fill="#CCCCCC"/>
<path d="M192.911 10.7841C192.926 10.6921 192.974 10.6084 193.047 10.5479C193.12 10.4875 193.213 10.4544 193.309 10.4547H195.832C196.131 10.4547 196.41 10.4737 196.665 10.5135C196.837 10.5398 197.007 10.579 197.173 10.6309C197.299 10.6711 197.415 10.7186 197.522 10.7734C197.649 9.99342 197.521 9.46234 197.086 8.98145C196.606 8.45203 195.739 8.22537 194.63 8.22537H191.41C191.184 8.22537 190.991 8.3849 190.956 8.60191L189.615 16.8323C189.608 16.8705 189.611 16.9096 189.622 16.9468C189.633 16.9841 189.652 17.0186 189.677 17.048C189.703 17.0775 189.736 17.1011 189.772 17.1173C189.808 17.1336 189.848 17.142 189.888 17.1421H191.875L192.374 14.0762L192.911 10.7841Z" fill="#777777"/>
</g>
<defs>
<clipPath id="clip0">
<rect width="28.051" height="9.13934" fill="white" transform="translate(12.5996 9.13931)"/>
</clipPath>
<clipPath id="clip1">
<rect width="42.5602" height="10.9672" fill="white" transform="translate(189.611 8.22537)"/>
</clipPath>
</defs>
</svg>
