<svg width="51" height="28" viewBox="0 0 51 28" fill="none" xmlns="http://www.w3.org/2000/svg">
<rect x="0.655762" y="0.499939" width="49.2664" height="26.418" rx="1.5" stroke="#DADADA"/>
<path d="M15.6913 12.0546H13.4401C13.4401 11.6791 13.3966 11.4271 13.3101 11.2988C13.1762 11.109 12.8065 11.0139 12.2014 11.0139C11.6136 11.0139 11.224 11.0686 11.0339 11.178C10.8438 11.2879 10.7486 11.5266 10.7486 11.8941C10.7486 12.2267 10.8329 12.4461 11.0018 12.5509C11.1227 12.6256 11.2826 12.6693 11.4817 12.6824L11.9357 12.715C12.9088 12.7805 13.5165 12.8268 13.7588 12.8532C14.5283 12.9319 15.0862 13.1399 15.4323 13.477C15.7046 13.74 15.867 14.0838 15.9188 14.5081C15.9492 14.762 15.9642 15.0494 15.9642 15.3686C15.9642 16.1045 15.8951 16.6432 15.757 16.9846C15.5063 17.6112 14.9432 18.007 14.067 18.1733C13.6999 18.2435 13.1385 18.2786 12.3831 18.2786C11.1223 18.2786 10.2438 18.2024 9.74765 18.049C9.13888 17.8612 8.73732 17.4807 8.54317 16.9078C8.43486 16.5888 8.38135 16.0575 8.38135 15.3138H10.6326C10.6326 15.3967 10.6328 15.4602 10.6328 15.504C10.6328 15.9008 10.7449 16.1558 10.969 16.2696C11.1242 16.348 11.3115 16.3891 11.5318 16.3941H12.3595C12.7819 16.3941 13.0514 16.3721 13.1676 16.3279C13.3746 16.2453 13.5105 16.1121 13.5754 15.9278C13.6098 15.8142 13.6269 15.6676 13.6269 15.4879C13.6269 15.0855 13.4825 14.8408 13.1939 14.7529C13.0858 14.7183 12.5841 14.6698 11.6881 14.6086C10.9684 14.5564 10.4686 14.5061 10.1888 14.4574C9.45183 14.3173 8.96058 14.029 8.71549 13.5914C8.49993 13.2198 8.39226 12.6573 8.39226 11.9047C8.39226 11.3318 8.45049 10.8723 8.56693 10.5268C8.68338 10.181 8.8711 9.91864 9.13011 9.73913C9.50963 9.46345 9.99531 9.30179 10.5863 9.25349C11.0782 9.20975 11.6238 9.18756 12.224 9.18756C13.1689 9.18756 13.8423 9.24283 14.2436 9.35227C15.2234 9.6199 15.7131 10.3692 15.7131 11.6008C15.7131 11.7017 15.7058 11.8527 15.6913 12.0546Z" fill="#BDBDBD"/>
<path d="M25.5913 18.2785V9.13922H29.1183H29.6718H30.0997C30.7181 9.13922 31.1899 9.19035 31.5142 9.29305C32.2557 9.52913 32.7531 10.0128 33.0081 10.7435C33.1395 11.127 33.2054 11.7045 33.2054 12.4756C33.2054 13.4027 33.1324 14.0688 32.9879 14.4745C32.6988 15.2765 32.1037 15.7387 31.2049 15.8584C31.0991 15.8764 30.6494 15.8923 29.8555 15.9054L29.4539 15.9188H28.0112V18.2785H25.5913ZM28.0112 13.7987H29.5196C29.998 13.7813 30.2889 13.7439 30.3936 13.6854C30.5366 13.6055 30.6327 13.4454 30.6804 13.2054C30.711 13.0457 30.7262 12.8081 30.7262 12.4926C30.7262 12.1059 30.6958 11.8194 30.6348 11.6323C30.5479 11.3701 30.3394 11.2106 30.0094 11.1525C29.9439 11.1438 29.7876 11.139 29.54 11.139H28.0112V13.7987Z" fill="#BDBDBD"/>
<path d="M38.3705 16.6991H35.1351L34.7004 18.2785H32.1968L34.8984 9.13922H38.5486L41.2831 18.2785H38.8322L38.3705 16.6991ZM37.89 14.9186L36.7561 10.9569L35.6559 14.9186H37.89Z" fill="#BDBDBD"/>
<path d="M22.2513 10.4248C23.2492 10.4248 24.1401 10.8922 24.7255 11.6241L25.2472 10.4873C24.4314 9.70352 23.3211 9.22028 22.0965 9.22028C20.1897 9.22028 18.5586 10.3909 17.8893 12.048H16.8721L16.2715 13.3567H17.58C17.5701 13.4781 17.5637 13.5995 17.5637 13.7236C17.5637 13.8735 17.5714 14.0219 17.586 14.1683H16.9284L16.328 15.4775H17.9206C18.609 17.0926 20.2197 18.2264 22.0965 18.2264C23.0424 18.2264 23.9201 17.9383 24.6468 17.4462V15.8417C24.0615 16.5191 23.2055 16.947 22.2513 16.947C21.1359 16.947 20.1546 16.3624 19.5833 15.4775H22.9179L23.5185 14.1683H19.0927C19.0698 14.0108 19.0576 13.8498 19.0576 13.6857C19.0576 13.5747 19.0632 13.4651 19.0739 13.3567H23.8907L24.4912 12.048H19.4902C20.0433 11.0778 21.0725 10.4248 22.2513 10.4248Z" fill="#BDBDBD"/>
</svg>
