<svg width="51" height="28" viewBox="0 0 51 28" fill="none" xmlns="http://www.w3.org/2000/svg">
<rect x="1.07764" y="0.499939" width="49.2664" height="26.418" rx="1.5" stroke="#DADADA"/>
<path d="M23.4261 18.1468H21.2051L22.5943 9.29962H24.8152L23.4261 18.1468Z" fill="#BDBDBD"/>
<path d="M31.4775 9.51588C31.0394 9.33687 30.3446 9.13922 29.4854 9.13922C27.292 9.13922 25.7475 10.3439 25.738 12.0662C25.7198 13.3369 26.8439 14.0426 27.6846 14.4663C28.5439 14.8993 28.836 15.1819 28.836 15.5678C28.8272 16.1605 28.1416 16.4337 27.5021 16.4337C26.6154 16.4337 26.1403 16.2928 25.4182 15.9631L25.1257 15.8217L24.8149 17.8077C25.3359 18.0521 26.2956 18.2691 27.292 18.2786C29.6225 18.2786 31.1397 17.0926 31.1577 15.2572C31.1666 14.25 30.573 13.4783 29.2934 12.8477C28.5165 12.4429 28.0408 12.17 28.0408 11.7558C28.0499 11.3793 28.4432 10.9936 29.3201 10.9936C30.0421 10.9747 30.5727 11.1535 30.9746 11.3324L31.1754 11.4263L31.4775 9.51588Z" fill="#BDBDBD"/>
<path d="M34.4295 15.0125C34.6124 14.5043 35.3162 12.5372 35.3162 12.5372C35.307 12.5561 35.4988 12.0195 35.6085 11.6902L35.7637 12.4525C35.7637 12.4525 36.1843 14.5702 36.2756 15.0125C35.9285 15.0125 34.8682 15.0125 34.4295 15.0125ZM37.1711 9.29962H35.4531C34.9233 9.29962 34.5208 9.45949 34.2923 10.0337L30.9932 18.1466H33.3236C33.3236 18.1466 33.7073 17.0547 33.7898 16.8195C34.0455 16.8195 36.3125 16.8195 36.6414 16.8195C36.7052 17.1301 36.9065 18.1466 36.9065 18.1466H38.9629L37.1711 9.29962Z" fill="#BDBDBD"/>
<path d="M19.3498 9.29962L17.1747 15.3325L16.937 14.109C16.5348 12.6972 15.2736 11.1633 13.8662 10.4006L15.8586 18.1374H18.2073L21.6984 9.29962H19.3498Z" fill="#BDBDBD"/>
<path d="M15.1549 9.29962H11.5815L11.5449 9.47838C14.3324 10.2126 16.1786 11.9823 16.9371 14.1093L16.1602 10.0433C16.0323 9.47826 15.6393 9.31826 15.1549 9.29962Z" fill="#CCCCCC"/>
</svg>
